G75*
G70*
%OFA0B0*%
%FSLAX24Y24*%
%IPPOS*%
%LPD*%
%AMOC8*
5,1,8,0,0,1.08239X$1,22.5*
%
%ADD10OC8,0.0630*%
%ADD11C,0.0630*%
%ADD12C,0.0520*%
%ADD13C,0.0600*%
%ADD14OC8,0.0600*%
%ADD15OC8,0.0396*%
%ADD16R,0.0396X0.0396*%
%ADD17C,0.0100*%
%ADD18C,0.0396*%
%ADD19C,0.0160*%
%ADD20C,0.0120*%
D10*
X002401Y005101D03*
X008930Y010772D03*
D11*
X007930Y010772D03*
X002401Y004101D03*
D12*
X011101Y001361D02*
X011101Y000841D01*
X012101Y000841D02*
X012101Y001361D01*
X013101Y001361D02*
X013101Y000841D01*
X014101Y000841D02*
X014101Y001361D01*
X015101Y001361D02*
X015101Y000841D01*
X016101Y000841D02*
X016101Y001361D01*
D13*
X016001Y010101D02*
X015401Y010101D01*
X015401Y011101D02*
X016001Y011101D01*
X016801Y011101D02*
X017401Y011101D01*
X017401Y010101D02*
X016801Y010101D01*
D14*
X005501Y010301D03*
X004501Y010301D03*
X003501Y010301D03*
X002501Y010301D03*
X002501Y011301D03*
X003501Y011301D03*
X004501Y011301D03*
X005501Y011301D03*
D15*
X002961Y008996D03*
X002461Y008296D03*
X001201Y008301D03*
X014601Y002801D03*
D16*
X012701Y005201D03*
X013801Y007501D03*
X017201Y006401D03*
X009701Y007501D03*
X009701Y008294D03*
X009694Y009101D03*
X008301Y009101D03*
X003761Y008996D03*
X003361Y008296D03*
X001201Y009101D03*
X002501Y002601D03*
X003301Y002601D03*
X004101Y002601D03*
X003401Y001701D03*
X003401Y000601D03*
X006501Y000801D03*
D17*
X001965Y000838D02*
X001764Y000637D01*
X001851Y000551D01*
X003873Y000551D01*
X003873Y000666D01*
X003923Y000787D01*
X004015Y000879D01*
X004135Y000929D01*
X004266Y000929D01*
X004387Y000879D01*
X004479Y000787D01*
X004501Y000734D01*
X004501Y001568D01*
X004479Y001515D01*
X004387Y001423D01*
X004266Y001373D01*
X004135Y001373D01*
X004015Y001423D01*
X003923Y001515D01*
X003873Y001635D01*
X003873Y001766D01*
X003923Y001887D01*
X004015Y001979D01*
X004135Y002029D01*
X004266Y002029D01*
X004387Y001979D01*
X004479Y001887D01*
X004501Y001834D01*
X004501Y003701D01*
X004299Y003902D01*
X004126Y003729D01*
X004166Y003729D01*
X004287Y003679D01*
X004379Y003587D01*
X004429Y003466D01*
X004429Y003335D01*
X004379Y003215D01*
X004287Y003123D01*
X004166Y003073D01*
X004035Y003073D01*
X003915Y003123D01*
X003823Y003215D01*
X003773Y003335D01*
X003773Y003376D01*
X003711Y003314D01*
X003588Y003191D01*
X003555Y003191D01*
X003487Y003123D01*
X003366Y003073D01*
X003235Y003073D01*
X003115Y003123D01*
X003023Y003215D01*
X002973Y003335D01*
X002973Y003466D01*
X003023Y003587D01*
X003115Y003679D01*
X003216Y003721D01*
X003075Y003721D01*
X002826Y003472D01*
X002829Y003466D01*
X002829Y003335D01*
X002779Y003215D01*
X002687Y003123D01*
X002566Y003073D01*
X002435Y003073D01*
X002315Y003123D01*
X002223Y003215D01*
X002173Y003335D01*
X002173Y003466D01*
X002223Y003587D01*
X002298Y003662D01*
X002149Y003724D01*
X002024Y003849D01*
X001956Y004012D01*
X001956Y004189D01*
X002024Y004353D01*
X002149Y004478D01*
X002312Y004546D01*
X002489Y004546D01*
X002501Y004541D01*
X002501Y004636D01*
X002431Y004636D01*
X002431Y005071D01*
X002371Y005071D01*
X002371Y004636D01*
X002208Y004636D01*
X001936Y004908D01*
X001936Y005071D01*
X002371Y005071D01*
X002371Y005131D01*
X002371Y005566D01*
X002208Y005566D01*
X001936Y005293D01*
X001936Y005131D01*
X002371Y005131D01*
X002431Y005131D01*
X002431Y005566D01*
X002501Y005566D01*
X002501Y006601D01*
X003811Y007911D01*
X003811Y008028D01*
X003791Y008048D01*
X003791Y008222D01*
X003833Y008265D01*
X003833Y008361D01*
X003883Y008482D01*
X003976Y008574D01*
X004096Y008624D01*
X004201Y008624D01*
X004201Y009993D01*
X004071Y010123D01*
X004071Y010479D01*
X004097Y010505D01*
X003801Y010801D01*
X003101Y010801D01*
X003001Y010901D01*
X003001Y011521D01*
X002917Y011521D01*
X002951Y011487D01*
X002951Y011351D01*
X002551Y011351D01*
X002551Y011251D01*
X002951Y011251D01*
X002951Y011114D01*
X002687Y010851D01*
X002551Y010851D01*
X002551Y011251D01*
X002451Y011251D01*
X002451Y010851D01*
X002314Y010851D01*
X002051Y011114D01*
X002051Y011251D01*
X002451Y011251D01*
X002451Y011351D01*
X002051Y011351D01*
X002051Y011487D01*
X002085Y011521D01*
X002021Y011521D01*
X002001Y011501D01*
X002001Y011102D01*
X002107Y010918D01*
X002181Y010643D01*
X002181Y010589D01*
X002323Y010731D01*
X002679Y010731D01*
X002931Y010479D01*
X002931Y010123D01*
X002679Y009871D01*
X002323Y009871D01*
X002108Y010086D01*
X002107Y010084D01*
X001965Y009838D01*
X001764Y009637D01*
X001518Y009494D01*
X001243Y009421D01*
X000959Y009421D01*
X000701Y009490D01*
X000701Y003001D01*
X001121Y002581D01*
X001243Y002581D01*
X001518Y002507D01*
X001764Y002365D01*
X001965Y002164D01*
X002107Y001918D01*
X002181Y001643D01*
X002181Y001359D01*
X002107Y001084D01*
X001965Y000838D01*
X001995Y000889D02*
X004040Y000889D01*
X003927Y000791D02*
X001918Y000791D01*
X001819Y000692D02*
X003883Y000692D01*
X003873Y000594D02*
X001808Y000594D01*
X002051Y000988D02*
X004501Y000988D01*
X004501Y001086D02*
X002108Y001086D01*
X002134Y001185D02*
X004501Y001185D01*
X004501Y001283D02*
X002160Y001283D01*
X002181Y001382D02*
X004113Y001382D01*
X004288Y001382D02*
X004501Y001382D01*
X004501Y001480D02*
X004444Y001480D01*
X003957Y001480D02*
X002181Y001480D01*
X002181Y001579D02*
X003896Y001579D01*
X003873Y001677D02*
X002171Y001677D01*
X002145Y001776D02*
X003877Y001776D01*
X003918Y001875D02*
X002119Y001875D01*
X002075Y001973D02*
X004009Y001973D01*
X004392Y001973D02*
X004501Y001973D01*
X004501Y001875D02*
X004484Y001875D01*
X004501Y002072D02*
X002018Y002072D01*
X001959Y002170D02*
X004501Y002170D01*
X004501Y002269D02*
X001860Y002269D01*
X001760Y002367D02*
X004501Y002367D01*
X004501Y002466D02*
X001589Y002466D01*
X001304Y002564D02*
X004501Y002564D01*
X004501Y002663D02*
X001039Y002663D01*
X000940Y002761D02*
X004501Y002761D01*
X004501Y002860D02*
X000842Y002860D01*
X000743Y002959D02*
X004501Y002959D01*
X004501Y003057D02*
X000701Y003057D01*
X000701Y003156D02*
X002282Y003156D01*
X002206Y003254D02*
X000701Y003254D01*
X000701Y003353D02*
X002173Y003353D01*
X002173Y003451D02*
X000701Y003451D01*
X000701Y003550D02*
X002207Y003550D01*
X002284Y003648D02*
X000701Y003648D01*
X000701Y003747D02*
X002125Y003747D01*
X002027Y003845D02*
X000701Y003845D01*
X000701Y003944D02*
X001984Y003944D01*
X001956Y004043D02*
X000701Y004043D01*
X000701Y004141D02*
X001956Y004141D01*
X001977Y004240D02*
X000701Y004240D01*
X000701Y004338D02*
X002017Y004338D01*
X002107Y004437D02*
X000701Y004437D01*
X000701Y004535D02*
X002287Y004535D01*
X002501Y004634D02*
X000701Y004634D01*
X000701Y004732D02*
X002112Y004732D01*
X002013Y004831D02*
X001395Y004831D01*
X001387Y004823D02*
X001479Y004915D01*
X001529Y005035D01*
X001529Y005166D01*
X001479Y005287D01*
X001387Y005379D01*
X001266Y005429D01*
X001135Y005429D01*
X001015Y005379D01*
X000923Y005287D01*
X000873Y005166D01*
X000873Y005035D01*
X000923Y004915D01*
X001015Y004823D01*
X001135Y004773D01*
X001266Y004773D01*
X001387Y004823D01*
X001485Y004929D02*
X001936Y004929D01*
X001936Y005028D02*
X001526Y005028D01*
X001529Y005126D02*
X002371Y005126D01*
X002371Y005028D02*
X002431Y005028D01*
X002431Y004929D02*
X002371Y004929D01*
X002371Y004831D02*
X002431Y004831D01*
X002431Y004732D02*
X002371Y004732D01*
X002371Y005225D02*
X002431Y005225D01*
X002431Y005324D02*
X002371Y005324D01*
X002371Y005422D02*
X002431Y005422D01*
X002431Y005521D02*
X002371Y005521D01*
X002501Y005619D02*
X001378Y005619D01*
X001387Y005623D02*
X001479Y005715D01*
X001529Y005835D01*
X001529Y005966D01*
X001479Y006087D01*
X001387Y006179D01*
X001266Y006229D01*
X001135Y006229D01*
X001015Y006179D01*
X000923Y006087D01*
X000873Y005966D01*
X000873Y005835D01*
X000923Y005715D01*
X001015Y005623D01*
X001135Y005573D01*
X001266Y005573D01*
X001387Y005623D01*
X001480Y005718D02*
X002501Y005718D01*
X002501Y005816D02*
X001521Y005816D01*
X001529Y005915D02*
X002501Y005915D01*
X002501Y006013D02*
X001509Y006013D01*
X001454Y006112D02*
X002501Y006112D01*
X002501Y006210D02*
X001310Y006210D01*
X001266Y006373D02*
X001135Y006373D01*
X001015Y006423D01*
X000923Y006515D01*
X000873Y006635D01*
X000873Y006766D01*
X000923Y006887D01*
X001015Y006979D01*
X001135Y007029D01*
X001266Y007029D01*
X001387Y006979D01*
X001479Y006887D01*
X001529Y006766D01*
X001529Y006635D01*
X001479Y006515D01*
X001387Y006423D01*
X001266Y006373D01*
X001350Y006408D02*
X002501Y006408D01*
X002501Y006506D02*
X001470Y006506D01*
X001516Y006605D02*
X002505Y006605D01*
X002603Y006703D02*
X001529Y006703D01*
X001514Y006802D02*
X002702Y006802D01*
X002800Y006900D02*
X001465Y006900D01*
X001339Y006999D02*
X002899Y006999D01*
X002997Y007097D02*
X000701Y007097D01*
X000701Y006999D02*
X001063Y006999D01*
X000936Y006900D02*
X000701Y006900D01*
X000701Y006802D02*
X000887Y006802D01*
X000873Y006703D02*
X000701Y006703D01*
X000701Y006605D02*
X000885Y006605D01*
X000931Y006506D02*
X000701Y006506D01*
X000701Y006408D02*
X001051Y006408D01*
X001091Y006210D02*
X000701Y006210D01*
X000701Y006112D02*
X000948Y006112D01*
X000892Y006013D02*
X000701Y006013D01*
X000701Y005915D02*
X000873Y005915D01*
X000881Y005816D02*
X000701Y005816D01*
X000701Y005718D02*
X000921Y005718D01*
X001023Y005619D02*
X000701Y005619D01*
X000701Y005521D02*
X002163Y005521D01*
X002065Y005422D02*
X001282Y005422D01*
X001119Y005422D02*
X000701Y005422D01*
X000701Y005324D02*
X000960Y005324D01*
X000897Y005225D02*
X000701Y005225D01*
X000701Y005126D02*
X000873Y005126D01*
X000876Y005028D02*
X000701Y005028D01*
X000701Y004929D02*
X000917Y004929D01*
X001007Y004831D02*
X000701Y004831D01*
X001442Y005324D02*
X001966Y005324D01*
X001936Y005225D02*
X001504Y005225D01*
X000701Y006309D02*
X002501Y006309D01*
X003096Y007196D02*
X001322Y007196D01*
X001266Y007173D02*
X001387Y007223D01*
X001479Y007315D01*
X001529Y007435D01*
X001529Y007566D01*
X001479Y007687D01*
X001387Y007779D01*
X001266Y007829D01*
X001135Y007829D01*
X001015Y007779D01*
X000923Y007687D01*
X000873Y007566D01*
X000873Y007435D01*
X000923Y007315D01*
X001015Y007223D01*
X001135Y007173D01*
X001266Y007173D01*
X001079Y007196D02*
X000701Y007196D01*
X000701Y007294D02*
X000943Y007294D01*
X000890Y007393D02*
X000701Y007393D01*
X000701Y007492D02*
X000873Y007492D01*
X000883Y007590D02*
X000701Y007590D01*
X000701Y007689D02*
X000925Y007689D01*
X001035Y007787D02*
X000701Y007787D01*
X000701Y007886D02*
X003786Y007886D01*
X003811Y007984D02*
X002614Y007984D01*
X002597Y007968D02*
X002789Y008160D01*
X002789Y008432D01*
X002597Y008624D01*
X002326Y008624D01*
X002133Y008432D01*
X002133Y008160D01*
X002326Y007968D01*
X002597Y007968D01*
X002712Y008083D02*
X003791Y008083D01*
X003791Y008181D02*
X002789Y008181D01*
X002789Y008280D02*
X003833Y008280D01*
X003841Y008378D02*
X002789Y008378D01*
X002744Y008477D02*
X003881Y008477D01*
X003979Y008576D02*
X002646Y008576D01*
X002819Y008674D02*
X000701Y008674D01*
X000701Y008576D02*
X001012Y008576D01*
X001065Y008629D02*
X000873Y008437D01*
X000873Y008165D01*
X001065Y007973D01*
X001337Y007973D01*
X001529Y008165D01*
X001529Y008437D01*
X001337Y008629D01*
X001065Y008629D01*
X000913Y008477D02*
X000701Y008477D01*
X000701Y008378D02*
X000873Y008378D01*
X000873Y008280D02*
X000701Y008280D01*
X000701Y008181D02*
X000873Y008181D01*
X000955Y008083D02*
X000701Y008083D01*
X000701Y007984D02*
X001053Y007984D01*
X001348Y007984D02*
X002309Y007984D01*
X002210Y008083D02*
X001447Y008083D01*
X001529Y008181D02*
X002133Y008181D01*
X002133Y008280D02*
X001529Y008280D01*
X001529Y008378D02*
X002133Y008378D01*
X002179Y008477D02*
X001489Y008477D01*
X001390Y008576D02*
X002277Y008576D01*
X002633Y008860D02*
X002826Y008668D01*
X003097Y008668D01*
X003289Y008860D01*
X003289Y009132D01*
X003097Y009324D01*
X002826Y009324D01*
X002633Y009132D01*
X002633Y008860D01*
X002633Y008871D02*
X000701Y008871D01*
X000701Y008773D02*
X002721Y008773D01*
X002633Y008970D02*
X000701Y008970D01*
X000701Y009068D02*
X002633Y009068D01*
X002668Y009167D02*
X000701Y009167D01*
X000701Y009265D02*
X002767Y009265D01*
X003156Y009265D02*
X004201Y009265D01*
X004201Y009167D02*
X003254Y009167D01*
X003289Y009068D02*
X004201Y009068D01*
X004201Y008970D02*
X003289Y008970D01*
X003289Y008871D02*
X004201Y008871D01*
X004201Y008773D02*
X003202Y008773D01*
X003104Y008674D02*
X004201Y008674D01*
X004201Y009364D02*
X000701Y009364D01*
X000701Y009462D02*
X000804Y009462D01*
X001398Y009462D02*
X004201Y009462D01*
X004201Y009561D02*
X001633Y009561D01*
X001787Y009659D02*
X004201Y009659D01*
X004201Y009758D02*
X001885Y009758D01*
X001976Y009857D02*
X004201Y009857D01*
X004201Y009955D02*
X003763Y009955D01*
X003679Y009871D02*
X003931Y010123D01*
X003931Y010479D01*
X003679Y010731D01*
X003323Y010731D01*
X003071Y010479D01*
X003071Y010123D01*
X003323Y009871D01*
X003679Y009871D01*
X003862Y010054D02*
X004140Y010054D01*
X004071Y010152D02*
X003931Y010152D01*
X003931Y010251D02*
X004071Y010251D01*
X004071Y010349D02*
X003931Y010349D01*
X003931Y010448D02*
X004071Y010448D01*
X004055Y010546D02*
X003863Y010546D01*
X003957Y010645D02*
X003765Y010645D01*
X003858Y010743D02*
X002154Y010743D01*
X002180Y010645D02*
X002237Y010645D01*
X002127Y010842D02*
X003060Y010842D01*
X003001Y010941D02*
X002777Y010941D01*
X002875Y011039D02*
X003001Y011039D01*
X003001Y011138D02*
X002951Y011138D01*
X002951Y011236D02*
X003001Y011236D01*
X003001Y011335D02*
X002551Y011335D01*
X002551Y011236D02*
X002451Y011236D01*
X002451Y011138D02*
X002551Y011138D01*
X002551Y011039D02*
X002451Y011039D01*
X002451Y010941D02*
X002551Y010941D01*
X002225Y010941D02*
X002094Y010941D01*
X002126Y011039D02*
X002037Y011039D01*
X002051Y011138D02*
X002001Y011138D01*
X002001Y011236D02*
X002051Y011236D01*
X002001Y011335D02*
X002451Y011335D01*
X002051Y011433D02*
X002001Y011433D01*
X002951Y011433D02*
X003001Y011433D01*
X002765Y010645D02*
X003237Y010645D01*
X003138Y010546D02*
X002863Y010546D01*
X002931Y010448D02*
X003071Y010448D01*
X003071Y010349D02*
X002931Y010349D01*
X002931Y010251D02*
X003071Y010251D01*
X003071Y010152D02*
X002931Y010152D01*
X002862Y010054D02*
X003140Y010054D01*
X003238Y009955D02*
X002763Y009955D01*
X002238Y009955D02*
X002033Y009955D01*
X002090Y010054D02*
X002140Y010054D01*
X001367Y007787D02*
X003687Y007787D01*
X003589Y007689D02*
X001477Y007689D01*
X001519Y007590D02*
X003490Y007590D01*
X003392Y007492D02*
X001529Y007492D01*
X001511Y007393D02*
X003293Y007393D01*
X003194Y007294D02*
X001458Y007294D01*
X004401Y007301D02*
X004601Y007601D01*
X004401Y007301D02*
X004401Y004801D01*
X003501Y003901D01*
X003001Y003901D01*
X002501Y003401D01*
X002720Y003156D02*
X003082Y003156D01*
X003006Y003254D02*
X002795Y003254D01*
X002829Y003353D02*
X002973Y003353D01*
X002973Y003451D02*
X002829Y003451D01*
X002904Y003550D02*
X003007Y003550D01*
X003003Y003648D02*
X003084Y003648D01*
X003651Y003254D02*
X003806Y003254D01*
X003773Y003353D02*
X003750Y003353D01*
X003882Y003156D02*
X003520Y003156D01*
X004320Y003156D02*
X004501Y003156D01*
X004501Y003254D02*
X004395Y003254D01*
X004429Y003353D02*
X004501Y003353D01*
X004501Y003451D02*
X004429Y003451D01*
X004394Y003550D02*
X004501Y003550D01*
X004501Y003648D02*
X004317Y003648D01*
X004455Y003747D02*
X004144Y003747D01*
X004242Y003845D02*
X004356Y003845D01*
X006366Y002466D02*
X013401Y002466D01*
X013401Y002564D02*
X013328Y002564D01*
X013287Y002523D02*
X013379Y002615D01*
X013401Y002668D01*
X013401Y001901D01*
X013385Y001656D01*
X013333Y001708D01*
X013182Y001771D01*
X013131Y001771D01*
X013131Y001131D01*
X013071Y001131D01*
X013071Y001771D01*
X013019Y001771D01*
X012869Y001708D01*
X012753Y001593D01*
X012691Y001442D01*
X012691Y001131D01*
X013071Y001131D01*
X013071Y001071D01*
X012691Y001071D01*
X012691Y000759D01*
X012753Y000609D01*
X012811Y000551D01*
X012362Y000551D01*
X012431Y000620D01*
X012491Y000763D01*
X012491Y001438D01*
X012431Y001582D01*
X012322Y001691D01*
X012178Y001751D01*
X012023Y001751D01*
X011880Y001691D01*
X011770Y001582D01*
X011711Y001438D01*
X011711Y000763D01*
X011770Y000620D01*
X011839Y000551D01*
X011362Y000551D01*
X011431Y000620D01*
X011491Y000763D01*
X011491Y001438D01*
X011431Y001582D01*
X011322Y001691D01*
X011178Y001751D01*
X011023Y001751D01*
X010880Y001691D01*
X010770Y001582D01*
X010711Y001438D01*
X010711Y000763D01*
X010770Y000620D01*
X010839Y000551D01*
X005801Y000551D01*
X005501Y000801D01*
X005501Y001601D01*
X009130Y005230D01*
X009228Y005345D01*
X009308Y005472D01*
X009368Y005611D01*
X009407Y005756D01*
X009423Y005906D01*
X009416Y006057D01*
X009387Y006205D01*
X009336Y006347D01*
X009311Y006392D01*
X009311Y008414D01*
X009388Y008491D01*
X010007Y008491D01*
X010181Y008491D01*
X010462Y008773D01*
X017199Y008773D01*
X017181Y008795D02*
X017249Y008712D01*
X017303Y008619D01*
X017342Y008518D01*
X017169Y008518D01*
X016942Y008424D01*
X016768Y008250D01*
X016701Y008088D01*
X016634Y008250D01*
X016460Y008424D01*
X016233Y008518D01*
X015987Y008518D01*
X015761Y008424D01*
X015587Y008250D01*
X015493Y008024D01*
X015493Y007778D01*
X015587Y007551D01*
X015761Y007377D01*
X015987Y007283D01*
X016233Y007283D01*
X016460Y007377D01*
X016634Y007551D01*
X016701Y007713D01*
X016768Y007551D01*
X016942Y007377D01*
X017169Y007283D01*
X017414Y007283D01*
X017641Y007377D01*
X017667Y007403D01*
X017901Y006601D01*
X017901Y005201D01*
X016101Y003401D01*
X013901Y003401D01*
X013410Y002910D01*
X013379Y002987D01*
X013287Y003079D01*
X013166Y003129D01*
X013035Y003129D01*
X012915Y003079D01*
X012823Y002987D01*
X012773Y002866D01*
X012773Y002735D01*
X012823Y002615D01*
X012915Y002523D01*
X013035Y002473D01*
X013166Y002473D01*
X013287Y002523D01*
X013399Y002663D02*
X013401Y002663D01*
X013401Y002367D02*
X006267Y002367D01*
X006169Y002269D02*
X013401Y002269D01*
X013401Y002170D02*
X006070Y002170D01*
X005972Y002072D02*
X013401Y002072D01*
X013401Y001973D02*
X005873Y001973D01*
X005775Y001875D02*
X013399Y001875D01*
X013393Y001776D02*
X005676Y001776D01*
X005577Y001677D02*
X010866Y001677D01*
X010769Y001579D02*
X005501Y001579D01*
X005501Y001480D02*
X010728Y001480D01*
X010711Y001382D02*
X005501Y001382D01*
X005501Y001283D02*
X010711Y001283D01*
X010711Y001185D02*
X005501Y001185D01*
X005501Y001086D02*
X010711Y001086D01*
X010711Y000988D02*
X005501Y000988D01*
X005501Y000889D02*
X010711Y000889D01*
X010711Y000791D02*
X005513Y000791D01*
X005631Y000692D02*
X010740Y000692D01*
X010796Y000594D02*
X005750Y000594D01*
X004501Y000791D02*
X004475Y000791D01*
X004501Y000889D02*
X004362Y000889D01*
X006464Y002564D02*
X010473Y002564D01*
X010515Y002523D02*
X010423Y002615D01*
X010373Y002735D01*
X010373Y002866D01*
X010423Y002987D01*
X010515Y003079D01*
X010635Y003129D01*
X010766Y003129D01*
X010887Y003079D01*
X010979Y002987D01*
X011029Y002866D01*
X011029Y002735D01*
X010979Y002615D01*
X010887Y002523D01*
X010766Y002473D01*
X010635Y002473D01*
X010515Y002523D01*
X010403Y002663D02*
X006563Y002663D01*
X006661Y002761D02*
X010373Y002761D01*
X010373Y002860D02*
X006760Y002860D01*
X006859Y002959D02*
X010411Y002959D01*
X010493Y003057D02*
X006957Y003057D01*
X007056Y003156D02*
X013656Y003156D01*
X013754Y003254D02*
X007154Y003254D01*
X007253Y003353D02*
X013853Y003353D01*
X013557Y003057D02*
X013308Y003057D01*
X013391Y002959D02*
X013459Y002959D01*
X012893Y003057D02*
X012508Y003057D01*
X012487Y003079D02*
X012579Y002987D01*
X012629Y002866D01*
X012629Y002735D01*
X012579Y002615D01*
X012487Y002523D01*
X012366Y002473D01*
X012235Y002473D01*
X012115Y002523D01*
X012023Y002615D01*
X011973Y002735D01*
X011973Y002866D01*
X012023Y002987D01*
X012115Y003079D01*
X012235Y003129D01*
X012366Y003129D01*
X012487Y003079D01*
X012591Y002959D02*
X012811Y002959D01*
X012773Y002860D02*
X012629Y002860D01*
X012629Y002761D02*
X012773Y002761D01*
X012803Y002663D02*
X012599Y002663D01*
X012528Y002564D02*
X012873Y002564D01*
X012073Y002564D02*
X011728Y002564D01*
X011687Y002523D02*
X011779Y002615D01*
X011829Y002735D01*
X011829Y002866D01*
X011779Y002987D01*
X011687Y003079D01*
X011566Y003129D01*
X011435Y003129D01*
X011315Y003079D01*
X011223Y002987D01*
X011173Y002866D01*
X011173Y002735D01*
X011223Y002615D01*
X011315Y002523D01*
X011435Y002473D01*
X011566Y002473D01*
X011687Y002523D01*
X011799Y002663D02*
X012003Y002663D01*
X011973Y002761D02*
X011829Y002761D01*
X011829Y002860D02*
X011973Y002860D01*
X012011Y002959D02*
X011791Y002959D01*
X011708Y003057D02*
X012093Y003057D01*
X011293Y003057D02*
X010908Y003057D01*
X010991Y002959D02*
X011211Y002959D01*
X011173Y002860D02*
X011029Y002860D01*
X011029Y002761D02*
X011173Y002761D01*
X011203Y002663D02*
X010999Y002663D01*
X010928Y002564D02*
X011273Y002564D01*
X011336Y001677D02*
X011866Y001677D01*
X011769Y001579D02*
X011433Y001579D01*
X011473Y001480D02*
X011728Y001480D01*
X011711Y001382D02*
X011491Y001382D01*
X011491Y001283D02*
X011711Y001283D01*
X011711Y001185D02*
X011491Y001185D01*
X011491Y001086D02*
X011711Y001086D01*
X011711Y000988D02*
X011491Y000988D01*
X011491Y000889D02*
X011711Y000889D01*
X011711Y000791D02*
X011491Y000791D01*
X011461Y000692D02*
X011740Y000692D01*
X011796Y000594D02*
X011405Y000594D01*
X012405Y000594D02*
X012768Y000594D01*
X012719Y000692D02*
X012461Y000692D01*
X012491Y000791D02*
X012691Y000791D01*
X012691Y000889D02*
X012491Y000889D01*
X012491Y000988D02*
X012691Y000988D01*
X012491Y001086D02*
X013071Y001086D01*
X013071Y001185D02*
X013131Y001185D01*
X013131Y001283D02*
X013071Y001283D01*
X013071Y001382D02*
X013131Y001382D01*
X013131Y001480D02*
X013071Y001480D01*
X013071Y001579D02*
X013131Y001579D01*
X013131Y001677D02*
X013071Y001677D01*
X012838Y001677D02*
X012336Y001677D01*
X012433Y001579D02*
X012747Y001579D01*
X012707Y001480D02*
X012473Y001480D01*
X012491Y001382D02*
X012691Y001382D01*
X012691Y001283D02*
X012491Y001283D01*
X012491Y001185D02*
X012691Y001185D01*
X013364Y001677D02*
X013387Y001677D01*
X016151Y003451D02*
X007351Y003451D01*
X007450Y003550D02*
X016250Y003550D01*
X016348Y003648D02*
X007548Y003648D01*
X007647Y003747D02*
X016447Y003747D01*
X016545Y003845D02*
X007745Y003845D01*
X007844Y003944D02*
X016644Y003944D01*
X016743Y004043D02*
X007943Y004043D01*
X008041Y004141D02*
X016841Y004141D01*
X016940Y004240D02*
X008140Y004240D01*
X008238Y004338D02*
X013799Y004338D01*
X013815Y004323D02*
X013723Y004415D01*
X013673Y004535D01*
X008435Y004535D01*
X008337Y004437D02*
X013714Y004437D01*
X013673Y004535D02*
X013673Y004632D01*
X012914Y005391D01*
X011555Y005391D01*
X011487Y005323D01*
X011366Y005273D01*
X011235Y005273D01*
X011115Y005323D01*
X011023Y005415D01*
X010973Y005535D01*
X010973Y005666D01*
X011023Y005787D01*
X011046Y005810D01*
X011015Y005823D01*
X010923Y005915D01*
X009422Y005915D01*
X009418Y006013D02*
X010882Y006013D01*
X010873Y006035D02*
X010923Y005915D01*
X010873Y006035D02*
X010873Y006166D01*
X010923Y006287D01*
X011015Y006379D01*
X011135Y006429D01*
X011266Y006429D01*
X011387Y006379D01*
X011455Y006311D01*
X013094Y006311D01*
X012714Y006691D01*
X010155Y006691D01*
X010087Y006623D01*
X009966Y006573D01*
X009835Y006573D01*
X009715Y006623D01*
X009623Y006715D01*
X009573Y006835D01*
X009573Y006966D01*
X009623Y007087D01*
X009715Y007179D01*
X009835Y007229D01*
X009966Y007229D01*
X010087Y007179D01*
X010155Y007111D01*
X012714Y007111D01*
X012888Y007111D01*
X013970Y006029D01*
X014066Y006029D01*
X014187Y005979D01*
X014279Y005887D01*
X014329Y005766D01*
X014329Y005635D01*
X014279Y005515D01*
X014215Y005451D01*
X014279Y005387D01*
X014329Y005266D01*
X014329Y005135D01*
X014279Y005015D01*
X014187Y004923D01*
X014134Y004901D01*
X014187Y004879D01*
X014279Y004787D01*
X014329Y004666D01*
X014329Y004535D01*
X017235Y004535D01*
X017137Y004437D02*
X014288Y004437D01*
X014279Y004415D02*
X014329Y004535D01*
X014329Y004634D02*
X017334Y004634D01*
X017432Y004732D02*
X014301Y004732D01*
X014235Y004831D02*
X017531Y004831D01*
X017629Y004929D02*
X014193Y004929D01*
X014284Y005028D02*
X017728Y005028D01*
X017826Y005126D02*
X014325Y005126D01*
X014329Y005225D02*
X017901Y005225D01*
X017901Y005324D02*
X014305Y005324D01*
X014243Y005422D02*
X017901Y005422D01*
X017901Y005521D02*
X014281Y005521D01*
X014322Y005619D02*
X017901Y005619D01*
X017901Y005718D02*
X014329Y005718D01*
X014308Y005816D02*
X017901Y005816D01*
X017901Y005915D02*
X014251Y005915D01*
X014103Y006013D02*
X017901Y006013D01*
X017901Y006112D02*
X013887Y006112D01*
X013788Y006210D02*
X017901Y006210D01*
X017901Y006309D02*
X013689Y006309D01*
X013591Y006408D02*
X017901Y006408D01*
X017901Y006506D02*
X013492Y006506D01*
X013394Y006605D02*
X017900Y006605D01*
X017871Y006703D02*
X013295Y006703D01*
X013197Y006802D02*
X017842Y006802D01*
X017813Y006900D02*
X013098Y006900D01*
X013000Y006999D02*
X017785Y006999D01*
X017756Y007097D02*
X012901Y007097D01*
X012800Y006605D02*
X010043Y006605D01*
X009758Y006605D02*
X009311Y006605D01*
X009311Y006703D02*
X009634Y006703D01*
X009587Y006802D02*
X009311Y006802D01*
X009311Y006900D02*
X009573Y006900D01*
X009586Y006999D02*
X009311Y006999D01*
X009311Y007097D02*
X009633Y007097D01*
X009756Y007196D02*
X009311Y007196D01*
X009311Y007294D02*
X010236Y007294D01*
X010223Y007308D02*
X010315Y007215D01*
X010435Y007166D01*
X010566Y007166D01*
X010687Y007215D01*
X010779Y007308D01*
X010829Y007428D01*
X010829Y007559D01*
X010779Y007679D01*
X010687Y007772D01*
X010566Y007822D01*
X010435Y007822D01*
X010315Y007772D01*
X010223Y007679D01*
X010173Y007559D01*
X010173Y007428D01*
X010223Y007308D01*
X010187Y007393D02*
X009311Y007393D01*
X009311Y007492D02*
X010173Y007492D01*
X010186Y007590D02*
X009311Y007590D01*
X009311Y007689D02*
X010232Y007689D01*
X010352Y007787D02*
X009311Y007787D01*
X009311Y007886D02*
X015493Y007886D01*
X015493Y007984D02*
X010611Y007984D01*
X010566Y007966D02*
X010687Y008016D01*
X010779Y008108D01*
X010829Y008228D01*
X010829Y008359D01*
X010779Y008479D01*
X010687Y008572D01*
X010566Y008622D01*
X010435Y008622D01*
X010315Y008572D01*
X010223Y008479D01*
X010173Y008359D01*
X010173Y008228D01*
X010223Y008108D01*
X010315Y008016D01*
X010435Y007966D01*
X010566Y007966D01*
X010390Y007984D02*
X009311Y007984D01*
X009311Y008083D02*
X010248Y008083D01*
X010192Y008181D02*
X009311Y008181D01*
X009311Y008280D02*
X010173Y008280D01*
X010181Y008378D02*
X009311Y008378D01*
X009374Y008477D02*
X010222Y008477D01*
X010265Y008576D02*
X010324Y008576D01*
X010364Y008674D02*
X017271Y008674D01*
X017320Y008576D02*
X010678Y008576D01*
X010780Y008477D02*
X015888Y008477D01*
X015715Y008378D02*
X010821Y008378D01*
X010829Y008280D02*
X015616Y008280D01*
X015558Y008181D02*
X010809Y008181D01*
X010754Y008083D02*
X015517Y008083D01*
X015493Y007787D02*
X010649Y007787D01*
X010770Y007689D02*
X015530Y007689D01*
X015571Y007590D02*
X010816Y007590D01*
X010829Y007492D02*
X015646Y007492D01*
X015745Y007393D02*
X010814Y007393D01*
X010766Y007294D02*
X015961Y007294D01*
X016260Y007294D02*
X017142Y007294D01*
X016926Y007393D02*
X016475Y007393D01*
X016574Y007492D02*
X016828Y007492D01*
X016752Y007590D02*
X016650Y007590D01*
X016690Y007689D02*
X016711Y007689D01*
X016739Y008181D02*
X016662Y008181D01*
X016604Y008280D02*
X016797Y008280D01*
X016896Y008378D02*
X016506Y008378D01*
X016332Y008477D02*
X017069Y008477D01*
X017181Y008795D02*
X017100Y008867D01*
X017009Y008924D01*
X016910Y008966D01*
X016805Y008992D01*
X016698Y009001D01*
X016001Y009001D01*
X015331Y009671D01*
X015315Y009671D01*
X015157Y009736D01*
X015036Y009857D01*
X014971Y010015D01*
X014971Y010031D01*
X013481Y011521D01*
X008021Y011521D01*
X006801Y010301D01*
X007697Y008911D01*
X008488Y008911D01*
X008611Y008788D01*
X008611Y008788D01*
X008811Y008588D01*
X008811Y008414D01*
X008811Y008310D01*
X008887Y008279D01*
X008891Y008275D01*
X008891Y008414D01*
X008891Y008588D01*
X009091Y008788D01*
X009214Y008911D01*
X010007Y008911D01*
X010166Y009070D01*
X010166Y009166D01*
X010215Y009287D01*
X010308Y009379D01*
X010428Y009429D01*
X010559Y009429D01*
X010679Y009379D01*
X010772Y009287D01*
X010822Y009166D01*
X010822Y009035D01*
X010772Y008915D01*
X010679Y008823D01*
X010559Y008773D01*
X010462Y008773D01*
X010728Y008871D02*
X017093Y008871D01*
X016896Y008970D02*
X010794Y008970D01*
X010822Y009068D02*
X015933Y009068D01*
X015835Y009167D02*
X010821Y009167D01*
X010781Y009265D02*
X015736Y009265D01*
X015638Y009364D02*
X010694Y009364D01*
X010293Y009364D02*
X007405Y009364D01*
X007468Y009265D02*
X010207Y009265D01*
X010166Y009167D02*
X007532Y009167D01*
X007595Y009068D02*
X010164Y009068D01*
X010066Y008970D02*
X007659Y008970D01*
X007341Y009462D02*
X015539Y009462D01*
X015441Y009561D02*
X007278Y009561D01*
X007214Y009659D02*
X015342Y009659D01*
X015135Y009758D02*
X007151Y009758D01*
X007087Y009857D02*
X015037Y009857D01*
X014996Y009955D02*
X007024Y009955D01*
X006960Y010054D02*
X014948Y010054D01*
X014849Y010152D02*
X006897Y010152D01*
X006833Y010251D02*
X014751Y010251D01*
X014652Y010349D02*
X009165Y010349D01*
X009123Y010307D02*
X008960Y010307D01*
X008960Y010741D01*
X008900Y010741D01*
X008900Y010307D01*
X008737Y010307D01*
X008465Y010579D01*
X008465Y010741D01*
X008900Y010741D01*
X008900Y010802D01*
X008900Y011236D01*
X008960Y011236D01*
X009123Y011236D01*
X013765Y011236D01*
X013667Y011335D02*
X007835Y011335D01*
X007841Y011216D02*
X007678Y011149D01*
X007553Y011024D01*
X007485Y010860D01*
X007485Y010683D01*
X007553Y010519D01*
X007678Y010394D01*
X007841Y010327D01*
X008019Y010327D01*
X008182Y010394D01*
X008307Y010519D01*
X008375Y010683D01*
X008375Y010860D01*
X008307Y011024D01*
X008182Y011149D01*
X008019Y011216D01*
X007841Y011216D01*
X007736Y011236D02*
X008737Y011236D01*
X008465Y010964D01*
X008465Y010802D01*
X008900Y010802D01*
X008960Y010802D01*
X008960Y011236D01*
X008900Y011236D02*
X008737Y011236D01*
X008639Y011138D02*
X008193Y011138D01*
X008292Y011039D02*
X008540Y011039D01*
X008465Y010941D02*
X008342Y010941D01*
X008375Y010842D02*
X008465Y010842D01*
X008375Y010743D02*
X008900Y010743D01*
X008960Y010743D02*
X014258Y010743D01*
X014357Y010645D02*
X009395Y010645D01*
X009395Y010579D02*
X009395Y010741D01*
X008960Y010741D01*
X008960Y010802D01*
X009395Y010802D01*
X009395Y010964D01*
X009123Y011236D01*
X009221Y011138D02*
X013864Y011138D01*
X013962Y011039D02*
X009320Y011039D01*
X009395Y010941D02*
X014061Y010941D01*
X014160Y010842D02*
X009395Y010842D01*
X009395Y010579D02*
X009123Y010307D01*
X008960Y010349D02*
X008900Y010349D01*
X008900Y010448D02*
X008960Y010448D01*
X008960Y010546D02*
X008900Y010546D01*
X008900Y010645D02*
X008960Y010645D01*
X008960Y010842D02*
X008900Y010842D01*
X008900Y010941D02*
X008960Y010941D01*
X008960Y011039D02*
X008900Y011039D01*
X008900Y011138D02*
X008960Y011138D01*
X008465Y010645D02*
X008359Y010645D01*
X008318Y010546D02*
X008498Y010546D01*
X008596Y010448D02*
X008236Y010448D01*
X008073Y010349D02*
X008695Y010349D01*
X009264Y010448D02*
X014554Y010448D01*
X014455Y010546D02*
X009362Y010546D01*
X007933Y011433D02*
X013568Y011433D01*
X009174Y008871D02*
X008527Y008871D01*
X008626Y008773D02*
X009076Y008773D01*
X008977Y008674D02*
X008724Y008674D01*
X008811Y008576D02*
X008891Y008576D01*
X008891Y008477D02*
X008811Y008477D01*
X008811Y008378D02*
X008891Y008378D01*
X008884Y008280D02*
X008891Y008280D01*
X010046Y007196D02*
X010362Y007196D01*
X010639Y007196D02*
X017727Y007196D01*
X017698Y007294D02*
X017441Y007294D01*
X017656Y007393D02*
X017670Y007393D01*
X013671Y004634D02*
X008534Y004634D01*
X008632Y004732D02*
X013572Y004732D01*
X013474Y004831D02*
X008731Y004831D01*
X008829Y004929D02*
X013375Y004929D01*
X013277Y005028D02*
X008928Y005028D01*
X009026Y005126D02*
X013178Y005126D01*
X013080Y005225D02*
X009125Y005225D01*
X009210Y005324D02*
X011114Y005324D01*
X011020Y005422D02*
X009277Y005422D01*
X009329Y005521D02*
X010979Y005521D01*
X010973Y005619D02*
X009371Y005619D01*
X009396Y005718D02*
X010994Y005718D01*
X011030Y005816D02*
X009413Y005816D01*
X009405Y006112D02*
X010873Y006112D01*
X010891Y006210D02*
X009385Y006210D01*
X009349Y006309D02*
X010945Y006309D01*
X011084Y006408D02*
X009311Y006408D01*
X009311Y006506D02*
X012898Y006506D01*
X012997Y006408D02*
X011317Y006408D01*
X011488Y005324D02*
X012981Y005324D01*
X014187Y004323D02*
X014279Y004415D01*
X014202Y004338D02*
X017038Y004338D01*
X014187Y004323D02*
X014066Y004273D01*
X013935Y004273D01*
X013815Y004323D01*
X007787Y010349D02*
X006849Y010349D01*
X006948Y010448D02*
X007624Y010448D01*
X007542Y010546D02*
X007046Y010546D01*
X007145Y010645D02*
X007501Y010645D01*
X007485Y010743D02*
X007243Y010743D01*
X007342Y010842D02*
X007485Y010842D01*
X007518Y010941D02*
X007441Y010941D01*
X007539Y011039D02*
X007568Y011039D01*
X007638Y011138D02*
X007667Y011138D01*
D18*
X010494Y009101D03*
X010501Y008294D03*
X010501Y007494D03*
X009901Y006901D03*
X011201Y006101D03*
X011301Y005601D03*
X014001Y005701D03*
X014001Y005201D03*
X014001Y004601D03*
X013801Y002801D03*
X013101Y002801D03*
X012301Y002801D03*
X011501Y002801D03*
X010701Y002801D03*
X005701Y002701D03*
X005001Y001701D03*
X004201Y001701D03*
X004201Y000601D03*
X005001Y000601D03*
X004101Y003401D03*
X003301Y003401D03*
X002501Y003401D03*
X001201Y005101D03*
X001201Y005901D03*
X001201Y006701D03*
X001201Y007501D03*
X004161Y008296D03*
X004961Y008296D03*
X005761Y008296D03*
X005361Y008996D03*
X004561Y008996D03*
X006161Y008996D03*
X008001Y007801D03*
X008701Y008001D03*
X008201Y008301D03*
X004601Y007601D03*
X004001Y005341D03*
X004801Y005151D03*
D19*
X004801Y004701D01*
X003501Y003401D01*
X003301Y003401D01*
X005701Y002701D02*
X009101Y006101D01*
X009101Y008501D01*
X009301Y008701D01*
X010094Y008701D01*
X010494Y009101D01*
X008601Y008501D02*
X008601Y008201D01*
X008701Y008001D01*
X008201Y008301D02*
X006301Y008301D01*
X005606Y008996D01*
X005361Y008996D01*
X005001Y008801D02*
X004756Y008801D01*
X004561Y008996D01*
X005001Y008801D02*
X005401Y008401D01*
X005401Y008101D01*
X005601Y007901D01*
X006001Y007901D01*
X006101Y008001D01*
X007801Y008001D01*
X007827Y007999D01*
X007853Y007994D01*
X007878Y007986D01*
X007901Y007974D01*
X007923Y007960D01*
X007942Y007942D01*
X007960Y007923D01*
X007974Y007901D01*
X007986Y007878D01*
X007994Y007853D01*
X007999Y007827D01*
X008001Y007801D01*
X008601Y008501D02*
X008401Y008701D01*
X006456Y008701D01*
X006161Y008996D01*
X004161Y008296D02*
X004001Y008135D01*
X009901Y006901D02*
X012801Y006901D01*
X014001Y005701D01*
X013101Y006101D02*
X011201Y006101D01*
X011301Y005601D02*
X013001Y005601D01*
X014001Y004601D01*
D20*
X014001Y005201D02*
X013101Y006101D01*
X004001Y005341D02*
X004001Y008135D01*
M02*
