G75*
G70*
%OFA0B0*%
%FSLAX24Y24*%
%IPPOS*%
%LPD*%
%AMOC8*
5,1,8,0,0,1.08239X$1,22.5*
%
%ADD10C,0.1340*%
%ADD11R,0.0671X0.0277*%
%ADD12R,0.0277X0.0671*%
%ADD13R,0.0671X0.0592*%
%ADD14OC8,0.0710*%
%ADD15C,0.0710*%
%ADD16R,0.0870X0.0670*%
%ADD17R,0.0870X0.1580*%
%ADD18R,0.0552X0.0552*%
%ADD19R,0.0592X0.0671*%
%ADD20C,0.0600*%
%ADD21C,0.0680*%
%ADD22R,0.0474X0.0533*%
%ADD23C,0.0415*%
%ADD24OC8,0.0680*%
%ADD25OC8,0.0476*%
%ADD26R,0.0476X0.0476*%
%ADD27C,0.0476*%
D10*
X001101Y001501D03*
X001101Y010501D03*
X018401Y010501D03*
X018401Y001501D03*
D11*
X009984Y003226D03*
X009984Y003541D03*
X009984Y003856D03*
X009984Y004171D03*
X009984Y004486D03*
X009984Y004801D03*
X009984Y005116D03*
X009984Y005431D03*
X009984Y005746D03*
X009984Y006061D03*
X009984Y006376D03*
X005417Y006376D03*
X005417Y006061D03*
X005417Y005746D03*
X005417Y005431D03*
X005417Y005116D03*
X005417Y004801D03*
X005417Y004486D03*
X005417Y004171D03*
X005417Y003856D03*
X005417Y003541D03*
X005417Y003226D03*
D12*
X006126Y002517D03*
X006441Y002517D03*
X006756Y002517D03*
X007071Y002517D03*
X007386Y002517D03*
X007701Y002517D03*
X008016Y002517D03*
X008331Y002517D03*
X008646Y002517D03*
X008961Y002517D03*
X009276Y002517D03*
X009276Y007084D03*
X008961Y007084D03*
X008646Y007084D03*
X008331Y007084D03*
X008016Y007084D03*
X007701Y007084D03*
X007386Y007084D03*
X007071Y007084D03*
X006756Y007084D03*
X006441Y007084D03*
X006126Y007084D03*
D13*
X003201Y005075D03*
X003201Y004327D03*
X009901Y001475D03*
X009901Y000727D03*
X012001Y004527D03*
X012001Y005275D03*
X012201Y007527D03*
X013001Y007527D03*
X013001Y008275D03*
X012201Y008275D03*
X011401Y008275D03*
X011401Y007527D03*
X011201Y010527D03*
X010401Y010527D03*
X010401Y011275D03*
X011201Y011275D03*
X006501Y011275D03*
X006501Y010527D03*
D14*
X008930Y010772D03*
X002401Y005101D03*
D15*
X002401Y004101D03*
X007930Y010772D03*
D16*
X012061Y010391D03*
X012061Y011291D03*
X012061Y009491D03*
D17*
X014541Y010401D03*
D18*
X011314Y009701D03*
X010487Y009701D03*
X015087Y005701D03*
X015914Y005701D03*
X015914Y004901D03*
X015087Y004901D03*
X015087Y004101D03*
X015914Y004101D03*
D19*
X016927Y004101D03*
X017675Y004101D03*
X017675Y004901D03*
X016927Y004901D03*
X016927Y005701D03*
X017675Y005701D03*
X007875Y001001D03*
X007127Y001001D03*
X006827Y008801D03*
X007575Y008801D03*
D20*
X011101Y001361D02*
X011101Y000841D01*
X012101Y000841D02*
X012101Y001361D01*
X013101Y001361D02*
X013101Y000841D01*
X014101Y000841D02*
X014101Y001361D01*
X015101Y001361D02*
X015101Y000841D01*
X016101Y000841D02*
X016101Y001361D01*
D21*
X016001Y010101D02*
X015401Y010101D01*
X015401Y011101D02*
X016001Y011101D01*
X016801Y011101D02*
X017401Y011101D01*
X017401Y010101D02*
X016801Y010101D01*
D22*
X016701Y009013D03*
X017685Y009013D03*
X015717Y009013D03*
X015717Y006789D03*
X016701Y006789D03*
X017685Y006789D03*
D23*
X017291Y007901D03*
X016110Y007901D03*
D24*
X005501Y010301D03*
X004501Y010301D03*
X003501Y010301D03*
X002501Y010301D03*
X002501Y011301D03*
X003501Y011301D03*
X004501Y011301D03*
X005501Y011301D03*
D25*
X002961Y008996D03*
X002461Y008296D03*
X001201Y008301D03*
X014601Y002801D03*
D26*
X012701Y005201D03*
X013801Y007501D03*
X017201Y006401D03*
X009701Y007501D03*
X009701Y008294D03*
X009694Y009101D03*
X008301Y009101D03*
X003761Y008996D03*
X003361Y008296D03*
X001201Y009101D03*
X002501Y002601D03*
X003301Y002601D03*
X004101Y002601D03*
X003401Y001701D03*
X003401Y000601D03*
X006501Y000801D03*
D27*
X005001Y000601D03*
X004201Y000601D03*
X004201Y001701D03*
X005001Y001701D03*
X005701Y002701D03*
X004101Y003401D03*
X003301Y003401D03*
X002501Y003401D03*
X001201Y005101D03*
X001201Y005901D03*
X001201Y006701D03*
X001201Y007501D03*
X004161Y008296D03*
X004961Y008296D03*
X005761Y008296D03*
X005361Y008996D03*
X004561Y008996D03*
X006161Y008996D03*
X008001Y007801D03*
X008701Y008001D03*
X008201Y008301D03*
X009901Y006901D03*
X010501Y007494D03*
X010501Y008294D03*
X010494Y009101D03*
X011201Y006101D03*
X011301Y005601D03*
X014001Y005701D03*
X014001Y005201D03*
X014001Y004601D03*
X013801Y002801D03*
X013101Y002801D03*
X012301Y002801D03*
X011501Y002801D03*
X010701Y002801D03*
X004801Y005151D03*
X004001Y005341D03*
X004601Y007601D03*
M02*
