G75*
G70*
%OFA0B0*%
%FSLAX24Y24*%
%IPPOS*%
%LPD*%
%AMOC8*
5,1,8,0,0,1.08239X$1,22.5*
%
%ADD10OC8,0.0630*%
%ADD11C,0.0630*%
%ADD12C,0.0520*%
%ADD13C,0.0600*%
%ADD14C,0.0574*%
%ADD15C,0.0700*%
%ADD16C,0.0840*%
%ADD17OC8,0.0600*%
%ADD18C,0.0600*%
%ADD19C,0.0780*%
%ADD20C,0.0750*%
%ADD21OC8,0.0750*%
%ADD22C,0.0100*%
%ADD23C,0.0278*%
%ADD24C,0.0240*%
%ADD25C,0.0320*%
%ADD26C,0.0560*%
%ADD27C,0.0400*%
D10*
X303960Y322054D03*
X307660Y325854D03*
X309360Y323354D03*
X312160Y323954D03*
X313128Y330863D03*
X332260Y326054D03*
X335160Y330354D03*
D11*
X335160Y331354D03*
X333260Y326054D03*
X312128Y330863D03*
X307660Y326854D03*
X309360Y324354D03*
X311160Y323954D03*
X303960Y321054D03*
D12*
X305615Y321154D02*
X306135Y321154D01*
X306135Y320367D02*
X305615Y320367D01*
X305615Y321942D02*
X306135Y321942D01*
X307584Y321942D02*
X308104Y321942D01*
X308104Y321154D02*
X307584Y321154D01*
X307584Y320367D02*
X308104Y320367D01*
X314500Y320354D02*
X315020Y320354D01*
X315020Y319354D02*
X314500Y319354D01*
X314500Y318354D02*
X315020Y318354D01*
X317160Y318214D02*
X317160Y317694D01*
X318160Y317694D02*
X318160Y318214D01*
X319160Y318214D02*
X319160Y317694D01*
X320160Y317694D02*
X320160Y318214D01*
X321160Y318214D02*
X321160Y317694D01*
X322160Y317694D02*
X322160Y318214D01*
X323160Y318214D02*
X323160Y317694D01*
X324160Y317694D02*
X324160Y318214D01*
X325160Y318214D02*
X325160Y317694D01*
X326160Y317694D02*
X326160Y318214D01*
X327160Y318214D02*
X327160Y317694D01*
X328160Y317694D02*
X328160Y318214D01*
X315020Y321354D02*
X314500Y321354D01*
X314500Y322354D02*
X315020Y322354D01*
X315020Y323354D02*
X314500Y323354D01*
X310928Y330403D02*
X310928Y330923D01*
X309928Y330923D02*
X309928Y330403D01*
X308928Y330403D02*
X308928Y330923D01*
X307928Y330923D02*
X307928Y330403D01*
X306928Y330403D02*
X306928Y330923D01*
X305928Y330923D02*
X305928Y330403D01*
X304928Y330403D02*
X304928Y330923D01*
X303928Y330923D02*
X303928Y330403D01*
X302928Y330403D02*
X302928Y330923D01*
X301928Y330923D02*
X301928Y330403D01*
D13*
X314460Y331454D02*
X314460Y332054D01*
X315460Y332054D02*
X315460Y331454D01*
X316460Y331454D02*
X316460Y332054D01*
X317460Y332054D02*
X317460Y331454D01*
X317460Y334254D02*
X317460Y334854D01*
X316460Y334854D02*
X316460Y334254D01*
X315460Y334254D02*
X315460Y334854D01*
X314460Y334854D02*
X314460Y334254D01*
X330460Y318454D02*
X331060Y318454D01*
X331060Y317454D02*
X330460Y317454D01*
X330460Y316454D02*
X331060Y316454D01*
X333560Y316354D02*
X334160Y316354D01*
X334160Y317354D02*
X333560Y317354D01*
X333560Y318354D02*
X334160Y318354D01*
X336760Y318354D02*
X337360Y318354D01*
X337360Y317354D02*
X336760Y317354D01*
X336760Y316354D02*
X337360Y316354D01*
X335460Y333254D02*
X334860Y333254D01*
X334860Y334254D02*
X335460Y334254D01*
X335460Y335254D02*
X334860Y335254D01*
D14*
X334880Y326132D02*
X334306Y326132D01*
X334306Y325148D02*
X334880Y325148D01*
X334880Y324361D02*
X334306Y324361D01*
X334306Y323376D02*
X334880Y323376D01*
D15*
X305560Y324044D03*
X305560Y325454D03*
X305560Y326854D03*
X300720Y327334D03*
X300720Y323554D03*
D16*
X303973Y319143D02*
X304813Y319143D01*
X304813Y317765D02*
X303973Y317765D01*
X307873Y317765D02*
X308713Y317765D01*
X308713Y319143D02*
X307873Y319143D01*
D17*
X317160Y315954D03*
X318160Y315954D03*
X319160Y315954D03*
X320160Y315954D03*
X321160Y315954D03*
X322160Y315954D03*
X323160Y315954D03*
X324160Y315954D03*
X325160Y315954D03*
X326160Y315954D03*
X327160Y315954D03*
X328160Y315954D03*
X328160Y316954D03*
X327160Y316954D03*
X326160Y316954D03*
X325160Y316954D03*
X324160Y316954D03*
X323160Y316954D03*
X322160Y316954D03*
X321160Y316954D03*
X320160Y316954D03*
X319160Y316954D03*
X318160Y316954D03*
X317160Y316954D03*
X310928Y331663D03*
X310928Y332663D03*
X309928Y332663D03*
X308928Y332663D03*
X307928Y332663D03*
X306928Y332663D03*
X305928Y332663D03*
X304928Y332663D03*
X303928Y332663D03*
X302928Y332663D03*
X301928Y332663D03*
X301928Y331663D03*
X302928Y331663D03*
X303928Y331663D03*
X304928Y331663D03*
X305928Y331663D03*
X306928Y331663D03*
X307928Y331663D03*
X308928Y331663D03*
X309928Y331663D03*
X319960Y334854D03*
X320960Y334854D03*
X321960Y334854D03*
X322960Y334854D03*
X322960Y335854D03*
X321960Y335854D03*
X320960Y335854D03*
X319960Y335854D03*
X336160Y334254D03*
X337160Y334254D03*
X337160Y333254D03*
X336160Y333254D03*
X337160Y335254D03*
D18*
X336160Y335254D03*
D19*
X301850Y319644D02*
X301070Y319644D01*
X301070Y317664D02*
X301850Y317664D01*
D20*
X331360Y330354D03*
X331360Y332754D03*
X331360Y335254D03*
D21*
X329360Y335254D03*
X329360Y332754D03*
X329360Y330354D03*
D22*
X328260Y334054D02*
X333960Y334054D01*
X335160Y335254D01*
X325160Y332654D02*
X325160Y328454D01*
X327060Y326554D01*
X327060Y325454D01*
X326460Y324854D01*
X322560Y324854D01*
X322060Y324354D01*
X322378Y325154D02*
X321195Y323971D01*
X321389Y325125D02*
X321467Y325125D01*
X321389Y325125D02*
X317760Y328754D01*
X303837Y328754D01*
X301928Y330663D01*
X302928Y330663D02*
X304537Y329054D01*
X317960Y329054D01*
X319360Y329654D02*
X319560Y329854D01*
X320860Y329854D01*
X321260Y329454D01*
X321260Y326654D01*
X321760Y326154D01*
X323260Y326154D01*
X323461Y326533D02*
X323461Y327553D01*
X321560Y329454D01*
X322060Y329654D02*
X323985Y327729D01*
X323985Y326926D01*
X324060Y328154D02*
X326260Y325954D01*
X326260Y325754D01*
X326760Y325654D02*
X326260Y325154D01*
X322378Y325154D01*
X322960Y325754D02*
X321760Y325754D01*
X320960Y326554D01*
X320960Y329254D01*
X320660Y329554D01*
X319660Y329554D01*
X319460Y329354D01*
X309237Y329354D01*
X307928Y330663D01*
X308928Y330663D02*
X309937Y329654D01*
X319360Y329654D01*
X319260Y329954D02*
X319460Y330154D01*
X320660Y330154D01*
X320289Y330516D02*
X319422Y330516D01*
X319160Y330254D01*
X310960Y330254D01*
X310928Y330286D01*
X310928Y330663D01*
X310560Y329954D02*
X319260Y329954D01*
X316660Y327054D02*
X316134Y326528D01*
X313675Y326528D01*
X314060Y326154D02*
X316460Y326154D01*
X316960Y326654D01*
X317260Y326254D02*
X316760Y325754D01*
X314460Y325754D01*
X317560Y323454D02*
X317560Y320754D01*
X317960Y320754D02*
X317960Y323654D01*
X318360Y323854D02*
X318360Y320754D01*
X317160Y320754D02*
X317158Y322993D01*
X321860Y321154D02*
X321860Y320854D01*
X323760Y318954D01*
X328977Y318954D01*
X329260Y318671D01*
X329260Y316737D01*
X329542Y316454D01*
X330760Y316454D01*
X330760Y317454D02*
X330042Y317454D01*
X329760Y317737D01*
X329760Y319031D01*
X329536Y319254D01*
X323760Y319254D01*
X322260Y320754D01*
X322260Y321154D01*
X322134Y321528D02*
X321860Y321154D01*
X322134Y321528D02*
X322134Y321557D01*
X326760Y321754D02*
X328760Y319754D01*
X330860Y319754D01*
X332360Y318254D01*
X332360Y316354D01*
X333460Y315254D01*
X334460Y315254D01*
X336560Y317354D01*
X337060Y317354D01*
X337860Y317154D02*
X337060Y316354D01*
X337860Y317154D02*
X337860Y318654D01*
X336460Y320054D01*
X328960Y320054D01*
X327260Y321754D01*
X326660Y323954D02*
X326560Y323954D01*
X326760Y325654D02*
X326760Y326354D01*
X324860Y328254D01*
X324860Y332554D01*
X323360Y334054D01*
X323760Y334054D02*
X325160Y332654D01*
X324360Y332754D02*
X324360Y328254D01*
X326360Y326254D01*
X324060Y328154D02*
X324060Y332654D01*
X323660Y333054D01*
X322260Y333054D01*
X321960Y333354D01*
X321960Y334854D01*
X322960Y334854D02*
X322960Y333637D01*
X323242Y333354D01*
X323760Y333354D01*
X324360Y332754D01*
X323760Y334054D02*
X323760Y334354D01*
X310560Y329954D02*
X309928Y330586D01*
X309928Y330663D01*
X332860Y319654D02*
X332860Y317354D01*
X333860Y316354D01*
D23*
X332860Y319654D03*
X327260Y321754D03*
X326760Y321754D03*
X326660Y323354D03*
X326560Y323954D03*
X326260Y325754D03*
X326360Y326254D03*
X323985Y326926D03*
X323461Y326533D03*
X323260Y326154D03*
X322960Y325754D03*
X321467Y325125D03*
X322060Y324354D03*
X321195Y323971D03*
X322134Y321557D03*
X322260Y321154D03*
X318360Y320754D03*
X317960Y320754D03*
X317560Y320754D03*
X317160Y320754D03*
X317158Y322993D03*
X317560Y323454D03*
X317960Y323654D03*
X318360Y323854D03*
X317260Y326254D03*
X316960Y326654D03*
X316660Y327054D03*
X317960Y329054D03*
X320289Y330516D03*
X320660Y330154D03*
X321560Y329454D03*
X322060Y329654D03*
X323360Y334054D03*
X323760Y334354D03*
X328260Y334054D03*
X314460Y325754D03*
X314060Y326154D03*
X313675Y326528D03*
D24*
X326660Y323954D02*
X328360Y322254D01*
X328060Y321654D02*
X326660Y323054D01*
X326660Y323354D01*
X333915Y324210D02*
X333948Y324241D01*
X333984Y324268D01*
X334022Y324292D01*
X334061Y324313D01*
X334103Y324330D01*
X334146Y324343D01*
X334190Y324353D01*
X334234Y324359D01*
X334279Y324361D01*
D25*
X331060Y322854D02*
X330460Y322254D01*
X328360Y322254D01*
D26*
X331060Y322854D02*
X331060Y324230D01*
X331977Y325148D01*
X334593Y325148D01*
X334593Y324361D02*
X334279Y324361D01*
X333915Y324210D02*
X331360Y321654D01*
D27*
X328060Y321654D01*
M02*
