G75*
G70*
%OFA0B0*%
%FSLAX24Y24*%
%IPPOS*%
%LPD*%
%AMOC8*
5,1,8,0,0,1.08239X$1,22.5*
%
%ADD10C,0.0000*%
%ADD11C,0.0050*%
D10*
X299460Y314154D02*
X299460Y337824D01*
X342152Y337824D01*
X342152Y314154D01*
X299460Y314154D01*
X300310Y315454D02*
X300312Y315504D01*
X300318Y315554D01*
X300328Y315604D01*
X300341Y315652D01*
X300358Y315700D01*
X300379Y315746D01*
X300403Y315790D01*
X300431Y315832D01*
X300462Y315872D01*
X300496Y315909D01*
X300533Y315944D01*
X300572Y315975D01*
X300613Y316004D01*
X300657Y316029D01*
X300703Y316051D01*
X300750Y316069D01*
X300798Y316083D01*
X300847Y316094D01*
X300897Y316101D01*
X300947Y316104D01*
X300998Y316103D01*
X301048Y316098D01*
X301098Y316089D01*
X301146Y316077D01*
X301194Y316060D01*
X301240Y316040D01*
X301285Y316017D01*
X301328Y315990D01*
X301368Y315960D01*
X301406Y315927D01*
X301441Y315891D01*
X301474Y315852D01*
X301503Y315811D01*
X301529Y315768D01*
X301552Y315723D01*
X301571Y315676D01*
X301586Y315628D01*
X301598Y315579D01*
X301606Y315529D01*
X301610Y315479D01*
X301610Y315429D01*
X301606Y315379D01*
X301598Y315329D01*
X301586Y315280D01*
X301571Y315232D01*
X301552Y315185D01*
X301529Y315140D01*
X301503Y315097D01*
X301474Y315056D01*
X301441Y315017D01*
X301406Y314981D01*
X301368Y314948D01*
X301328Y314918D01*
X301285Y314891D01*
X301240Y314868D01*
X301194Y314848D01*
X301146Y314831D01*
X301098Y314819D01*
X301048Y314810D01*
X300998Y314805D01*
X300947Y314804D01*
X300897Y314807D01*
X300847Y314814D01*
X300798Y314825D01*
X300750Y314839D01*
X300703Y314857D01*
X300657Y314879D01*
X300613Y314904D01*
X300572Y314933D01*
X300533Y314964D01*
X300496Y314999D01*
X300462Y315036D01*
X300431Y315076D01*
X300403Y315118D01*
X300379Y315162D01*
X300358Y315208D01*
X300341Y315256D01*
X300328Y315304D01*
X300318Y315354D01*
X300312Y315404D01*
X300310Y315454D01*
X300444Y323554D02*
X300446Y323587D01*
X300452Y323619D01*
X300461Y323650D01*
X300474Y323680D01*
X300491Y323708D01*
X300511Y323734D01*
X300534Y323758D01*
X300559Y323778D01*
X300587Y323796D01*
X300616Y323810D01*
X300647Y323820D01*
X300679Y323827D01*
X300712Y323830D01*
X300745Y323829D01*
X300777Y323824D01*
X300808Y323815D01*
X300839Y323803D01*
X300867Y323787D01*
X300894Y323768D01*
X300918Y323746D01*
X300939Y323721D01*
X300958Y323694D01*
X300973Y323665D01*
X300984Y323635D01*
X300992Y323603D01*
X300996Y323570D01*
X300996Y323538D01*
X300992Y323505D01*
X300984Y323473D01*
X300973Y323443D01*
X300958Y323414D01*
X300939Y323387D01*
X300918Y323362D01*
X300894Y323340D01*
X300867Y323321D01*
X300839Y323305D01*
X300808Y323293D01*
X300777Y323284D01*
X300745Y323279D01*
X300712Y323278D01*
X300679Y323281D01*
X300647Y323288D01*
X300616Y323298D01*
X300587Y323312D01*
X300559Y323330D01*
X300534Y323350D01*
X300511Y323374D01*
X300491Y323400D01*
X300474Y323428D01*
X300461Y323458D01*
X300452Y323489D01*
X300446Y323521D01*
X300444Y323554D01*
X300444Y327334D02*
X300446Y327367D01*
X300452Y327399D01*
X300461Y327430D01*
X300474Y327460D01*
X300491Y327488D01*
X300511Y327514D01*
X300534Y327538D01*
X300559Y327558D01*
X300587Y327576D01*
X300616Y327590D01*
X300647Y327600D01*
X300679Y327607D01*
X300712Y327610D01*
X300745Y327609D01*
X300777Y327604D01*
X300808Y327595D01*
X300839Y327583D01*
X300867Y327567D01*
X300894Y327548D01*
X300918Y327526D01*
X300939Y327501D01*
X300958Y327474D01*
X300973Y327445D01*
X300984Y327415D01*
X300992Y327383D01*
X300996Y327350D01*
X300996Y327318D01*
X300992Y327285D01*
X300984Y327253D01*
X300973Y327223D01*
X300958Y327194D01*
X300939Y327167D01*
X300918Y327142D01*
X300894Y327120D01*
X300867Y327101D01*
X300839Y327085D01*
X300808Y327073D01*
X300777Y327064D01*
X300745Y327059D01*
X300712Y327058D01*
X300679Y327061D01*
X300647Y327068D01*
X300616Y327078D01*
X300587Y327092D01*
X300559Y327110D01*
X300534Y327130D01*
X300511Y327154D01*
X300491Y327180D01*
X300474Y327208D01*
X300461Y327238D01*
X300452Y327269D01*
X300446Y327301D01*
X300444Y327334D01*
X305284Y326854D02*
X305286Y326887D01*
X305292Y326919D01*
X305301Y326950D01*
X305314Y326980D01*
X305331Y327008D01*
X305351Y327034D01*
X305374Y327058D01*
X305399Y327078D01*
X305427Y327096D01*
X305456Y327110D01*
X305487Y327120D01*
X305519Y327127D01*
X305552Y327130D01*
X305585Y327129D01*
X305617Y327124D01*
X305648Y327115D01*
X305679Y327103D01*
X305707Y327087D01*
X305734Y327068D01*
X305758Y327046D01*
X305779Y327021D01*
X305798Y326994D01*
X305813Y326965D01*
X305824Y326935D01*
X305832Y326903D01*
X305836Y326870D01*
X305836Y326838D01*
X305832Y326805D01*
X305824Y326773D01*
X305813Y326743D01*
X305798Y326714D01*
X305779Y326687D01*
X305758Y326662D01*
X305734Y326640D01*
X305707Y326621D01*
X305679Y326605D01*
X305648Y326593D01*
X305617Y326584D01*
X305585Y326579D01*
X305552Y326578D01*
X305519Y326581D01*
X305487Y326588D01*
X305456Y326598D01*
X305427Y326612D01*
X305399Y326630D01*
X305374Y326650D01*
X305351Y326674D01*
X305331Y326700D01*
X305314Y326728D01*
X305301Y326758D01*
X305292Y326789D01*
X305286Y326821D01*
X305284Y326854D01*
X305284Y325454D02*
X305286Y325487D01*
X305292Y325519D01*
X305301Y325550D01*
X305314Y325580D01*
X305331Y325608D01*
X305351Y325634D01*
X305374Y325658D01*
X305399Y325678D01*
X305427Y325696D01*
X305456Y325710D01*
X305487Y325720D01*
X305519Y325727D01*
X305552Y325730D01*
X305585Y325729D01*
X305617Y325724D01*
X305648Y325715D01*
X305679Y325703D01*
X305707Y325687D01*
X305734Y325668D01*
X305758Y325646D01*
X305779Y325621D01*
X305798Y325594D01*
X305813Y325565D01*
X305824Y325535D01*
X305832Y325503D01*
X305836Y325470D01*
X305836Y325438D01*
X305832Y325405D01*
X305824Y325373D01*
X305813Y325343D01*
X305798Y325314D01*
X305779Y325287D01*
X305758Y325262D01*
X305734Y325240D01*
X305707Y325221D01*
X305679Y325205D01*
X305648Y325193D01*
X305617Y325184D01*
X305585Y325179D01*
X305552Y325178D01*
X305519Y325181D01*
X305487Y325188D01*
X305456Y325198D01*
X305427Y325212D01*
X305399Y325230D01*
X305374Y325250D01*
X305351Y325274D01*
X305331Y325300D01*
X305314Y325328D01*
X305301Y325358D01*
X305292Y325389D01*
X305286Y325421D01*
X305284Y325454D01*
X305284Y324044D02*
X305286Y324077D01*
X305292Y324109D01*
X305301Y324140D01*
X305314Y324170D01*
X305331Y324198D01*
X305351Y324224D01*
X305374Y324248D01*
X305399Y324268D01*
X305427Y324286D01*
X305456Y324300D01*
X305487Y324310D01*
X305519Y324317D01*
X305552Y324320D01*
X305585Y324319D01*
X305617Y324314D01*
X305648Y324305D01*
X305679Y324293D01*
X305707Y324277D01*
X305734Y324258D01*
X305758Y324236D01*
X305779Y324211D01*
X305798Y324184D01*
X305813Y324155D01*
X305824Y324125D01*
X305832Y324093D01*
X305836Y324060D01*
X305836Y324028D01*
X305832Y323995D01*
X305824Y323963D01*
X305813Y323933D01*
X305798Y323904D01*
X305779Y323877D01*
X305758Y323852D01*
X305734Y323830D01*
X305707Y323811D01*
X305679Y323795D01*
X305648Y323783D01*
X305617Y323774D01*
X305585Y323769D01*
X305552Y323768D01*
X305519Y323771D01*
X305487Y323778D01*
X305456Y323788D01*
X305427Y323802D01*
X305399Y323820D01*
X305374Y323840D01*
X305351Y323864D01*
X305331Y323890D01*
X305314Y323918D01*
X305301Y323948D01*
X305292Y323979D01*
X305286Y324011D01*
X305284Y324044D01*
X300310Y336554D02*
X300312Y336604D01*
X300318Y336654D01*
X300328Y336704D01*
X300341Y336752D01*
X300358Y336800D01*
X300379Y336846D01*
X300403Y336890D01*
X300431Y336932D01*
X300462Y336972D01*
X300496Y337009D01*
X300533Y337044D01*
X300572Y337075D01*
X300613Y337104D01*
X300657Y337129D01*
X300703Y337151D01*
X300750Y337169D01*
X300798Y337183D01*
X300847Y337194D01*
X300897Y337201D01*
X300947Y337204D01*
X300998Y337203D01*
X301048Y337198D01*
X301098Y337189D01*
X301146Y337177D01*
X301194Y337160D01*
X301240Y337140D01*
X301285Y337117D01*
X301328Y337090D01*
X301368Y337060D01*
X301406Y337027D01*
X301441Y336991D01*
X301474Y336952D01*
X301503Y336911D01*
X301529Y336868D01*
X301552Y336823D01*
X301571Y336776D01*
X301586Y336728D01*
X301598Y336679D01*
X301606Y336629D01*
X301610Y336579D01*
X301610Y336529D01*
X301606Y336479D01*
X301598Y336429D01*
X301586Y336380D01*
X301571Y336332D01*
X301552Y336285D01*
X301529Y336240D01*
X301503Y336197D01*
X301474Y336156D01*
X301441Y336117D01*
X301406Y336081D01*
X301368Y336048D01*
X301328Y336018D01*
X301285Y335991D01*
X301240Y335968D01*
X301194Y335948D01*
X301146Y335931D01*
X301098Y335919D01*
X301048Y335910D01*
X300998Y335905D01*
X300947Y335904D01*
X300897Y335907D01*
X300847Y335914D01*
X300798Y335925D01*
X300750Y335939D01*
X300703Y335957D01*
X300657Y335979D01*
X300613Y336004D01*
X300572Y336033D01*
X300533Y336064D01*
X300496Y336099D01*
X300462Y336136D01*
X300431Y336176D01*
X300403Y336218D01*
X300379Y336262D01*
X300358Y336308D01*
X300341Y336356D01*
X300328Y336404D01*
X300318Y336454D01*
X300312Y336504D01*
X300310Y336554D01*
X335207Y327341D02*
X335209Y327383D01*
X335215Y327425D01*
X335225Y327467D01*
X335238Y327507D01*
X335256Y327546D01*
X335277Y327583D01*
X335301Y327617D01*
X335329Y327650D01*
X335359Y327680D01*
X335392Y327706D01*
X335427Y327730D01*
X335465Y327750D01*
X335504Y327766D01*
X335544Y327779D01*
X335586Y327788D01*
X335628Y327793D01*
X335671Y327794D01*
X335713Y327791D01*
X335755Y327784D01*
X335796Y327773D01*
X335836Y327758D01*
X335874Y327740D01*
X335911Y327718D01*
X335945Y327693D01*
X335977Y327665D01*
X336005Y327634D01*
X336031Y327600D01*
X336054Y327564D01*
X336073Y327527D01*
X336089Y327487D01*
X336101Y327446D01*
X336109Y327405D01*
X336113Y327362D01*
X336113Y327320D01*
X336109Y327277D01*
X336101Y327236D01*
X336089Y327195D01*
X336073Y327155D01*
X336054Y327118D01*
X336031Y327082D01*
X336005Y327048D01*
X335977Y327017D01*
X335945Y326989D01*
X335911Y326964D01*
X335874Y326942D01*
X335836Y326924D01*
X335796Y326909D01*
X335755Y326898D01*
X335713Y326891D01*
X335671Y326888D01*
X335628Y326889D01*
X335586Y326894D01*
X335544Y326903D01*
X335504Y326916D01*
X335465Y326932D01*
X335427Y326952D01*
X335392Y326976D01*
X335359Y327002D01*
X335329Y327032D01*
X335301Y327065D01*
X335277Y327099D01*
X335256Y327136D01*
X335238Y327175D01*
X335225Y327215D01*
X335215Y327257D01*
X335209Y327299D01*
X335207Y327341D01*
X335207Y322168D02*
X335209Y322210D01*
X335215Y322252D01*
X335225Y322294D01*
X335238Y322334D01*
X335256Y322373D01*
X335277Y322410D01*
X335301Y322444D01*
X335329Y322477D01*
X335359Y322507D01*
X335392Y322533D01*
X335427Y322557D01*
X335465Y322577D01*
X335504Y322593D01*
X335544Y322606D01*
X335586Y322615D01*
X335628Y322620D01*
X335671Y322621D01*
X335713Y322618D01*
X335755Y322611D01*
X335796Y322600D01*
X335836Y322585D01*
X335874Y322567D01*
X335911Y322545D01*
X335945Y322520D01*
X335977Y322492D01*
X336005Y322461D01*
X336031Y322427D01*
X336054Y322391D01*
X336073Y322354D01*
X336089Y322314D01*
X336101Y322273D01*
X336109Y322232D01*
X336113Y322189D01*
X336113Y322147D01*
X336109Y322104D01*
X336101Y322063D01*
X336089Y322022D01*
X336073Y321982D01*
X336054Y321945D01*
X336031Y321909D01*
X336005Y321875D01*
X335977Y321844D01*
X335945Y321816D01*
X335911Y321791D01*
X335874Y321769D01*
X335836Y321751D01*
X335796Y321736D01*
X335755Y321725D01*
X335713Y321718D01*
X335671Y321715D01*
X335628Y321716D01*
X335586Y321721D01*
X335544Y321730D01*
X335504Y321743D01*
X335465Y321759D01*
X335427Y321779D01*
X335392Y321803D01*
X335359Y321829D01*
X335329Y321859D01*
X335301Y321892D01*
X335277Y321926D01*
X335256Y321963D01*
X335238Y322002D01*
X335225Y322042D01*
X335215Y322084D01*
X335209Y322126D01*
X335207Y322168D01*
X339810Y315454D02*
X339812Y315504D01*
X339818Y315554D01*
X339828Y315604D01*
X339841Y315652D01*
X339858Y315700D01*
X339879Y315746D01*
X339903Y315790D01*
X339931Y315832D01*
X339962Y315872D01*
X339996Y315909D01*
X340033Y315944D01*
X340072Y315975D01*
X340113Y316004D01*
X340157Y316029D01*
X340203Y316051D01*
X340250Y316069D01*
X340298Y316083D01*
X340347Y316094D01*
X340397Y316101D01*
X340447Y316104D01*
X340498Y316103D01*
X340548Y316098D01*
X340598Y316089D01*
X340646Y316077D01*
X340694Y316060D01*
X340740Y316040D01*
X340785Y316017D01*
X340828Y315990D01*
X340868Y315960D01*
X340906Y315927D01*
X340941Y315891D01*
X340974Y315852D01*
X341003Y315811D01*
X341029Y315768D01*
X341052Y315723D01*
X341071Y315676D01*
X341086Y315628D01*
X341098Y315579D01*
X341106Y315529D01*
X341110Y315479D01*
X341110Y315429D01*
X341106Y315379D01*
X341098Y315329D01*
X341086Y315280D01*
X341071Y315232D01*
X341052Y315185D01*
X341029Y315140D01*
X341003Y315097D01*
X340974Y315056D01*
X340941Y315017D01*
X340906Y314981D01*
X340868Y314948D01*
X340828Y314918D01*
X340785Y314891D01*
X340740Y314868D01*
X340694Y314848D01*
X340646Y314831D01*
X340598Y314819D01*
X340548Y314810D01*
X340498Y314805D01*
X340447Y314804D01*
X340397Y314807D01*
X340347Y314814D01*
X340298Y314825D01*
X340250Y314839D01*
X340203Y314857D01*
X340157Y314879D01*
X340113Y314904D01*
X340072Y314933D01*
X340033Y314964D01*
X339996Y314999D01*
X339962Y315036D01*
X339931Y315076D01*
X339903Y315118D01*
X339879Y315162D01*
X339858Y315208D01*
X339841Y315256D01*
X339828Y315304D01*
X339818Y315354D01*
X339812Y315404D01*
X339810Y315454D01*
X339810Y336554D02*
X339812Y336604D01*
X339818Y336654D01*
X339828Y336704D01*
X339841Y336752D01*
X339858Y336800D01*
X339879Y336846D01*
X339903Y336890D01*
X339931Y336932D01*
X339962Y336972D01*
X339996Y337009D01*
X340033Y337044D01*
X340072Y337075D01*
X340113Y337104D01*
X340157Y337129D01*
X340203Y337151D01*
X340250Y337169D01*
X340298Y337183D01*
X340347Y337194D01*
X340397Y337201D01*
X340447Y337204D01*
X340498Y337203D01*
X340548Y337198D01*
X340598Y337189D01*
X340646Y337177D01*
X340694Y337160D01*
X340740Y337140D01*
X340785Y337117D01*
X340828Y337090D01*
X340868Y337060D01*
X340906Y337027D01*
X340941Y336991D01*
X340974Y336952D01*
X341003Y336911D01*
X341029Y336868D01*
X341052Y336823D01*
X341071Y336776D01*
X341086Y336728D01*
X341098Y336679D01*
X341106Y336629D01*
X341110Y336579D01*
X341110Y336529D01*
X341106Y336479D01*
X341098Y336429D01*
X341086Y336380D01*
X341071Y336332D01*
X341052Y336285D01*
X341029Y336240D01*
X341003Y336197D01*
X340974Y336156D01*
X340941Y336117D01*
X340906Y336081D01*
X340868Y336048D01*
X340828Y336018D01*
X340785Y335991D01*
X340740Y335968D01*
X340694Y335948D01*
X340646Y335931D01*
X340598Y335919D01*
X340548Y335910D01*
X340498Y335905D01*
X340447Y335904D01*
X340397Y335907D01*
X340347Y335914D01*
X340298Y335925D01*
X340250Y335939D01*
X340203Y335957D01*
X340157Y335979D01*
X340113Y336004D01*
X340072Y336033D01*
X340033Y336064D01*
X339996Y336099D01*
X339962Y336136D01*
X339931Y336176D01*
X339903Y336218D01*
X339879Y336262D01*
X339858Y336308D01*
X339841Y336356D01*
X339828Y336404D01*
X339818Y336454D01*
X339812Y336504D01*
X339810Y336554D01*
D11*
X308237Y322335D02*
X308237Y319973D01*
X305482Y319973D01*
X305482Y322335D01*
X308237Y322335D01*
M02*
