G75*
G70*
%OFA0B0*%
%FSLAX24Y24*%
%IPPOS*%
%LPD*%
%AMOC8*
5,1,8,0,0,1.08239X$1,22.5*
%
%ADD10C,0.0520*%
%ADD11C,0.0600*%
%ADD12C,0.0574*%
%ADD13C,0.0650*%
%ADD14C,0.0840*%
%ADD15C,0.0780*%
%ADD16C,0.0278*%
%ADD17C,0.0160*%
%ADD18C,0.0560*%
%ADD19C,0.0240*%
%ADD20C,0.0100*%
D10*
X305875Y320367D03*
X305875Y321154D03*
X305875Y321942D03*
X303960Y322054D03*
X303960Y321054D03*
X307844Y321154D03*
X307844Y320367D03*
X307844Y321942D03*
X309360Y323354D03*
X309360Y324354D03*
X311160Y323954D03*
X312160Y323954D03*
X314760Y323354D03*
X314760Y322354D03*
X314760Y321354D03*
X314760Y320354D03*
X314760Y319354D03*
X314760Y318354D03*
X317160Y317954D03*
X318160Y317954D03*
X319160Y317954D03*
X320160Y317954D03*
X321160Y317954D03*
X322160Y317954D03*
X323160Y317954D03*
X324160Y317954D03*
X325160Y317954D03*
X326160Y317954D03*
X327160Y317954D03*
X328160Y317954D03*
X332260Y326054D03*
X333260Y326054D03*
X335160Y330354D03*
X335160Y331354D03*
X331360Y330354D03*
X329360Y330354D03*
X329360Y332754D03*
X331360Y332754D03*
X331360Y335254D03*
X329360Y335254D03*
X313128Y330863D03*
X312128Y330863D03*
X310928Y330663D03*
X309928Y330663D03*
X308928Y330663D03*
X307928Y330663D03*
X306928Y330663D03*
X305928Y330663D03*
X304928Y330663D03*
X303928Y330663D03*
X302928Y330663D03*
X301928Y330663D03*
X307660Y326854D03*
X307660Y325854D03*
D11*
X307928Y331663D03*
X307928Y332663D03*
X306928Y332663D03*
X305928Y332663D03*
X304928Y332663D03*
X303928Y332663D03*
X302928Y332663D03*
X301928Y332663D03*
X301928Y331663D03*
X302928Y331663D03*
X303928Y331663D03*
X304928Y331663D03*
X305928Y331663D03*
X306928Y331663D03*
X308928Y331663D03*
X308928Y332663D03*
X309928Y332663D03*
X310928Y332663D03*
X310928Y331663D03*
X309928Y331663D03*
X314460Y331754D03*
X315460Y331754D03*
X316460Y331754D03*
X317460Y331754D03*
X317460Y334554D03*
X316460Y334554D03*
X315460Y334554D03*
X314460Y334554D03*
X319960Y334854D03*
X320960Y334854D03*
X321960Y334854D03*
X322960Y334854D03*
X322960Y335854D03*
X321960Y335854D03*
X320960Y335854D03*
X319960Y335854D03*
X335160Y335254D03*
X336160Y335254D03*
X337160Y335254D03*
X337160Y334254D03*
X337160Y333254D03*
X336160Y333254D03*
X336160Y334254D03*
X335160Y334254D03*
X335160Y333254D03*
X333860Y318354D03*
X333860Y317354D03*
X333860Y316354D03*
X330760Y316454D03*
X330760Y317454D03*
X330760Y318454D03*
X328160Y316954D03*
X328160Y315954D03*
X327160Y315954D03*
X327160Y316954D03*
X326160Y316954D03*
X326160Y315954D03*
X325160Y315954D03*
X325160Y316954D03*
X324160Y316954D03*
X324160Y315954D03*
X323160Y315954D03*
X323160Y316954D03*
X322160Y316954D03*
X322160Y315954D03*
X321160Y315954D03*
X321160Y316954D03*
X320160Y316954D03*
X320160Y315954D03*
X319160Y315954D03*
X319160Y316954D03*
X318160Y316954D03*
X318160Y315954D03*
X317160Y315954D03*
X317160Y316954D03*
X337060Y317354D03*
X337060Y316354D03*
X337060Y318354D03*
D12*
X334593Y323376D03*
X334593Y324361D03*
X334593Y325148D03*
X334593Y326132D03*
D13*
X305560Y325454D03*
X305560Y326854D03*
X305560Y324044D03*
X300720Y323554D03*
X300720Y327334D03*
D14*
X304393Y319143D03*
X304393Y317765D03*
X308293Y317765D03*
X308293Y319143D03*
D15*
X301460Y319644D03*
X301460Y317664D03*
D16*
X314260Y316854D03*
X314660Y316854D03*
X315060Y316854D03*
X315460Y316854D03*
X315460Y316054D03*
X315060Y316054D03*
X314660Y316054D03*
X314260Y316054D03*
X317160Y320754D03*
X317560Y320754D03*
X317960Y320754D03*
X318360Y320754D03*
X319060Y320854D03*
X319760Y319354D03*
X321360Y319354D03*
X322860Y319354D03*
X322260Y321154D03*
X322134Y321557D03*
X321195Y323971D03*
X322060Y324354D03*
X321467Y325125D03*
X322960Y325754D03*
X323260Y326154D03*
X323461Y326533D03*
X323985Y326926D03*
X324260Y325554D03*
X326260Y325754D03*
X326360Y326254D03*
X326560Y327554D03*
X326260Y329854D03*
X326260Y332254D03*
X326260Y334654D03*
X328260Y334054D03*
X323760Y334354D03*
X323360Y334054D03*
X323460Y332754D03*
X322660Y332754D03*
X321860Y332754D03*
X321260Y331354D03*
X320289Y330516D03*
X320660Y330154D03*
X321560Y329454D03*
X322060Y329654D03*
X318360Y324754D03*
X318360Y323854D03*
X317960Y323654D03*
X317560Y323454D03*
X317158Y322993D03*
X317260Y326254D03*
X316960Y326654D03*
X316660Y327054D03*
X317360Y327454D03*
X317360Y328454D03*
X317960Y329054D03*
X314460Y325754D03*
X314060Y326154D03*
X313675Y326528D03*
X324860Y320954D03*
X324860Y320254D03*
X326760Y321754D03*
X327260Y321754D03*
X326660Y323354D03*
X326560Y323954D03*
X330560Y324454D03*
X330560Y326054D03*
X330560Y321254D03*
X330108Y321254D03*
X332860Y319654D03*
D17*
X300660Y316754D02*
X299960Y317454D01*
X299960Y322354D01*
X300452Y322847D01*
X300569Y322799D01*
X300870Y322799D01*
X301004Y322854D01*
X303960Y322854D01*
X304660Y322154D01*
X304660Y320254D01*
X305060Y319854D01*
X308860Y319854D01*
X309360Y319354D01*
X309360Y317254D01*
X308860Y316754D01*
X300660Y316754D01*
X300564Y316850D02*
X308955Y316850D01*
X309113Y317008D02*
X300406Y317008D01*
X300247Y317167D02*
X301224Y317167D01*
X301148Y317198D02*
X301350Y317114D01*
X301569Y317114D01*
X301771Y317198D01*
X301926Y317353D01*
X302009Y317555D01*
X302009Y317774D01*
X301926Y317976D01*
X301771Y318131D01*
X301569Y318214D01*
X301350Y318214D01*
X301148Y318131D01*
X300993Y317976D01*
X300910Y317774D01*
X300910Y317555D01*
X300993Y317353D01*
X301148Y317198D01*
X301021Y317325D02*
X300089Y317325D01*
X299960Y317484D02*
X300939Y317484D01*
X300910Y317642D02*
X299960Y317642D01*
X299960Y317801D02*
X300921Y317801D01*
X300986Y317959D02*
X299960Y317959D01*
X299960Y318118D02*
X301135Y318118D01*
X301784Y318118D02*
X303925Y318118D01*
X303901Y318094D02*
X303813Y317881D01*
X303813Y317650D01*
X303901Y317437D01*
X304064Y317274D01*
X304277Y317185D01*
X304508Y317185D01*
X304721Y317274D01*
X304884Y317437D01*
X304973Y317650D01*
X304973Y317881D01*
X304884Y318094D01*
X304721Y318257D01*
X304508Y318345D01*
X304277Y318345D01*
X304064Y318257D01*
X303901Y318094D01*
X303845Y317959D02*
X301933Y317959D01*
X301998Y317801D02*
X303813Y317801D01*
X303816Y317642D02*
X302009Y317642D01*
X301980Y317484D02*
X303881Y317484D01*
X304013Y317325D02*
X301898Y317325D01*
X301695Y317167D02*
X309272Y317167D01*
X309360Y317325D02*
X308673Y317325D01*
X308621Y317274D02*
X308784Y317437D01*
X308873Y317650D01*
X308873Y317881D01*
X308784Y318094D01*
X308621Y318257D01*
X308408Y318345D01*
X308177Y318345D01*
X307964Y318257D01*
X307801Y318094D01*
X307713Y317881D01*
X307713Y317650D01*
X307801Y317437D01*
X307964Y317274D01*
X308177Y317185D01*
X308408Y317185D01*
X308621Y317274D01*
X308804Y317484D02*
X309360Y317484D01*
X309360Y317642D02*
X308869Y317642D01*
X308873Y317801D02*
X309360Y317801D01*
X309360Y317959D02*
X308840Y317959D01*
X308760Y318118D02*
X309360Y318118D01*
X309360Y318276D02*
X308574Y318276D01*
X308412Y318543D02*
X308632Y318635D01*
X308801Y318803D01*
X308893Y319024D01*
X308893Y319083D01*
X308353Y319083D01*
X308353Y319203D01*
X308893Y319203D01*
X308893Y319263D01*
X308801Y319483D01*
X308632Y319652D01*
X308412Y319743D01*
X308353Y319743D01*
X308353Y319204D01*
X308233Y319204D01*
X308233Y319743D01*
X308173Y319743D01*
X307953Y319652D01*
X307784Y319483D01*
X307693Y319263D01*
X307693Y319203D01*
X308232Y319203D01*
X308232Y319083D01*
X307693Y319083D01*
X307693Y319024D01*
X307784Y318803D01*
X307953Y318635D01*
X308173Y318543D01*
X308233Y318543D01*
X308233Y319083D01*
X308353Y319083D01*
X308353Y318543D01*
X308412Y318543D01*
X308353Y318594D02*
X308233Y318594D01*
X308233Y318752D02*
X308353Y318752D01*
X308353Y318911D02*
X308233Y318911D01*
X308233Y319069D02*
X308353Y319069D01*
X308353Y319228D02*
X308233Y319228D01*
X308233Y319386D02*
X308353Y319386D01*
X308353Y319545D02*
X308233Y319545D01*
X308233Y319703D02*
X308353Y319703D01*
X308508Y319703D02*
X309011Y319703D01*
X309169Y319545D02*
X308740Y319545D01*
X308841Y319386D02*
X309328Y319386D01*
X309360Y319228D02*
X308893Y319228D01*
X308893Y319069D02*
X309360Y319069D01*
X309360Y318911D02*
X308846Y318911D01*
X308750Y318752D02*
X309360Y318752D01*
X309360Y318594D02*
X308533Y318594D01*
X308052Y318594D02*
X304633Y318594D01*
X304732Y318635D02*
X304901Y318803D01*
X304993Y319024D01*
X304993Y319083D01*
X304453Y319083D01*
X304453Y319203D01*
X304993Y319203D01*
X304993Y319263D01*
X304901Y319483D01*
X304732Y319652D01*
X304512Y319743D01*
X304453Y319743D01*
X304453Y319204D01*
X304333Y319204D01*
X304333Y319743D01*
X304273Y319743D01*
X304053Y319652D01*
X303884Y319483D01*
X303793Y319263D01*
X303793Y319203D01*
X304332Y319203D01*
X304332Y319083D01*
X303793Y319083D01*
X303793Y319024D01*
X303884Y318803D01*
X304053Y318635D01*
X304273Y318543D01*
X304333Y318543D01*
X304333Y319083D01*
X304453Y319083D01*
X304453Y318543D01*
X304512Y318543D01*
X304732Y318635D01*
X304850Y318752D02*
X307835Y318752D01*
X307740Y318911D02*
X304946Y318911D01*
X304993Y319069D02*
X307693Y319069D01*
X307693Y319228D02*
X304993Y319228D01*
X304941Y319386D02*
X307744Y319386D01*
X307846Y319545D02*
X304840Y319545D01*
X304608Y319703D02*
X308077Y319703D01*
X308221Y320554D02*
X308200Y320605D01*
X308082Y320723D01*
X307991Y320761D01*
X308082Y320798D01*
X308200Y320916D01*
X308264Y321071D01*
X308264Y321238D01*
X308200Y321392D01*
X308082Y321510D01*
X307991Y321548D01*
X308082Y321586D01*
X308200Y321704D01*
X308264Y321858D01*
X308264Y322025D01*
X308200Y322180D01*
X308082Y322298D01*
X307927Y322362D01*
X307760Y322362D01*
X307606Y322298D01*
X307488Y322180D01*
X307424Y322025D01*
X307424Y321858D01*
X307488Y321704D01*
X307606Y321586D01*
X307697Y321548D01*
X307606Y321510D01*
X307488Y321392D01*
X307424Y321238D01*
X307424Y321071D01*
X307488Y320916D01*
X307606Y320798D01*
X307697Y320761D01*
X307606Y320723D01*
X307488Y320605D01*
X307467Y320554D01*
X306252Y320554D01*
X306231Y320605D01*
X306113Y320723D01*
X306022Y320761D01*
X306113Y320798D01*
X306231Y320916D01*
X306295Y321071D01*
X306295Y321238D01*
X306231Y321392D01*
X306113Y321510D01*
X306048Y321537D01*
X306124Y321569D01*
X306248Y321692D01*
X306315Y321854D01*
X306315Y321941D01*
X305876Y321941D01*
X305876Y321942D01*
X306315Y321942D01*
X306315Y322029D01*
X306248Y322191D01*
X306124Y322315D01*
X305963Y322382D01*
X305875Y322382D01*
X305788Y322382D01*
X305626Y322315D01*
X305502Y322191D01*
X305435Y322029D01*
X305435Y321942D01*
X305875Y321942D01*
X305875Y322382D01*
X305875Y321942D01*
X305875Y321942D01*
X305875Y321941D01*
X305435Y321941D01*
X305435Y321854D01*
X305502Y321692D01*
X305626Y321569D01*
X305702Y321537D01*
X305637Y321510D01*
X305519Y321392D01*
X305455Y321238D01*
X305455Y321071D01*
X305519Y320916D01*
X305637Y320798D01*
X305728Y320761D01*
X305637Y320723D01*
X305519Y320605D01*
X305498Y320554D01*
X305460Y320554D01*
X305060Y320954D01*
X305060Y323154D01*
X304260Y323954D01*
X303760Y323954D01*
X303160Y324554D01*
X303160Y327454D01*
X303760Y328054D01*
X312460Y328054D01*
X313060Y327454D01*
X313060Y317254D01*
X312560Y316754D01*
X310360Y316754D01*
X309860Y317254D01*
X309860Y319854D01*
X309160Y320554D01*
X308221Y320554D01*
X308150Y320655D02*
X313060Y320655D01*
X313060Y320813D02*
X308097Y320813D01*
X308223Y320972D02*
X313060Y320972D01*
X313060Y321130D02*
X308264Y321130D01*
X308243Y321289D02*
X313060Y321289D01*
X313060Y321447D02*
X308145Y321447D01*
X308102Y321606D02*
X313060Y321606D01*
X313060Y321764D02*
X308225Y321764D01*
X308264Y321923D02*
X313060Y321923D01*
X313060Y322081D02*
X308240Y322081D01*
X308139Y322240D02*
X313060Y322240D01*
X313060Y322399D02*
X305060Y322399D01*
X305060Y322557D02*
X313060Y322557D01*
X313060Y322716D02*
X305060Y322716D01*
X305060Y322874D02*
X313060Y322874D01*
X313060Y323033D02*
X309660Y323033D01*
X309609Y322981D02*
X309733Y323105D01*
X309799Y323267D01*
X309799Y323354D01*
X309360Y323354D01*
X309360Y323354D01*
X309360Y322914D01*
X309447Y322914D01*
X309609Y322981D01*
X309360Y323033D02*
X309359Y323033D01*
X309359Y322914D02*
X309359Y323354D01*
X308920Y323354D01*
X308920Y323267D01*
X308986Y323105D01*
X309110Y322981D01*
X309272Y322914D01*
X309359Y322914D01*
X309359Y323191D02*
X309360Y323191D01*
X309359Y323350D02*
X309360Y323350D01*
X309359Y323354D02*
X309360Y323354D01*
X309799Y323354D01*
X309799Y323442D01*
X309733Y323604D01*
X309609Y323727D01*
X309447Y323794D01*
X309360Y323794D01*
X309360Y323355D01*
X309359Y323355D01*
X309359Y323794D01*
X309272Y323794D01*
X309110Y323727D01*
X308986Y323604D01*
X308920Y323442D01*
X308920Y323354D01*
X309359Y323354D01*
X309359Y323354D01*
X309359Y323508D02*
X309360Y323508D01*
X309359Y323667D02*
X309360Y323667D01*
X309443Y323934D02*
X309597Y323998D01*
X309716Y324116D01*
X309779Y324271D01*
X309779Y324438D01*
X309716Y324592D01*
X309597Y324710D01*
X309443Y324774D01*
X309276Y324774D01*
X309122Y324710D01*
X309003Y324592D01*
X308940Y324438D01*
X308940Y324271D01*
X309003Y324116D01*
X309122Y323998D01*
X309276Y323934D01*
X309443Y323934D01*
X309563Y323984D02*
X310740Y323984D01*
X310740Y324038D02*
X310740Y323871D01*
X310803Y323716D01*
X310922Y323598D01*
X311076Y323534D01*
X311243Y323534D01*
X311397Y323598D01*
X311516Y323716D01*
X311579Y323871D01*
X311579Y324038D01*
X311516Y324192D01*
X311397Y324310D01*
X311243Y324374D01*
X311076Y324374D01*
X310922Y324310D01*
X310803Y324192D01*
X310740Y324038D01*
X310783Y324143D02*
X309726Y324143D01*
X309779Y324301D02*
X310912Y324301D01*
X311407Y324301D02*
X311884Y324301D01*
X311910Y324327D02*
X311786Y324204D01*
X311720Y324042D01*
X311720Y323954D01*
X311720Y323867D01*
X311786Y323705D01*
X311910Y323581D01*
X312072Y323514D01*
X312159Y323514D01*
X312159Y323954D01*
X311720Y323954D01*
X312159Y323954D01*
X312159Y323954D01*
X312160Y323954D01*
X312160Y323954D01*
X312599Y323954D01*
X312599Y323867D01*
X312533Y323705D01*
X312409Y323581D01*
X312247Y323514D01*
X312160Y323514D01*
X312160Y323954D01*
X312599Y323954D01*
X312599Y324042D01*
X312533Y324204D01*
X312409Y324327D01*
X312247Y324394D01*
X312160Y324394D01*
X312160Y323955D01*
X312159Y323955D01*
X312159Y324394D01*
X312072Y324394D01*
X311910Y324327D01*
X311761Y324143D02*
X311536Y324143D01*
X311579Y323984D02*
X311720Y323984D01*
X311737Y323825D02*
X311561Y323825D01*
X311466Y323667D02*
X311825Y323667D01*
X312159Y323667D02*
X312160Y323667D01*
X312159Y323825D02*
X312160Y323825D01*
X312159Y323984D02*
X312160Y323984D01*
X312159Y324143D02*
X312160Y324143D01*
X312159Y324301D02*
X312160Y324301D01*
X312435Y324301D02*
X313060Y324301D01*
X313060Y324143D02*
X312558Y324143D01*
X312599Y323984D02*
X313060Y323984D01*
X313060Y323825D02*
X312582Y323825D01*
X312494Y323667D02*
X313060Y323667D01*
X313060Y323508D02*
X309772Y323508D01*
X309799Y323350D02*
X313060Y323350D01*
X313060Y323191D02*
X309768Y323191D01*
X309669Y323667D02*
X310853Y323667D01*
X310758Y323825D02*
X306287Y323825D01*
X306315Y323894D02*
X306200Y323616D01*
X305988Y323404D01*
X305710Y323289D01*
X305409Y323289D01*
X305131Y323404D01*
X304919Y323616D01*
X304804Y323894D01*
X304804Y324195D01*
X304919Y324472D01*
X305131Y324685D01*
X305287Y324749D01*
X305131Y324814D01*
X304919Y325026D01*
X304804Y325304D01*
X304804Y325605D01*
X304919Y325882D01*
X305131Y326095D01*
X305275Y326154D01*
X305131Y326214D01*
X304919Y326426D01*
X304804Y326704D01*
X304804Y327005D01*
X304919Y327282D01*
X305131Y327495D01*
X305409Y327610D01*
X305710Y327610D01*
X305988Y327495D01*
X306200Y327282D01*
X306315Y327005D01*
X306315Y326704D01*
X306200Y326426D01*
X305988Y326214D01*
X305844Y326154D01*
X305988Y326095D01*
X306200Y325882D01*
X306315Y325605D01*
X306315Y325304D01*
X306200Y325026D01*
X305988Y324814D01*
X305832Y324749D01*
X305988Y324685D01*
X306200Y324472D01*
X306315Y324195D01*
X306315Y323894D01*
X306315Y323984D02*
X309156Y323984D01*
X308993Y324143D02*
X306315Y324143D01*
X306271Y324301D02*
X308940Y324301D01*
X308949Y324460D02*
X306205Y324460D01*
X306054Y324618D02*
X309029Y324618D01*
X309690Y324618D02*
X313060Y324618D01*
X313060Y324460D02*
X309770Y324460D01*
X309050Y323667D02*
X306221Y323667D01*
X306092Y323508D02*
X308947Y323508D01*
X308920Y323350D02*
X305857Y323350D01*
X305262Y323350D02*
X304864Y323350D01*
X304705Y323508D02*
X305027Y323508D01*
X304898Y323667D02*
X304547Y323667D01*
X304388Y323825D02*
X304832Y323825D01*
X304804Y323984D02*
X303730Y323984D01*
X303571Y324143D02*
X304804Y324143D01*
X304848Y324301D02*
X303413Y324301D01*
X303254Y324460D02*
X304914Y324460D01*
X305065Y324618D02*
X303160Y324618D01*
X303160Y324777D02*
X305221Y324777D01*
X305010Y324935D02*
X303160Y324935D01*
X303160Y325094D02*
X304891Y325094D01*
X304825Y325252D02*
X303160Y325252D01*
X303160Y325411D02*
X304804Y325411D01*
X304804Y325569D02*
X303160Y325569D01*
X303160Y325728D02*
X304855Y325728D01*
X304923Y325887D02*
X303160Y325887D01*
X303160Y326045D02*
X305082Y326045D01*
X305156Y326204D02*
X303160Y326204D01*
X303160Y326362D02*
X304983Y326362D01*
X304880Y326521D02*
X303160Y326521D01*
X303160Y326679D02*
X304814Y326679D01*
X304804Y326838D02*
X303160Y326838D01*
X303160Y326996D02*
X304804Y326996D01*
X304866Y327155D02*
X303160Y327155D01*
X303160Y327313D02*
X304950Y327313D01*
X305109Y327472D02*
X303177Y327472D01*
X303336Y327631D02*
X312883Y327631D01*
X312725Y327789D02*
X303494Y327789D01*
X303653Y327948D02*
X312566Y327948D01*
X313042Y327472D02*
X306010Y327472D01*
X306169Y327313D02*
X313060Y327313D01*
X313060Y327155D02*
X307953Y327155D01*
X307897Y327210D02*
X307743Y327274D01*
X307576Y327274D01*
X307422Y327210D01*
X307303Y327092D01*
X307240Y326938D01*
X307240Y326771D01*
X307303Y326616D01*
X307422Y326498D01*
X307576Y326434D01*
X307743Y326434D01*
X307897Y326498D01*
X308016Y326616D01*
X308079Y326771D01*
X308079Y326938D01*
X308016Y327092D01*
X307897Y327210D01*
X308055Y326996D02*
X313060Y326996D01*
X313060Y326838D02*
X308079Y326838D01*
X308042Y326679D02*
X313060Y326679D01*
X313060Y326521D02*
X307920Y326521D01*
X307747Y326294D02*
X307660Y326294D01*
X307660Y325855D01*
X307659Y325855D01*
X307659Y326294D01*
X307572Y326294D01*
X307410Y326227D01*
X307286Y326104D01*
X307220Y325942D01*
X307220Y325854D01*
X307220Y325767D01*
X307286Y325605D01*
X307410Y325481D01*
X307572Y325414D01*
X307659Y325414D01*
X307659Y325854D01*
X307220Y325854D01*
X307659Y325854D01*
X307659Y325854D01*
X307660Y325854D01*
X307660Y325854D01*
X308099Y325854D01*
X308099Y325767D01*
X308033Y325605D01*
X307909Y325481D01*
X307747Y325414D01*
X307660Y325414D01*
X307660Y325854D01*
X308099Y325854D01*
X308099Y325942D01*
X308033Y326104D01*
X307909Y326227D01*
X307747Y326294D01*
X307659Y326204D02*
X307660Y326204D01*
X307659Y326045D02*
X307660Y326045D01*
X307659Y325887D02*
X307660Y325887D01*
X307659Y325728D02*
X307660Y325728D01*
X307659Y325569D02*
X307660Y325569D01*
X307997Y325569D02*
X313060Y325569D01*
X313060Y325411D02*
X306315Y325411D01*
X306315Y325569D02*
X307322Y325569D01*
X307236Y325728D02*
X306264Y325728D01*
X306196Y325887D02*
X307220Y325887D01*
X307262Y326045D02*
X306037Y326045D01*
X305963Y326204D02*
X307387Y326204D01*
X307399Y326521D02*
X306239Y326521D01*
X306305Y326679D02*
X307277Y326679D01*
X307240Y326838D02*
X306315Y326838D01*
X306315Y326996D02*
X307264Y326996D01*
X307366Y327155D02*
X306253Y327155D01*
X306136Y326362D02*
X313060Y326362D01*
X313060Y326204D02*
X307932Y326204D01*
X308057Y326045D02*
X313060Y326045D01*
X313060Y325887D02*
X308099Y325887D01*
X308083Y325728D02*
X313060Y325728D01*
X313060Y325252D02*
X306294Y325252D01*
X306228Y325094D02*
X313060Y325094D01*
X313060Y324935D02*
X306109Y324935D01*
X305898Y324777D02*
X313060Y324777D01*
X309059Y323033D02*
X305060Y323033D01*
X305023Y323191D02*
X308951Y323191D01*
X307548Y322240D02*
X306199Y322240D01*
X306294Y322081D02*
X307447Y322081D01*
X307424Y321923D02*
X306315Y321923D01*
X306278Y321764D02*
X307463Y321764D01*
X307586Y321606D02*
X306162Y321606D01*
X306176Y321447D02*
X307543Y321447D01*
X307445Y321289D02*
X306274Y321289D01*
X306295Y321130D02*
X307424Y321130D01*
X307465Y320972D02*
X306254Y320972D01*
X306128Y320813D02*
X307591Y320813D01*
X307538Y320655D02*
X306181Y320655D01*
X305622Y320813D02*
X305201Y320813D01*
X305060Y320972D02*
X305496Y320972D01*
X305455Y321130D02*
X305060Y321130D01*
X305060Y321289D02*
X305476Y321289D01*
X305574Y321447D02*
X305060Y321447D01*
X305060Y321606D02*
X305589Y321606D01*
X305472Y321764D02*
X305060Y321764D01*
X305060Y321923D02*
X305435Y321923D01*
X305457Y322081D02*
X305060Y322081D01*
X305060Y322240D02*
X305551Y322240D01*
X305875Y322240D02*
X305875Y322240D01*
X305875Y322081D02*
X305875Y322081D01*
X304660Y322081D02*
X304399Y322081D01*
X304399Y322054D02*
X304399Y322142D01*
X304333Y322304D01*
X304209Y322427D01*
X304047Y322494D01*
X303960Y322494D01*
X303960Y322055D01*
X303959Y322055D01*
X303959Y322494D01*
X303872Y322494D01*
X303710Y322427D01*
X303586Y322304D01*
X303520Y322142D01*
X303520Y322054D01*
X303520Y321967D01*
X303586Y321805D01*
X303710Y321681D01*
X303872Y321614D01*
X303959Y321614D01*
X303959Y322054D01*
X303520Y322054D01*
X303959Y322054D01*
X303959Y322054D01*
X303960Y322054D01*
X303960Y322054D01*
X304399Y322054D01*
X304399Y321967D01*
X304333Y321805D01*
X304209Y321681D01*
X304047Y321614D01*
X303960Y321614D01*
X303960Y322054D01*
X304399Y322054D01*
X304381Y321923D02*
X304660Y321923D01*
X304660Y321764D02*
X304292Y321764D01*
X303960Y321764D02*
X303959Y321764D01*
X303959Y321923D02*
X303960Y321923D01*
X303959Y322081D02*
X303960Y322081D01*
X303959Y322240D02*
X303960Y322240D01*
X303959Y322399D02*
X303960Y322399D01*
X304237Y322399D02*
X304415Y322399D01*
X304359Y322240D02*
X304574Y322240D01*
X304257Y322557D02*
X300162Y322557D01*
X300004Y322399D02*
X303682Y322399D01*
X303560Y322240D02*
X299960Y322240D01*
X299960Y322081D02*
X303520Y322081D01*
X303538Y321923D02*
X299960Y321923D01*
X299960Y321764D02*
X303627Y321764D01*
X303722Y321410D02*
X303603Y321292D01*
X303540Y321138D01*
X303540Y320971D01*
X303603Y320816D01*
X303722Y320698D01*
X303876Y320634D01*
X304043Y320634D01*
X304197Y320698D01*
X304316Y320816D01*
X304379Y320971D01*
X304379Y321138D01*
X304316Y321292D01*
X304197Y321410D01*
X304043Y321474D01*
X303876Y321474D01*
X303722Y321410D01*
X303811Y321447D02*
X299960Y321447D01*
X299960Y321289D02*
X303602Y321289D01*
X303540Y321130D02*
X299960Y321130D01*
X299960Y320972D02*
X303540Y320972D01*
X303607Y320813D02*
X299960Y320813D01*
X299960Y320655D02*
X303827Y320655D01*
X304092Y320655D02*
X304660Y320655D01*
X304660Y320813D02*
X304312Y320813D01*
X304379Y320972D02*
X304660Y320972D01*
X304660Y321130D02*
X304379Y321130D01*
X304317Y321289D02*
X304660Y321289D01*
X304660Y321447D02*
X304108Y321447D01*
X304660Y321606D02*
X299960Y321606D01*
X299960Y320496D02*
X304660Y320496D01*
X304660Y320338D02*
X299960Y320338D01*
X299960Y320179D02*
X301261Y320179D01*
X301346Y320214D02*
X301137Y320128D01*
X300976Y319967D01*
X300890Y319758D01*
X300890Y319694D01*
X301409Y319694D01*
X301409Y319594D01*
X300890Y319594D01*
X300890Y319531D01*
X300976Y319321D01*
X301137Y319161D01*
X301346Y319074D01*
X301409Y319074D01*
X301409Y319594D01*
X301510Y319594D01*
X301510Y319694D01*
X302029Y319694D01*
X302029Y319758D01*
X301943Y319967D01*
X301782Y320128D01*
X301573Y320214D01*
X301510Y320214D01*
X301510Y319695D01*
X301409Y319695D01*
X301409Y320214D01*
X301346Y320214D01*
X301409Y320179D02*
X301510Y320179D01*
X301658Y320179D02*
X304735Y320179D01*
X304893Y320020D02*
X301889Y320020D01*
X301986Y319862D02*
X305052Y319862D01*
X304453Y319703D02*
X304333Y319703D01*
X304177Y319703D02*
X302029Y319703D01*
X302029Y319594D02*
X301510Y319594D01*
X301510Y319074D01*
X301573Y319074D01*
X301782Y319161D01*
X301943Y319321D01*
X302029Y319531D01*
X302029Y319594D01*
X302029Y319545D02*
X303946Y319545D01*
X303844Y319386D02*
X301970Y319386D01*
X301849Y319228D02*
X303793Y319228D01*
X303793Y319069D02*
X299960Y319069D01*
X299960Y318911D02*
X303840Y318911D01*
X303935Y318752D02*
X299960Y318752D01*
X299960Y318594D02*
X304152Y318594D01*
X304333Y318594D02*
X304453Y318594D01*
X304453Y318752D02*
X304333Y318752D01*
X304333Y318911D02*
X304453Y318911D01*
X304453Y319069D02*
X304333Y319069D01*
X304333Y319228D02*
X304453Y319228D01*
X304453Y319386D02*
X304333Y319386D01*
X304333Y319545D02*
X304453Y319545D01*
X304674Y318276D02*
X308011Y318276D01*
X307825Y318118D02*
X304860Y318118D01*
X304940Y317959D02*
X307745Y317959D01*
X307713Y317801D02*
X304973Y317801D01*
X304969Y317642D02*
X307716Y317642D01*
X307781Y317484D02*
X304904Y317484D01*
X304773Y317325D02*
X307913Y317325D01*
X309360Y318435D02*
X299960Y318435D01*
X299960Y318276D02*
X304111Y318276D01*
X305359Y320655D02*
X305569Y320655D01*
X304098Y322716D02*
X300321Y322716D01*
X299960Y320020D02*
X301030Y320020D01*
X300933Y319862D02*
X299960Y319862D01*
X299960Y319703D02*
X300890Y319703D01*
X300890Y319545D02*
X299960Y319545D01*
X299960Y319386D02*
X300949Y319386D01*
X301070Y319228D02*
X299960Y319228D01*
X301409Y319228D02*
X301510Y319228D01*
X301510Y319386D02*
X301409Y319386D01*
X301409Y319545D02*
X301510Y319545D01*
X301510Y319703D02*
X301409Y319703D01*
X301409Y319862D02*
X301510Y319862D01*
X301510Y320020D02*
X301409Y320020D01*
X309218Y320496D02*
X313060Y320496D01*
X313060Y320338D02*
X309376Y320338D01*
X309535Y320179D02*
X313060Y320179D01*
X313060Y320020D02*
X309693Y320020D01*
X309852Y319862D02*
X313060Y319862D01*
X313060Y319703D02*
X309860Y319703D01*
X309860Y319545D02*
X313060Y319545D01*
X313060Y319386D02*
X309860Y319386D01*
X309860Y319228D02*
X313060Y319228D01*
X313060Y319069D02*
X309860Y319069D01*
X309860Y318911D02*
X313060Y318911D01*
X313060Y318752D02*
X309860Y318752D01*
X309860Y318594D02*
X313060Y318594D01*
X313060Y318435D02*
X309860Y318435D01*
X309860Y318276D02*
X313060Y318276D01*
X313060Y318118D02*
X309860Y318118D01*
X309860Y317959D02*
X313060Y317959D01*
X313060Y317801D02*
X309860Y317801D01*
X309860Y317642D02*
X313060Y317642D01*
X313060Y317484D02*
X309860Y317484D01*
X309860Y317325D02*
X313060Y317325D01*
X312972Y317167D02*
X309947Y317167D01*
X310106Y317008D02*
X312813Y317008D01*
X312655Y316850D02*
X310264Y316850D01*
X311328Y329763D02*
X300028Y329763D01*
X299939Y329851D01*
X299939Y334974D01*
X300128Y335163D01*
X311428Y335163D01*
X311728Y334863D01*
X311728Y330994D01*
X311708Y330946D01*
X311708Y330779D01*
X311728Y330731D01*
X311728Y330163D01*
X311328Y329763D01*
X311416Y329850D02*
X299941Y329850D01*
X299939Y330009D02*
X311574Y330009D01*
X311728Y330167D02*
X299939Y330167D01*
X299939Y330326D02*
X301671Y330326D01*
X301690Y330307D02*
X301845Y330243D01*
X302012Y330243D01*
X302166Y330307D01*
X302284Y330425D01*
X302348Y330579D01*
X302348Y330746D01*
X302284Y330901D01*
X302166Y331019D01*
X302012Y331083D01*
X301845Y331083D01*
X301690Y331019D01*
X301572Y330901D01*
X301508Y330746D01*
X301508Y330579D01*
X301572Y330425D01*
X301690Y330307D01*
X301548Y330484D02*
X299939Y330484D01*
X299939Y330643D02*
X301508Y330643D01*
X301531Y330801D02*
X299939Y330801D01*
X299939Y330960D02*
X301632Y330960D01*
X301668Y331273D02*
X301837Y331203D01*
X302020Y331203D01*
X302189Y331273D01*
X302318Y331402D01*
X302388Y331571D01*
X302388Y331754D01*
X302318Y331923D01*
X302189Y332053D01*
X302020Y332123D01*
X301837Y332123D01*
X301668Y332053D01*
X301538Y331923D01*
X301468Y331754D01*
X301468Y331571D01*
X301538Y331402D01*
X301668Y331273D01*
X301663Y331277D02*
X299939Y331277D01*
X299939Y331436D02*
X301524Y331436D01*
X301468Y331594D02*
X299939Y331594D01*
X299939Y331753D02*
X301468Y331753D01*
X301533Y331911D02*
X299939Y331911D01*
X299939Y332070D02*
X301709Y332070D01*
X301723Y332228D02*
X299939Y332228D01*
X299939Y332387D02*
X301525Y332387D01*
X301521Y332391D02*
X301656Y332256D01*
X301833Y332183D01*
X301908Y332183D01*
X301908Y332642D01*
X301948Y332642D01*
X301948Y332183D01*
X302024Y332183D01*
X302200Y332256D01*
X302335Y332391D01*
X302408Y332567D01*
X302408Y332643D01*
X301949Y332643D01*
X301949Y332683D01*
X302408Y332683D01*
X302408Y332758D01*
X302335Y332935D01*
X302200Y333070D01*
X302024Y333143D01*
X301948Y333143D01*
X301948Y332683D01*
X301908Y332683D01*
X301908Y333143D01*
X301833Y333143D01*
X301656Y333070D01*
X301521Y332935D01*
X301448Y332758D01*
X301448Y332683D01*
X301908Y332683D01*
X301908Y332643D01*
X301448Y332643D01*
X301448Y332567D01*
X301521Y332391D01*
X301457Y332545D02*
X299939Y332545D01*
X299939Y332704D02*
X301448Y332704D01*
X301492Y332862D02*
X299939Y332862D01*
X299939Y333021D02*
X301608Y333021D01*
X301908Y333021D02*
X301948Y333021D01*
X301948Y332862D02*
X301908Y332862D01*
X301908Y332704D02*
X301948Y332704D01*
X301948Y332545D02*
X301908Y332545D01*
X301908Y332387D02*
X301948Y332387D01*
X301948Y332228D02*
X301908Y332228D01*
X302134Y332228D02*
X302723Y332228D01*
X302656Y332256D02*
X302833Y332183D01*
X302908Y332183D01*
X302908Y332642D01*
X302948Y332642D01*
X302948Y332183D01*
X303024Y332183D01*
X303200Y332256D01*
X303335Y332391D01*
X303408Y332567D01*
X303408Y332643D01*
X302949Y332643D01*
X302949Y332683D01*
X303408Y332683D01*
X303408Y332758D01*
X303335Y332935D01*
X303200Y333070D01*
X303024Y333143D01*
X302948Y333143D01*
X302948Y332683D01*
X302908Y332683D01*
X302908Y333143D01*
X302833Y333143D01*
X302656Y333070D01*
X302521Y332935D01*
X302448Y332758D01*
X302448Y332683D01*
X302908Y332683D01*
X302908Y332643D01*
X302448Y332643D01*
X302448Y332567D01*
X302521Y332391D01*
X302656Y332256D01*
X302525Y332387D02*
X302331Y332387D01*
X302399Y332545D02*
X302457Y332545D01*
X302448Y332704D02*
X302408Y332704D01*
X302365Y332862D02*
X302492Y332862D01*
X302608Y333021D02*
X302249Y333021D01*
X302908Y333021D02*
X302948Y333021D01*
X302948Y332862D02*
X302908Y332862D01*
X302908Y332704D02*
X302948Y332704D01*
X302948Y332545D02*
X302908Y332545D01*
X302908Y332387D02*
X302948Y332387D01*
X302948Y332228D02*
X302908Y332228D01*
X302837Y332123D02*
X302668Y332053D01*
X302538Y331923D01*
X302468Y331754D01*
X302468Y331571D01*
X302538Y331402D01*
X302668Y331273D01*
X302837Y331203D01*
X303020Y331203D01*
X303189Y331273D01*
X303318Y331402D01*
X303388Y331571D01*
X303388Y331754D01*
X303318Y331923D01*
X303189Y332053D01*
X303020Y332123D01*
X302837Y332123D01*
X302709Y332070D02*
X302147Y332070D01*
X302323Y331911D02*
X302533Y331911D01*
X302468Y331753D02*
X302388Y331753D01*
X302388Y331594D02*
X302468Y331594D01*
X302524Y331436D02*
X302332Y331436D01*
X302193Y331277D02*
X302663Y331277D01*
X302690Y331019D02*
X302572Y330901D01*
X302508Y330746D01*
X302508Y330579D01*
X302572Y330425D01*
X302690Y330307D01*
X302845Y330243D01*
X303012Y330243D01*
X303166Y330307D01*
X303284Y330425D01*
X303348Y330579D01*
X303348Y330746D01*
X303284Y330901D01*
X303166Y331019D01*
X303012Y331083D01*
X302845Y331083D01*
X302690Y331019D01*
X302632Y330960D02*
X302225Y330960D01*
X302325Y330801D02*
X302531Y330801D01*
X302508Y330643D02*
X302348Y330643D01*
X302309Y330484D02*
X302548Y330484D01*
X302671Y330326D02*
X302185Y330326D01*
X303185Y330326D02*
X303671Y330326D01*
X303690Y330307D02*
X303845Y330243D01*
X304012Y330243D01*
X304166Y330307D01*
X304284Y330425D01*
X304348Y330579D01*
X304348Y330746D01*
X304284Y330901D01*
X304166Y331019D01*
X304012Y331083D01*
X303845Y331083D01*
X303690Y331019D01*
X303572Y330901D01*
X303508Y330746D01*
X303508Y330579D01*
X303572Y330425D01*
X303690Y330307D01*
X303548Y330484D02*
X303309Y330484D01*
X303348Y330643D02*
X303508Y330643D01*
X303531Y330801D02*
X303325Y330801D01*
X303225Y330960D02*
X303632Y330960D01*
X303668Y331273D02*
X303837Y331203D01*
X304020Y331203D01*
X304189Y331273D01*
X304318Y331402D01*
X304388Y331571D01*
X304388Y331754D01*
X304318Y331923D01*
X304189Y332053D01*
X304020Y332123D01*
X303837Y332123D01*
X303668Y332053D01*
X303538Y331923D01*
X303468Y331754D01*
X303468Y331571D01*
X303538Y331402D01*
X303668Y331273D01*
X303663Y331277D02*
X303193Y331277D01*
X303332Y331436D02*
X303524Y331436D01*
X303468Y331594D02*
X303388Y331594D01*
X303388Y331753D02*
X303468Y331753D01*
X303533Y331911D02*
X303323Y331911D01*
X303147Y332070D02*
X303709Y332070D01*
X303723Y332228D02*
X303134Y332228D01*
X303331Y332387D02*
X303525Y332387D01*
X303521Y332391D02*
X303656Y332256D01*
X303833Y332183D01*
X303908Y332183D01*
X303908Y332642D01*
X303948Y332642D01*
X303948Y332183D01*
X304024Y332183D01*
X304200Y332256D01*
X304335Y332391D01*
X304408Y332567D01*
X304408Y332643D01*
X303949Y332643D01*
X303949Y332683D01*
X304408Y332683D01*
X304408Y332758D01*
X304335Y332935D01*
X304200Y333070D01*
X304024Y333143D01*
X303948Y333143D01*
X303948Y332683D01*
X303908Y332683D01*
X303908Y333143D01*
X303833Y333143D01*
X303656Y333070D01*
X303521Y332935D01*
X303448Y332758D01*
X303448Y332683D01*
X303908Y332683D01*
X303908Y332643D01*
X303448Y332643D01*
X303448Y332567D01*
X303521Y332391D01*
X303457Y332545D02*
X303399Y332545D01*
X303408Y332704D02*
X303448Y332704D01*
X303492Y332862D02*
X303365Y332862D01*
X303249Y333021D02*
X303608Y333021D01*
X303908Y333021D02*
X303948Y333021D01*
X303948Y332862D02*
X303908Y332862D01*
X303908Y332704D02*
X303948Y332704D01*
X303948Y332545D02*
X303908Y332545D01*
X303908Y332387D02*
X303948Y332387D01*
X303948Y332228D02*
X303908Y332228D01*
X304134Y332228D02*
X304723Y332228D01*
X304656Y332256D02*
X304833Y332183D01*
X304908Y332183D01*
X304908Y332642D01*
X304948Y332642D01*
X304948Y332183D01*
X305024Y332183D01*
X305200Y332256D01*
X305335Y332391D01*
X305408Y332567D01*
X305408Y332643D01*
X304949Y332643D01*
X304949Y332683D01*
X305408Y332683D01*
X305408Y332758D01*
X305335Y332935D01*
X305200Y333070D01*
X305024Y333143D01*
X304948Y333143D01*
X304948Y332683D01*
X304908Y332683D01*
X304908Y333143D01*
X304833Y333143D01*
X304656Y333070D01*
X304521Y332935D01*
X304448Y332758D01*
X304448Y332683D01*
X304908Y332683D01*
X304908Y332643D01*
X304448Y332643D01*
X304448Y332567D01*
X304521Y332391D01*
X304656Y332256D01*
X304525Y332387D02*
X304331Y332387D01*
X304399Y332545D02*
X304457Y332545D01*
X304448Y332704D02*
X304408Y332704D01*
X304365Y332862D02*
X304492Y332862D01*
X304608Y333021D02*
X304249Y333021D01*
X304908Y333021D02*
X304948Y333021D01*
X304948Y332862D02*
X304908Y332862D01*
X304908Y332704D02*
X304948Y332704D01*
X304948Y332545D02*
X304908Y332545D01*
X304908Y332387D02*
X304948Y332387D01*
X304948Y332228D02*
X304908Y332228D01*
X304837Y332123D02*
X304668Y332053D01*
X304538Y331923D01*
X304468Y331754D01*
X304468Y331571D01*
X304538Y331402D01*
X304668Y331273D01*
X304837Y331203D01*
X305020Y331203D01*
X305189Y331273D01*
X305318Y331402D01*
X305388Y331571D01*
X305388Y331754D01*
X305318Y331923D01*
X305189Y332053D01*
X305020Y332123D01*
X304837Y332123D01*
X304709Y332070D02*
X304147Y332070D01*
X304323Y331911D02*
X304533Y331911D01*
X304468Y331753D02*
X304388Y331753D01*
X304388Y331594D02*
X304468Y331594D01*
X304524Y331436D02*
X304332Y331436D01*
X304193Y331277D02*
X304663Y331277D01*
X304690Y331019D02*
X304572Y330901D01*
X304508Y330746D01*
X304508Y330579D01*
X304572Y330425D01*
X304690Y330307D01*
X304845Y330243D01*
X305012Y330243D01*
X305166Y330307D01*
X305284Y330425D01*
X305348Y330579D01*
X305348Y330746D01*
X305284Y330901D01*
X305166Y331019D01*
X305012Y331083D01*
X304845Y331083D01*
X304690Y331019D01*
X304632Y330960D02*
X304225Y330960D01*
X304325Y330801D02*
X304531Y330801D01*
X304508Y330643D02*
X304348Y330643D01*
X304309Y330484D02*
X304548Y330484D01*
X304671Y330326D02*
X304185Y330326D01*
X305185Y330326D02*
X305671Y330326D01*
X305690Y330307D02*
X305845Y330243D01*
X306012Y330243D01*
X306166Y330307D01*
X306284Y330425D01*
X306348Y330579D01*
X306348Y330746D01*
X306284Y330901D01*
X306166Y331019D01*
X306012Y331083D01*
X305845Y331083D01*
X305690Y331019D01*
X305572Y330901D01*
X305508Y330746D01*
X305508Y330579D01*
X305572Y330425D01*
X305690Y330307D01*
X305548Y330484D02*
X305309Y330484D01*
X305348Y330643D02*
X305508Y330643D01*
X305531Y330801D02*
X305325Y330801D01*
X305225Y330960D02*
X305632Y330960D01*
X305668Y331273D02*
X305837Y331203D01*
X306020Y331203D01*
X306189Y331273D01*
X306318Y331402D01*
X306388Y331571D01*
X306388Y331754D01*
X306318Y331923D01*
X306189Y332053D01*
X306020Y332123D01*
X305837Y332123D01*
X305668Y332053D01*
X305538Y331923D01*
X305468Y331754D01*
X305468Y331571D01*
X305538Y331402D01*
X305668Y331273D01*
X305663Y331277D02*
X305193Y331277D01*
X305332Y331436D02*
X305524Y331436D01*
X305468Y331594D02*
X305388Y331594D01*
X305388Y331753D02*
X305468Y331753D01*
X305533Y331911D02*
X305323Y331911D01*
X305147Y332070D02*
X305709Y332070D01*
X305723Y332228D02*
X305134Y332228D01*
X305331Y332387D02*
X305525Y332387D01*
X305521Y332391D02*
X305656Y332256D01*
X305833Y332183D01*
X305908Y332183D01*
X305908Y332642D01*
X305948Y332642D01*
X305948Y332183D01*
X306024Y332183D01*
X306200Y332256D01*
X306335Y332391D01*
X306408Y332567D01*
X306408Y332643D01*
X305949Y332643D01*
X305949Y332683D01*
X306408Y332683D01*
X306408Y332758D01*
X306335Y332935D01*
X306200Y333070D01*
X306024Y333143D01*
X305948Y333143D01*
X305948Y332683D01*
X305908Y332683D01*
X305908Y333143D01*
X305833Y333143D01*
X305656Y333070D01*
X305521Y332935D01*
X305448Y332758D01*
X305448Y332683D01*
X305908Y332683D01*
X305908Y332643D01*
X305448Y332643D01*
X305448Y332567D01*
X305521Y332391D01*
X305457Y332545D02*
X305399Y332545D01*
X305408Y332704D02*
X305448Y332704D01*
X305492Y332862D02*
X305365Y332862D01*
X305249Y333021D02*
X305608Y333021D01*
X305908Y333021D02*
X305948Y333021D01*
X305948Y332862D02*
X305908Y332862D01*
X305908Y332704D02*
X305948Y332704D01*
X305948Y332545D02*
X305908Y332545D01*
X305908Y332387D02*
X305948Y332387D01*
X305948Y332228D02*
X305908Y332228D01*
X306134Y332228D02*
X306723Y332228D01*
X306656Y332256D02*
X306833Y332183D01*
X306908Y332183D01*
X306908Y332642D01*
X306948Y332642D01*
X306948Y332183D01*
X307024Y332183D01*
X307200Y332256D01*
X307335Y332391D01*
X307408Y332567D01*
X307408Y332643D01*
X306949Y332643D01*
X306949Y332683D01*
X307408Y332683D01*
X307408Y332758D01*
X307335Y332935D01*
X307200Y333070D01*
X307024Y333143D01*
X306948Y333143D01*
X306948Y332683D01*
X306908Y332683D01*
X306908Y333143D01*
X306833Y333143D01*
X306656Y333070D01*
X306521Y332935D01*
X306448Y332758D01*
X306448Y332683D01*
X306908Y332683D01*
X306908Y332643D01*
X306448Y332643D01*
X306448Y332567D01*
X306521Y332391D01*
X306656Y332256D01*
X306525Y332387D02*
X306331Y332387D01*
X306399Y332545D02*
X306457Y332545D01*
X306448Y332704D02*
X306408Y332704D01*
X306365Y332862D02*
X306492Y332862D01*
X306608Y333021D02*
X306249Y333021D01*
X306908Y333021D02*
X306948Y333021D01*
X306948Y332862D02*
X306908Y332862D01*
X306908Y332704D02*
X306948Y332704D01*
X306948Y332545D02*
X306908Y332545D01*
X306908Y332387D02*
X306948Y332387D01*
X306948Y332228D02*
X306908Y332228D01*
X306837Y332123D02*
X306668Y332053D01*
X306538Y331923D01*
X306468Y331754D01*
X306468Y331571D01*
X306538Y331402D01*
X306668Y331273D01*
X306837Y331203D01*
X307020Y331203D01*
X307189Y331273D01*
X307318Y331402D01*
X307388Y331571D01*
X307388Y331754D01*
X307318Y331923D01*
X307189Y332053D01*
X307020Y332123D01*
X306837Y332123D01*
X306709Y332070D02*
X306147Y332070D01*
X306323Y331911D02*
X306533Y331911D01*
X306468Y331753D02*
X306388Y331753D01*
X306388Y331594D02*
X306468Y331594D01*
X306524Y331436D02*
X306332Y331436D01*
X306193Y331277D02*
X306663Y331277D01*
X306690Y331019D02*
X306572Y330901D01*
X306508Y330746D01*
X306508Y330579D01*
X306572Y330425D01*
X306690Y330307D01*
X306845Y330243D01*
X307012Y330243D01*
X307166Y330307D01*
X307284Y330425D01*
X307348Y330579D01*
X307348Y330746D01*
X307284Y330901D01*
X307166Y331019D01*
X307012Y331083D01*
X306845Y331083D01*
X306690Y331019D01*
X306632Y330960D02*
X306225Y330960D01*
X306325Y330801D02*
X306531Y330801D01*
X306508Y330643D02*
X306348Y330643D01*
X306309Y330484D02*
X306548Y330484D01*
X306671Y330326D02*
X306185Y330326D01*
X307185Y330326D02*
X307671Y330326D01*
X307690Y330307D02*
X307845Y330243D01*
X308012Y330243D01*
X308166Y330307D01*
X308284Y330425D01*
X308348Y330579D01*
X308348Y330746D01*
X308284Y330901D01*
X308166Y331019D01*
X308012Y331083D01*
X307845Y331083D01*
X307690Y331019D01*
X307572Y330901D01*
X307508Y330746D01*
X307508Y330579D01*
X307572Y330425D01*
X307690Y330307D01*
X307548Y330484D02*
X307309Y330484D01*
X307348Y330643D02*
X307508Y330643D01*
X307531Y330801D02*
X307325Y330801D01*
X307225Y330960D02*
X307632Y330960D01*
X307668Y331273D02*
X307837Y331203D01*
X308020Y331203D01*
X308189Y331273D01*
X308318Y331402D01*
X308388Y331571D01*
X308388Y331754D01*
X308318Y331923D01*
X308189Y332053D01*
X308020Y332123D01*
X307837Y332123D01*
X307668Y332053D01*
X307538Y331923D01*
X307468Y331754D01*
X307468Y331571D01*
X307538Y331402D01*
X307668Y331273D01*
X307663Y331277D02*
X307193Y331277D01*
X307332Y331436D02*
X307524Y331436D01*
X307468Y331594D02*
X307388Y331594D01*
X307388Y331753D02*
X307468Y331753D01*
X307533Y331911D02*
X307323Y331911D01*
X307147Y332070D02*
X307709Y332070D01*
X307723Y332228D02*
X307134Y332228D01*
X307331Y332387D02*
X307525Y332387D01*
X307521Y332391D02*
X307656Y332256D01*
X307833Y332183D01*
X307908Y332183D01*
X307908Y332642D01*
X307948Y332642D01*
X307948Y332183D01*
X308024Y332183D01*
X308200Y332256D01*
X308335Y332391D01*
X308408Y332567D01*
X308408Y332643D01*
X307949Y332643D01*
X307949Y332683D01*
X308408Y332683D01*
X308408Y332758D01*
X308335Y332935D01*
X308200Y333070D01*
X308024Y333143D01*
X307948Y333143D01*
X307948Y332683D01*
X307908Y332683D01*
X307908Y333143D01*
X307833Y333143D01*
X307656Y333070D01*
X307521Y332935D01*
X307448Y332758D01*
X307448Y332683D01*
X307908Y332683D01*
X307908Y332643D01*
X307448Y332643D01*
X307448Y332567D01*
X307521Y332391D01*
X307457Y332545D02*
X307399Y332545D01*
X307408Y332704D02*
X307448Y332704D01*
X307492Y332862D02*
X307365Y332862D01*
X307249Y333021D02*
X307608Y333021D01*
X307908Y333021D02*
X307948Y333021D01*
X307948Y332862D02*
X307908Y332862D01*
X307908Y332704D02*
X307948Y332704D01*
X307948Y332545D02*
X307908Y332545D01*
X307908Y332387D02*
X307948Y332387D01*
X307948Y332228D02*
X307908Y332228D01*
X308134Y332228D02*
X308723Y332228D01*
X308656Y332256D02*
X308833Y332183D01*
X308908Y332183D01*
X308908Y332642D01*
X308948Y332642D01*
X308948Y332183D01*
X309024Y332183D01*
X309200Y332256D01*
X309335Y332391D01*
X309408Y332567D01*
X309408Y332643D01*
X308949Y332643D01*
X308949Y332683D01*
X309408Y332683D01*
X309408Y332758D01*
X309335Y332935D01*
X309200Y333070D01*
X309024Y333143D01*
X308948Y333143D01*
X308948Y332683D01*
X308908Y332683D01*
X308908Y333143D01*
X308833Y333143D01*
X308656Y333070D01*
X308521Y332935D01*
X308448Y332758D01*
X308448Y332683D01*
X308908Y332683D01*
X308908Y332643D01*
X308448Y332643D01*
X308448Y332567D01*
X308521Y332391D01*
X308656Y332256D01*
X308525Y332387D02*
X308331Y332387D01*
X308399Y332545D02*
X308457Y332545D01*
X308448Y332704D02*
X308408Y332704D01*
X308365Y332862D02*
X308492Y332862D01*
X308608Y333021D02*
X308249Y333021D01*
X308908Y333021D02*
X308948Y333021D01*
X308948Y332862D02*
X308908Y332862D01*
X308908Y332704D02*
X308948Y332704D01*
X308948Y332545D02*
X308908Y332545D01*
X308908Y332387D02*
X308948Y332387D01*
X308948Y332228D02*
X308908Y332228D01*
X308837Y332123D02*
X308668Y332053D01*
X308538Y331923D01*
X308468Y331754D01*
X308468Y331571D01*
X308538Y331402D01*
X308668Y331273D01*
X308837Y331203D01*
X309020Y331203D01*
X309189Y331273D01*
X309318Y331402D01*
X309388Y331571D01*
X309388Y331754D01*
X309318Y331923D01*
X309189Y332053D01*
X309020Y332123D01*
X308837Y332123D01*
X308709Y332070D02*
X308147Y332070D01*
X308323Y331911D02*
X308533Y331911D01*
X308468Y331753D02*
X308388Y331753D01*
X308388Y331594D02*
X308468Y331594D01*
X308524Y331436D02*
X308332Y331436D01*
X308193Y331277D02*
X308663Y331277D01*
X308690Y331019D02*
X308572Y330901D01*
X308508Y330746D01*
X308508Y330579D01*
X308572Y330425D01*
X308690Y330307D01*
X308845Y330243D01*
X309012Y330243D01*
X309166Y330307D01*
X309284Y330425D01*
X309348Y330579D01*
X309348Y330746D01*
X309284Y330901D01*
X309166Y331019D01*
X309012Y331083D01*
X308845Y331083D01*
X308690Y331019D01*
X308632Y330960D02*
X308225Y330960D01*
X308325Y330801D02*
X308531Y330801D01*
X308508Y330643D02*
X308348Y330643D01*
X308309Y330484D02*
X308548Y330484D01*
X308671Y330326D02*
X308185Y330326D01*
X309185Y330326D02*
X309671Y330326D01*
X309690Y330307D02*
X309845Y330243D01*
X310012Y330243D01*
X310166Y330307D01*
X310284Y330425D01*
X310348Y330579D01*
X310348Y330746D01*
X310284Y330901D01*
X310166Y331019D01*
X310012Y331083D01*
X309845Y331083D01*
X309690Y331019D01*
X309572Y330901D01*
X309508Y330746D01*
X309508Y330579D01*
X309572Y330425D01*
X309690Y330307D01*
X309548Y330484D02*
X309309Y330484D01*
X309348Y330643D02*
X309508Y330643D01*
X309531Y330801D02*
X309325Y330801D01*
X309225Y330960D02*
X309632Y330960D01*
X309668Y331273D02*
X309837Y331203D01*
X310020Y331203D01*
X310189Y331273D01*
X310318Y331402D01*
X310388Y331571D01*
X310388Y331754D01*
X310318Y331923D01*
X310189Y332053D01*
X310020Y332123D01*
X309837Y332123D01*
X309668Y332053D01*
X309538Y331923D01*
X309468Y331754D01*
X309468Y331571D01*
X309538Y331402D01*
X309668Y331273D01*
X309663Y331277D02*
X309193Y331277D01*
X309332Y331436D02*
X309524Y331436D01*
X309468Y331594D02*
X309388Y331594D01*
X309388Y331753D02*
X309468Y331753D01*
X309533Y331911D02*
X309323Y331911D01*
X309147Y332070D02*
X309709Y332070D01*
X309723Y332228D02*
X309134Y332228D01*
X309331Y332387D02*
X309525Y332387D01*
X309521Y332391D02*
X309656Y332256D01*
X309833Y332183D01*
X309908Y332183D01*
X309908Y332642D01*
X309948Y332642D01*
X309948Y332183D01*
X310024Y332183D01*
X310200Y332256D01*
X310335Y332391D01*
X310408Y332567D01*
X310408Y332643D01*
X309949Y332643D01*
X309949Y332683D01*
X310408Y332683D01*
X310408Y332758D01*
X310335Y332935D01*
X310200Y333070D01*
X310024Y333143D01*
X309948Y333143D01*
X309948Y332683D01*
X309908Y332683D01*
X309908Y333143D01*
X309833Y333143D01*
X309656Y333070D01*
X309521Y332935D01*
X309448Y332758D01*
X309448Y332683D01*
X309908Y332683D01*
X309908Y332643D01*
X309448Y332643D01*
X309448Y332567D01*
X309521Y332391D01*
X309457Y332545D02*
X309399Y332545D01*
X309408Y332704D02*
X309448Y332704D01*
X309492Y332862D02*
X309365Y332862D01*
X309249Y333021D02*
X309608Y333021D01*
X309908Y333021D02*
X309948Y333021D01*
X309948Y332862D02*
X309908Y332862D01*
X309908Y332704D02*
X309948Y332704D01*
X309948Y332545D02*
X309908Y332545D01*
X309908Y332387D02*
X309948Y332387D01*
X309948Y332228D02*
X309908Y332228D01*
X310134Y332228D02*
X310723Y332228D01*
X310656Y332256D02*
X310833Y332183D01*
X310908Y332183D01*
X310908Y332642D01*
X310948Y332642D01*
X310948Y332183D01*
X311024Y332183D01*
X311200Y332256D01*
X311335Y332391D01*
X311408Y332567D01*
X311408Y332643D01*
X310949Y332643D01*
X310949Y332683D01*
X311408Y332683D01*
X311408Y332758D01*
X311335Y332935D01*
X311200Y333070D01*
X311024Y333143D01*
X310948Y333143D01*
X310948Y332683D01*
X310908Y332683D01*
X310908Y333143D01*
X310833Y333143D01*
X310656Y333070D01*
X310521Y332935D01*
X310448Y332758D01*
X310448Y332683D01*
X310908Y332683D01*
X310908Y332643D01*
X310448Y332643D01*
X310448Y332567D01*
X310521Y332391D01*
X310656Y332256D01*
X310525Y332387D02*
X310331Y332387D01*
X310399Y332545D02*
X310457Y332545D01*
X310448Y332704D02*
X310408Y332704D01*
X310365Y332862D02*
X310492Y332862D01*
X310608Y333021D02*
X310249Y333021D01*
X310908Y333021D02*
X310948Y333021D01*
X310948Y332862D02*
X310908Y332862D01*
X310908Y332704D02*
X310948Y332704D01*
X310948Y332545D02*
X310908Y332545D01*
X310908Y332387D02*
X310948Y332387D01*
X310948Y332228D02*
X310908Y332228D01*
X310837Y332123D02*
X310668Y332053D01*
X310538Y331923D01*
X310468Y331754D01*
X310468Y331571D01*
X310538Y331402D01*
X310668Y331273D01*
X310837Y331203D01*
X311020Y331203D01*
X311189Y331273D01*
X311318Y331402D01*
X311388Y331571D01*
X311388Y331754D01*
X311318Y331923D01*
X311189Y332053D01*
X311020Y332123D01*
X310837Y332123D01*
X310709Y332070D02*
X310147Y332070D01*
X310323Y331911D02*
X310533Y331911D01*
X310468Y331753D02*
X310388Y331753D01*
X310388Y331594D02*
X310468Y331594D01*
X310524Y331436D02*
X310332Y331436D01*
X310193Y331277D02*
X310663Y331277D01*
X310690Y331019D02*
X310572Y330901D01*
X310508Y330746D01*
X310508Y330579D01*
X310572Y330425D01*
X310690Y330307D01*
X310845Y330243D01*
X311012Y330243D01*
X311166Y330307D01*
X311284Y330425D01*
X311348Y330579D01*
X311348Y330746D01*
X311284Y330901D01*
X311166Y331019D01*
X311012Y331083D01*
X310845Y331083D01*
X310690Y331019D01*
X310632Y330960D02*
X310225Y330960D01*
X310325Y330801D02*
X310531Y330801D01*
X310508Y330643D02*
X310348Y330643D01*
X310309Y330484D02*
X310548Y330484D01*
X310671Y330326D02*
X310185Y330326D01*
X311185Y330326D02*
X311728Y330326D01*
X311728Y330484D02*
X311309Y330484D01*
X311348Y330643D02*
X311728Y330643D01*
X311708Y330801D02*
X311325Y330801D01*
X311225Y330960D02*
X311714Y330960D01*
X311728Y331118D02*
X299939Y331118D01*
X299939Y333180D02*
X311728Y333180D01*
X311728Y333338D02*
X299939Y333338D01*
X299939Y333497D02*
X311728Y333497D01*
X311728Y333655D02*
X299939Y333655D01*
X299939Y333814D02*
X311728Y333814D01*
X311728Y333972D02*
X299939Y333972D01*
X299939Y334131D02*
X311728Y334131D01*
X311728Y334289D02*
X299939Y334289D01*
X299939Y334448D02*
X311728Y334448D01*
X311728Y334606D02*
X299939Y334606D01*
X299939Y334765D02*
X311728Y334765D01*
X311667Y334924D02*
X299939Y334924D01*
X300048Y335082D02*
X311509Y335082D01*
X311728Y333021D02*
X311249Y333021D01*
X311365Y332862D02*
X311728Y332862D01*
X311728Y332704D02*
X311408Y332704D01*
X311399Y332545D02*
X311728Y332545D01*
X311728Y332387D02*
X311331Y332387D01*
X311134Y332228D02*
X311728Y332228D01*
X311728Y332070D02*
X311147Y332070D01*
X311323Y331911D02*
X311728Y331911D01*
X311728Y331753D02*
X311388Y331753D01*
X311388Y331594D02*
X311728Y331594D01*
X311728Y331436D02*
X311332Y331436D01*
X311193Y331277D02*
X311728Y331277D01*
X319360Y334554D02*
X319360Y336154D01*
X319660Y336454D01*
X323260Y336454D01*
X323560Y336154D01*
X323560Y334577D01*
X323506Y334524D01*
X323490Y334485D01*
X323359Y334353D01*
X323300Y334353D01*
X323190Y334308D01*
X323137Y334254D01*
X319660Y334254D01*
X319360Y334554D01*
X319360Y334606D02*
X319564Y334606D01*
X319570Y334594D02*
X319699Y334464D01*
X319868Y334394D01*
X320051Y334394D01*
X320220Y334464D01*
X320349Y334594D01*
X320419Y334763D01*
X320419Y334946D01*
X320349Y335115D01*
X320220Y335244D01*
X320051Y335314D01*
X319868Y335314D01*
X319699Y335244D01*
X319570Y335115D01*
X319500Y334946D01*
X319500Y334763D01*
X319570Y334594D01*
X319466Y334448D02*
X319739Y334448D01*
X319625Y334289D02*
X323172Y334289D01*
X323180Y334448D02*
X323453Y334448D01*
X323349Y334594D02*
X323220Y334464D01*
X323051Y334394D01*
X322868Y334394D01*
X322699Y334464D01*
X322570Y334594D01*
X322500Y334763D01*
X322500Y334946D01*
X322570Y335115D01*
X322699Y335244D01*
X322868Y335314D01*
X323051Y335314D01*
X323220Y335244D01*
X323349Y335115D01*
X323419Y334946D01*
X323419Y334763D01*
X323349Y334594D01*
X323355Y334606D02*
X323560Y334606D01*
X323560Y334765D02*
X323419Y334765D01*
X323419Y334924D02*
X323560Y334924D01*
X323560Y335082D02*
X323363Y335082D01*
X323224Y335241D02*
X323560Y335241D01*
X323560Y335399D02*
X323115Y335399D01*
X323055Y335374D02*
X323231Y335447D01*
X323366Y335582D01*
X323439Y335759D01*
X323439Y335834D01*
X322980Y335834D01*
X322980Y335874D01*
X323439Y335874D01*
X323439Y335950D01*
X323366Y336126D01*
X323231Y336261D01*
X323055Y336334D01*
X322980Y336334D01*
X322980Y335875D01*
X322939Y335875D01*
X322939Y336334D01*
X322864Y336334D01*
X322688Y336261D01*
X322553Y336126D01*
X322480Y335950D01*
X322480Y335874D01*
X322939Y335874D01*
X322939Y335834D01*
X322480Y335834D01*
X322480Y335759D01*
X322553Y335582D01*
X322688Y335447D01*
X322864Y335374D01*
X322939Y335374D01*
X322939Y335834D01*
X322980Y335834D01*
X322980Y335374D01*
X323055Y335374D01*
X322980Y335399D02*
X322939Y335399D01*
X322804Y335399D02*
X322115Y335399D01*
X322055Y335374D02*
X322231Y335447D01*
X322366Y335582D01*
X322439Y335759D01*
X322439Y335834D01*
X321980Y335834D01*
X321980Y335874D01*
X322439Y335874D01*
X322439Y335950D01*
X322366Y336126D01*
X322231Y336261D01*
X322055Y336334D01*
X321980Y336334D01*
X321980Y335875D01*
X321939Y335875D01*
X321939Y336334D01*
X321864Y336334D01*
X321688Y336261D01*
X321553Y336126D01*
X321480Y335950D01*
X321480Y335874D01*
X321939Y335874D01*
X321939Y335834D01*
X321480Y335834D01*
X321480Y335759D01*
X321553Y335582D01*
X321688Y335447D01*
X321864Y335374D01*
X321939Y335374D01*
X321939Y335834D01*
X321980Y335834D01*
X321980Y335374D01*
X322055Y335374D01*
X322051Y335314D02*
X321868Y335314D01*
X321699Y335244D01*
X321570Y335115D01*
X321500Y334946D01*
X321500Y334763D01*
X321570Y334594D01*
X321699Y334464D01*
X321868Y334394D01*
X322051Y334394D01*
X322220Y334464D01*
X322349Y334594D01*
X322419Y334763D01*
X322419Y334946D01*
X322349Y335115D01*
X322220Y335244D01*
X322051Y335314D01*
X321980Y335399D02*
X321939Y335399D01*
X321804Y335399D02*
X321115Y335399D01*
X321055Y335374D02*
X321231Y335447D01*
X321366Y335582D01*
X321439Y335759D01*
X321439Y335834D01*
X320980Y335834D01*
X320980Y335874D01*
X321439Y335874D01*
X321439Y335950D01*
X321366Y336126D01*
X321231Y336261D01*
X321055Y336334D01*
X320980Y336334D01*
X320980Y335875D01*
X320939Y335875D01*
X320939Y336334D01*
X320864Y336334D01*
X320688Y336261D01*
X320553Y336126D01*
X320480Y335950D01*
X320480Y335874D01*
X320939Y335874D01*
X320939Y335834D01*
X320480Y335834D01*
X320480Y335759D01*
X320553Y335582D01*
X320688Y335447D01*
X320864Y335374D01*
X320939Y335374D01*
X320939Y335834D01*
X320980Y335834D01*
X320980Y335374D01*
X321055Y335374D01*
X321051Y335314D02*
X320868Y335314D01*
X320699Y335244D01*
X320570Y335115D01*
X320500Y334946D01*
X320500Y334763D01*
X320570Y334594D01*
X320699Y334464D01*
X320868Y334394D01*
X321051Y334394D01*
X321220Y334464D01*
X321349Y334594D01*
X321419Y334763D01*
X321419Y334946D01*
X321349Y335115D01*
X321220Y335244D01*
X321051Y335314D01*
X320980Y335399D02*
X320939Y335399D01*
X320804Y335399D02*
X320115Y335399D01*
X320055Y335374D02*
X320231Y335447D01*
X320366Y335582D01*
X320439Y335759D01*
X320439Y335834D01*
X319980Y335834D01*
X319980Y335874D01*
X320439Y335874D01*
X320439Y335950D01*
X320366Y336126D01*
X320231Y336261D01*
X320055Y336334D01*
X319980Y336334D01*
X319980Y335875D01*
X319939Y335875D01*
X319939Y336334D01*
X319864Y336334D01*
X319688Y336261D01*
X319553Y336126D01*
X319480Y335950D01*
X319480Y335874D01*
X319939Y335874D01*
X319939Y335834D01*
X319480Y335834D01*
X319480Y335759D01*
X319553Y335582D01*
X319688Y335447D01*
X319864Y335374D01*
X319939Y335374D01*
X319939Y335834D01*
X319980Y335834D01*
X319980Y335374D01*
X320055Y335374D01*
X319980Y335399D02*
X319939Y335399D01*
X319804Y335399D02*
X319360Y335399D01*
X319360Y335241D02*
X319695Y335241D01*
X319556Y335082D02*
X319360Y335082D01*
X319360Y334924D02*
X319500Y334924D01*
X319500Y334765D02*
X319360Y334765D01*
X319360Y335558D02*
X319577Y335558D01*
X319497Y335716D02*
X319360Y335716D01*
X319360Y335875D02*
X319480Y335875D01*
X319514Y336033D02*
X319360Y336033D01*
X319397Y336192D02*
X319618Y336192D01*
X319556Y336350D02*
X323363Y336350D01*
X323301Y336192D02*
X323522Y336192D01*
X323560Y336033D02*
X323405Y336033D01*
X323439Y335875D02*
X323560Y335875D01*
X323560Y335716D02*
X323422Y335716D01*
X323342Y335558D02*
X323560Y335558D01*
X322980Y335558D02*
X322939Y335558D01*
X322939Y335716D02*
X322980Y335716D01*
X322980Y335875D02*
X322939Y335875D01*
X322939Y336033D02*
X322980Y336033D01*
X322980Y336192D02*
X322939Y336192D01*
X322618Y336192D02*
X322301Y336192D01*
X322405Y336033D02*
X322514Y336033D01*
X322480Y335875D02*
X322439Y335875D01*
X322422Y335716D02*
X322497Y335716D01*
X322577Y335558D02*
X322342Y335558D01*
X322224Y335241D02*
X322695Y335241D01*
X322556Y335082D02*
X322363Y335082D01*
X322419Y334924D02*
X322500Y334924D01*
X322500Y334765D02*
X322419Y334765D01*
X322355Y334606D02*
X322564Y334606D01*
X322739Y334448D02*
X322180Y334448D01*
X321739Y334448D02*
X321180Y334448D01*
X321355Y334606D02*
X321564Y334606D01*
X321500Y334765D02*
X321419Y334765D01*
X321419Y334924D02*
X321500Y334924D01*
X321556Y335082D02*
X321363Y335082D01*
X321224Y335241D02*
X321695Y335241D01*
X321577Y335558D02*
X321342Y335558D01*
X321422Y335716D02*
X321497Y335716D01*
X321480Y335875D02*
X321439Y335875D01*
X321405Y336033D02*
X321514Y336033D01*
X321618Y336192D02*
X321301Y336192D01*
X320980Y336192D02*
X320939Y336192D01*
X320939Y336033D02*
X320980Y336033D01*
X320980Y335875D02*
X320939Y335875D01*
X320939Y335716D02*
X320980Y335716D01*
X320980Y335558D02*
X320939Y335558D01*
X320577Y335558D02*
X320342Y335558D01*
X320422Y335716D02*
X320497Y335716D01*
X320480Y335875D02*
X320439Y335875D01*
X320405Y336033D02*
X320514Y336033D01*
X320618Y336192D02*
X320301Y336192D01*
X319980Y336192D02*
X319939Y336192D01*
X319939Y336033D02*
X319980Y336033D01*
X319980Y335875D02*
X319939Y335875D01*
X319939Y335716D02*
X319980Y335716D01*
X319980Y335558D02*
X319939Y335558D01*
X320224Y335241D02*
X320695Y335241D01*
X320556Y335082D02*
X320363Y335082D01*
X320419Y334924D02*
X320500Y334924D01*
X320500Y334765D02*
X320419Y334765D01*
X320355Y334606D02*
X320564Y334606D01*
X320739Y334448D02*
X320180Y334448D01*
X321939Y335558D02*
X321980Y335558D01*
X321980Y335716D02*
X321939Y335716D01*
X321939Y335875D02*
X321980Y335875D01*
X321980Y336033D02*
X321939Y336033D01*
X321939Y336192D02*
X321980Y336192D01*
X334460Y335454D02*
X334860Y335854D01*
X337460Y335854D01*
X337960Y335354D01*
X337960Y333154D01*
X337460Y332654D01*
X334860Y332654D01*
X334460Y333054D01*
X334460Y335454D01*
X334460Y335399D02*
X334722Y335399D01*
X334700Y335346D02*
X334700Y335163D01*
X334770Y334994D01*
X334899Y334864D01*
X335068Y334794D01*
X335251Y334794D01*
X335420Y334864D01*
X335549Y334994D01*
X335619Y335163D01*
X335619Y335346D01*
X335549Y335515D01*
X335420Y335644D01*
X335251Y335714D01*
X335068Y335714D01*
X334899Y335644D01*
X334770Y335515D01*
X334700Y335346D01*
X334700Y335241D02*
X334460Y335241D01*
X334460Y335082D02*
X334733Y335082D01*
X334840Y334924D02*
X334460Y334924D01*
X334460Y334765D02*
X337960Y334765D01*
X337960Y334924D02*
X337508Y334924D01*
X337566Y334982D02*
X337639Y335159D01*
X337639Y335234D01*
X337180Y335234D01*
X337180Y335274D01*
X337639Y335274D01*
X337639Y335350D01*
X337566Y335526D01*
X337431Y335661D01*
X337255Y335734D01*
X337180Y335734D01*
X337180Y335275D01*
X337139Y335275D01*
X337139Y335734D01*
X337064Y335734D01*
X336888Y335661D01*
X336753Y335526D01*
X336680Y335350D01*
X336680Y335274D01*
X337139Y335274D01*
X337139Y335234D01*
X336680Y335234D01*
X336680Y335159D01*
X336753Y334982D01*
X336888Y334847D01*
X337064Y334774D01*
X337139Y334774D01*
X337139Y335234D01*
X337180Y335234D01*
X337180Y334774D01*
X337255Y334774D01*
X337431Y334847D01*
X337566Y334982D01*
X337608Y335082D02*
X337960Y335082D01*
X337960Y335241D02*
X337180Y335241D01*
X337139Y335241D02*
X336619Y335241D01*
X336619Y335163D02*
X336549Y334994D01*
X336420Y334864D01*
X336251Y334794D01*
X336068Y334794D01*
X335899Y334864D01*
X335770Y334994D01*
X335700Y335163D01*
X335700Y335346D01*
X335770Y335515D01*
X335899Y335644D01*
X336068Y335714D01*
X336251Y335714D01*
X336420Y335644D01*
X336549Y335515D01*
X336619Y335346D01*
X336619Y335163D01*
X336586Y335082D02*
X336711Y335082D01*
X336811Y334924D02*
X336479Y334924D01*
X336420Y334644D02*
X336251Y334714D01*
X336068Y334714D01*
X335899Y334644D01*
X335770Y334515D01*
X335700Y334346D01*
X335700Y334163D01*
X335770Y333994D01*
X335899Y333864D01*
X336068Y333794D01*
X336251Y333794D01*
X336420Y333864D01*
X336549Y333994D01*
X336619Y334163D01*
X336619Y334346D01*
X336549Y334515D01*
X336420Y334644D01*
X336458Y334606D02*
X336833Y334606D01*
X336888Y334661D02*
X336753Y334526D01*
X336680Y334350D01*
X336680Y334274D01*
X337139Y334274D01*
X337139Y334234D01*
X336680Y334234D01*
X336680Y334159D01*
X336753Y333982D01*
X336888Y333847D01*
X337064Y333774D01*
X337139Y333774D01*
X337139Y334234D01*
X337180Y334234D01*
X337180Y334274D01*
X337639Y334274D01*
X337639Y334350D01*
X337566Y334526D01*
X337431Y334661D01*
X337255Y334734D01*
X337180Y334734D01*
X337180Y334275D01*
X337139Y334275D01*
X337139Y334734D01*
X337064Y334734D01*
X336888Y334661D01*
X337139Y334606D02*
X337180Y334606D01*
X337180Y334448D02*
X337139Y334448D01*
X337139Y334289D02*
X337180Y334289D01*
X337180Y334234D02*
X337639Y334234D01*
X337639Y334159D01*
X337566Y333982D01*
X337431Y333847D01*
X337255Y333774D01*
X337180Y333774D01*
X337180Y334234D01*
X337180Y334131D02*
X337139Y334131D01*
X337139Y333972D02*
X337180Y333972D01*
X337180Y333814D02*
X337139Y333814D01*
X337139Y333734D02*
X337064Y333734D01*
X336888Y333661D01*
X336753Y333526D01*
X336680Y333350D01*
X336680Y333274D01*
X337139Y333274D01*
X337139Y333234D01*
X336680Y333234D01*
X336680Y333159D01*
X336753Y332982D01*
X336888Y332847D01*
X337064Y332774D01*
X337139Y332774D01*
X337139Y333234D01*
X337180Y333234D01*
X337180Y333274D01*
X337639Y333274D01*
X337639Y333350D01*
X337566Y333526D01*
X337431Y333661D01*
X337255Y333734D01*
X337180Y333734D01*
X337180Y333275D01*
X337139Y333275D01*
X337139Y333734D01*
X337139Y333655D02*
X337180Y333655D01*
X337180Y333497D02*
X337139Y333497D01*
X337139Y333338D02*
X337180Y333338D01*
X337180Y333234D02*
X337639Y333234D01*
X337639Y333159D01*
X337566Y332982D01*
X337431Y332847D01*
X337255Y332774D01*
X337180Y332774D01*
X337180Y333234D01*
X337180Y333180D02*
X337139Y333180D01*
X337139Y333021D02*
X337180Y333021D01*
X337180Y332862D02*
X337139Y332862D01*
X336873Y332862D02*
X336415Y332862D01*
X336420Y332864D02*
X336549Y332994D01*
X336619Y333163D01*
X336619Y333346D01*
X336549Y333515D01*
X336420Y333644D01*
X336251Y333714D01*
X336068Y333714D01*
X335899Y333644D01*
X335770Y333515D01*
X335700Y333346D01*
X335700Y333163D01*
X335770Y332994D01*
X335899Y332864D01*
X336068Y332794D01*
X336251Y332794D01*
X336420Y332864D01*
X336561Y333021D02*
X336737Y333021D01*
X336680Y333180D02*
X336619Y333180D01*
X336619Y333338D02*
X336680Y333338D01*
X336740Y333497D02*
X336557Y333497D01*
X336394Y333655D02*
X336882Y333655D01*
X336969Y333814D02*
X336298Y333814D01*
X336021Y333814D02*
X335298Y333814D01*
X335251Y333794D02*
X335420Y333864D01*
X335549Y333994D01*
X335619Y334163D01*
X335619Y334346D01*
X335549Y334515D01*
X335420Y334644D01*
X335251Y334714D01*
X335068Y334714D01*
X334899Y334644D01*
X334770Y334515D01*
X334700Y334346D01*
X334700Y334163D01*
X334770Y333994D01*
X334899Y333864D01*
X335068Y333794D01*
X335251Y333794D01*
X335251Y333714D02*
X335068Y333714D01*
X334899Y333644D01*
X334770Y333515D01*
X334700Y333346D01*
X334700Y333163D01*
X334770Y332994D01*
X334899Y332864D01*
X335068Y332794D01*
X335251Y332794D01*
X335420Y332864D01*
X335549Y332994D01*
X335619Y333163D01*
X335619Y333346D01*
X335549Y333515D01*
X335420Y333644D01*
X335251Y333714D01*
X335394Y333655D02*
X335925Y333655D01*
X335762Y333497D02*
X335557Y333497D01*
X335619Y333338D02*
X335700Y333338D01*
X335700Y333180D02*
X335619Y333180D01*
X335561Y333021D02*
X335758Y333021D01*
X335904Y332862D02*
X335415Y332862D01*
X334904Y332862D02*
X334651Y332862D01*
X334758Y333021D02*
X334493Y333021D01*
X334460Y333180D02*
X334700Y333180D01*
X334700Y333338D02*
X334460Y333338D01*
X334460Y333497D02*
X334762Y333497D01*
X334925Y333655D02*
X334460Y333655D01*
X334460Y333814D02*
X335021Y333814D01*
X334791Y333972D02*
X334460Y333972D01*
X334460Y334131D02*
X334713Y334131D01*
X334700Y334289D02*
X334460Y334289D01*
X334460Y334448D02*
X334742Y334448D01*
X334861Y334606D02*
X334460Y334606D01*
X334563Y335558D02*
X334812Y335558D01*
X334721Y335716D02*
X337020Y335716D01*
X337139Y335716D02*
X337180Y335716D01*
X337299Y335716D02*
X337598Y335716D01*
X337535Y335558D02*
X337756Y335558D01*
X337619Y335399D02*
X337915Y335399D01*
X337180Y335399D02*
X337139Y335399D01*
X337139Y335558D02*
X337180Y335558D01*
X336784Y335558D02*
X336507Y335558D01*
X336597Y335399D02*
X336700Y335399D01*
X337139Y335082D02*
X337180Y335082D01*
X337180Y334924D02*
X337139Y334924D01*
X337486Y334606D02*
X337960Y334606D01*
X337960Y334448D02*
X337599Y334448D01*
X337639Y334289D02*
X337960Y334289D01*
X337960Y334131D02*
X337628Y334131D01*
X337556Y333972D02*
X337960Y333972D01*
X337960Y333814D02*
X337350Y333814D01*
X337437Y333655D02*
X337960Y333655D01*
X337960Y333497D02*
X337579Y333497D01*
X337639Y333338D02*
X337960Y333338D01*
X337960Y333180D02*
X337639Y333180D01*
X337582Y333021D02*
X337826Y333021D01*
X337668Y332862D02*
X337446Y332862D01*
X337509Y332704D02*
X334810Y332704D01*
X335528Y333972D02*
X335791Y333972D01*
X335713Y334131D02*
X335606Y334131D01*
X335619Y334289D02*
X335700Y334289D01*
X335742Y334448D02*
X335577Y334448D01*
X335458Y334606D02*
X335861Y334606D01*
X335840Y334924D02*
X335479Y334924D01*
X335586Y335082D02*
X335733Y335082D01*
X335700Y335241D02*
X335619Y335241D01*
X335597Y335399D02*
X335722Y335399D01*
X335812Y335558D02*
X335507Y335558D01*
X336577Y334448D02*
X336720Y334448D01*
X336680Y334289D02*
X336619Y334289D01*
X336606Y334131D02*
X336691Y334131D01*
X336763Y333972D02*
X336528Y333972D01*
X335845Y328274D02*
X335474Y328274D01*
X335131Y328132D01*
X334869Y327869D01*
X334727Y327526D01*
X334727Y327155D01*
X332460Y327155D01*
X332460Y327313D02*
X334727Y327313D01*
X334727Y327155D02*
X334869Y326813D01*
X335131Y326550D01*
X335474Y326408D01*
X335845Y326408D01*
X336188Y326550D01*
X336450Y326813D01*
X336592Y327155D01*
X341660Y327155D01*
X341660Y327313D02*
X336592Y327313D01*
X336592Y327155D02*
X336592Y327526D01*
X336450Y327869D01*
X336188Y328132D01*
X335845Y328274D01*
X335867Y328265D02*
X341049Y328265D01*
X340960Y328354D02*
X341660Y327654D01*
X341660Y321854D01*
X340960Y321154D01*
X333160Y321254D01*
X332460Y321954D01*
X332460Y325661D01*
X332509Y325681D01*
X332633Y325805D01*
X332699Y325967D01*
X332699Y326054D01*
X332460Y326054D01*
X332460Y326054D01*
X332699Y326054D01*
X332699Y326142D01*
X332633Y326304D01*
X332509Y326427D01*
X332460Y326448D01*
X332460Y327654D01*
X333160Y328354D01*
X340960Y328354D01*
X341208Y328106D02*
X336213Y328106D01*
X336372Y327948D02*
X341366Y327948D01*
X341525Y327789D02*
X336484Y327789D01*
X336549Y327631D02*
X341660Y327631D01*
X341660Y327472D02*
X336592Y327472D01*
X336526Y326996D02*
X341660Y326996D01*
X341660Y326838D02*
X336461Y326838D01*
X336317Y326679D02*
X341660Y326679D01*
X341660Y326521D02*
X336117Y326521D01*
X335202Y326521D02*
X334865Y326521D01*
X334857Y326528D02*
X334685Y326599D01*
X334606Y326599D01*
X334606Y326146D01*
X334579Y326146D01*
X334579Y326599D01*
X334500Y326599D01*
X334328Y326528D01*
X334197Y326397D01*
X334126Y326225D01*
X334126Y326146D01*
X334579Y326146D01*
X334579Y326119D01*
X334126Y326119D01*
X334126Y326039D01*
X334197Y325868D01*
X334328Y325736D01*
X334500Y325665D01*
X334579Y325665D01*
X334579Y326119D01*
X334606Y326119D01*
X334606Y326146D01*
X335060Y326146D01*
X335060Y326225D01*
X334988Y326397D01*
X334857Y326528D01*
X335002Y326679D02*
X332460Y326679D01*
X332460Y326521D02*
X334321Y326521D01*
X334182Y326362D02*
X333546Y326362D01*
X333497Y326410D02*
X333343Y326474D01*
X333176Y326474D01*
X333022Y326410D01*
X332903Y326292D01*
X332840Y326138D01*
X332840Y325971D01*
X332903Y325816D01*
X333022Y325698D01*
X333176Y325634D01*
X333343Y325634D01*
X333497Y325698D01*
X333616Y325816D01*
X333679Y325971D01*
X333679Y326138D01*
X333616Y326292D01*
X333497Y326410D01*
X333652Y326204D02*
X334126Y326204D01*
X334126Y326045D02*
X333679Y326045D01*
X333645Y325887D02*
X334189Y325887D01*
X334348Y325728D02*
X333527Y325728D01*
X332992Y325728D02*
X332555Y325728D01*
X332460Y325569D02*
X334442Y325569D01*
X334504Y325595D02*
X334339Y325527D01*
X334214Y325401D01*
X334146Y325237D01*
X334146Y325059D01*
X334214Y324895D01*
X334339Y324769D01*
X334375Y324754D01*
X334339Y324740D01*
X334214Y324614D01*
X334146Y324450D01*
X334146Y324272D01*
X334214Y324107D01*
X334339Y323982D01*
X334504Y323914D01*
X334681Y323914D01*
X334846Y323982D01*
X334972Y324107D01*
X335040Y324272D01*
X335040Y324450D01*
X334972Y324614D01*
X334846Y324740D01*
X334810Y324754D01*
X334846Y324769D01*
X334972Y324895D01*
X335040Y325059D01*
X335040Y325237D01*
X334972Y325401D01*
X334846Y325527D01*
X334681Y325595D01*
X334504Y325595D01*
X334606Y325665D02*
X334685Y325665D01*
X334857Y325736D01*
X334988Y325868D01*
X335060Y326039D01*
X335060Y326119D01*
X334606Y326119D01*
X334606Y325665D01*
X334606Y325728D02*
X334579Y325728D01*
X334579Y325887D02*
X334606Y325887D01*
X334606Y326045D02*
X334579Y326045D01*
X334579Y326204D02*
X334606Y326204D01*
X334606Y326362D02*
X334579Y326362D01*
X334579Y326521D02*
X334606Y326521D01*
X334858Y326838D02*
X332460Y326838D01*
X332460Y326996D02*
X334793Y326996D01*
X334727Y327472D02*
X332460Y327472D01*
X332460Y327631D02*
X334770Y327631D01*
X334836Y327789D02*
X332594Y327789D01*
X332753Y327948D02*
X334947Y327948D01*
X335106Y328106D02*
X332911Y328106D01*
X333070Y328265D02*
X335452Y328265D01*
X335003Y326362D02*
X341660Y326362D01*
X341660Y326204D02*
X335060Y326204D01*
X335060Y326045D02*
X341660Y326045D01*
X341660Y325887D02*
X334996Y325887D01*
X334837Y325728D02*
X341660Y325728D01*
X341660Y325569D02*
X334743Y325569D01*
X334962Y325411D02*
X341660Y325411D01*
X341660Y325252D02*
X335033Y325252D01*
X335040Y325094D02*
X341660Y325094D01*
X341660Y324935D02*
X334988Y324935D01*
X334853Y324777D02*
X341660Y324777D01*
X341660Y324618D02*
X334967Y324618D01*
X335035Y324460D02*
X341660Y324460D01*
X341660Y324301D02*
X335040Y324301D01*
X334986Y324143D02*
X341660Y324143D01*
X341660Y323984D02*
X334848Y323984D01*
X334846Y323755D02*
X334681Y323823D01*
X334504Y323823D01*
X334339Y323755D01*
X334214Y323630D01*
X334146Y323465D01*
X334146Y323287D01*
X334214Y323123D01*
X334339Y322997D01*
X334504Y322929D01*
X334681Y322929D01*
X334846Y322997D01*
X334972Y323123D01*
X335040Y323287D01*
X335040Y323465D01*
X334972Y323630D01*
X334846Y323755D01*
X334934Y323667D02*
X341660Y323667D01*
X341660Y323825D02*
X332460Y323825D01*
X332460Y323667D02*
X334251Y323667D01*
X334163Y323508D02*
X332460Y323508D01*
X332460Y323350D02*
X334146Y323350D01*
X334185Y323191D02*
X332460Y323191D01*
X332460Y323033D02*
X334304Y323033D01*
X334881Y323033D02*
X335311Y323033D01*
X335474Y323100D02*
X335131Y322958D01*
X334869Y322696D01*
X334727Y322353D01*
X334727Y321982D01*
X334869Y321639D01*
X335131Y321377D01*
X335474Y321235D01*
X335845Y321235D01*
X336188Y321377D01*
X336450Y321639D01*
X336592Y321982D01*
X336592Y322353D01*
X336450Y322696D01*
X336188Y322958D01*
X335845Y323100D01*
X335474Y323100D01*
X335000Y323191D02*
X341660Y323191D01*
X341660Y323033D02*
X336008Y323033D01*
X336272Y322874D02*
X341660Y322874D01*
X341660Y322716D02*
X336431Y322716D01*
X336508Y322557D02*
X341660Y322557D01*
X341660Y322399D02*
X336573Y322399D01*
X336592Y322240D02*
X341660Y322240D01*
X341660Y322081D02*
X336592Y322081D01*
X336568Y321923D02*
X341660Y321923D01*
X341570Y321764D02*
X336502Y321764D01*
X336456Y321654D02*
X338560Y321654D01*
X338960Y321254D01*
X338960Y314954D01*
X338660Y314654D01*
X330260Y314654D01*
X329860Y315054D01*
X329860Y321254D01*
X330260Y321654D01*
X334863Y321654D01*
X334869Y321639D01*
X335131Y321377D01*
X335474Y321235D01*
X335845Y321235D01*
X336188Y321377D01*
X336450Y321639D01*
X336456Y321654D01*
X336417Y321606D02*
X341411Y321606D01*
X341253Y321447D02*
X336258Y321447D01*
X338767Y321447D01*
X338925Y321289D02*
X335975Y321289D01*
X341094Y321289D01*
X341660Y323350D02*
X335040Y323350D01*
X335022Y323508D02*
X341660Y323508D01*
X338608Y321606D02*
X336417Y321606D01*
X335344Y321289D02*
X333125Y321289D01*
X332967Y321447D02*
X335061Y321447D01*
X330789Y321447D01*
X330813Y321424D02*
X330729Y321508D01*
X330619Y321553D01*
X330500Y321553D01*
X330390Y321508D01*
X330306Y321424D01*
X330260Y321314D01*
X330260Y321195D01*
X330306Y321085D01*
X330390Y321001D01*
X330500Y320955D01*
X330619Y320955D01*
X330729Y321001D01*
X330813Y321085D01*
X330859Y321195D01*
X330859Y321314D01*
X330813Y321424D01*
X330859Y321289D02*
X335344Y321289D01*
X334902Y321606D02*
X332808Y321606D01*
X332649Y321764D02*
X334817Y321764D01*
X334751Y321923D02*
X332491Y321923D01*
X332460Y322081D02*
X334727Y322081D01*
X334727Y322240D02*
X332460Y322240D01*
X332460Y322399D02*
X334746Y322399D01*
X334811Y322557D02*
X332460Y322557D01*
X332460Y322716D02*
X334888Y322716D01*
X335047Y322874D02*
X332460Y322874D01*
X332460Y323984D02*
X334337Y323984D01*
X334199Y324143D02*
X332460Y324143D01*
X332460Y324301D02*
X334146Y324301D01*
X334150Y324460D02*
X332460Y324460D01*
X332460Y324618D02*
X334218Y324618D01*
X334332Y324777D02*
X332460Y324777D01*
X332460Y324935D02*
X334197Y324935D01*
X334146Y325094D02*
X332460Y325094D01*
X332460Y325252D02*
X334152Y325252D01*
X334223Y325411D02*
X332460Y325411D01*
X332666Y325887D02*
X332874Y325887D01*
X332840Y326045D02*
X332699Y326045D01*
X332674Y326204D02*
X332867Y326204D01*
X332973Y326362D02*
X332574Y326362D01*
X334902Y321606D02*
X330211Y321606D01*
X330330Y321447D02*
X330053Y321447D01*
X329894Y321289D02*
X330260Y321289D01*
X330287Y321130D02*
X329860Y321130D01*
X329860Y320972D02*
X330460Y320972D01*
X330659Y320972D02*
X338960Y320972D01*
X338960Y321130D02*
X330832Y321130D01*
X329860Y320813D02*
X338960Y320813D01*
X338960Y320655D02*
X329860Y320655D01*
X329860Y320496D02*
X338960Y320496D01*
X338960Y320338D02*
X329860Y320338D01*
X329860Y320179D02*
X338960Y320179D01*
X338960Y320020D02*
X329860Y320020D01*
X329860Y319862D02*
X332644Y319862D01*
X332606Y319824D02*
X332560Y319714D01*
X332560Y319595D01*
X332606Y319485D01*
X332690Y319401D01*
X332800Y319355D01*
X332919Y319355D01*
X333029Y319401D01*
X333113Y319485D01*
X333159Y319595D01*
X333159Y319714D01*
X333113Y319824D01*
X333029Y319908D01*
X332919Y319953D01*
X332800Y319953D01*
X332690Y319908D01*
X332606Y319824D01*
X332560Y319703D02*
X329860Y319703D01*
X329860Y319545D02*
X332581Y319545D01*
X332725Y319386D02*
X329860Y319386D01*
X329860Y319228D02*
X338960Y319228D01*
X338960Y319386D02*
X332994Y319386D01*
X333138Y319545D02*
X338960Y319545D01*
X338960Y319703D02*
X333159Y319703D01*
X333075Y319862D02*
X338960Y319862D01*
X338960Y319069D02*
X329860Y319069D01*
X329860Y318911D02*
X330607Y318911D01*
X330664Y318934D02*
X330488Y318861D01*
X330353Y318726D01*
X330280Y318550D01*
X330280Y318474D01*
X330739Y318474D01*
X330739Y318434D01*
X330280Y318434D01*
X330280Y318359D01*
X330353Y318182D01*
X330488Y318047D01*
X330664Y317974D01*
X330739Y317974D01*
X330739Y318434D01*
X330780Y318434D01*
X330780Y318474D01*
X331239Y318474D01*
X331239Y318550D01*
X331166Y318726D01*
X331031Y318861D01*
X330855Y318934D01*
X330780Y318934D01*
X330780Y318475D01*
X330739Y318475D01*
X330739Y318934D01*
X330664Y318934D01*
X330739Y318911D02*
X330780Y318911D01*
X330912Y318911D02*
X338960Y318911D01*
X338960Y318752D02*
X337341Y318752D01*
X337331Y318761D02*
X337155Y318834D01*
X337080Y318834D01*
X337080Y318375D01*
X337039Y318375D01*
X337039Y318834D01*
X336964Y318834D01*
X336788Y318761D01*
X336653Y318626D01*
X336580Y318450D01*
X336580Y318374D01*
X337039Y318374D01*
X337039Y318334D01*
X336580Y318334D01*
X336580Y318259D01*
X336653Y318082D01*
X336788Y317947D01*
X336964Y317874D01*
X337039Y317874D01*
X337039Y318334D01*
X337080Y318334D01*
X337080Y318374D01*
X337539Y318374D01*
X337539Y318450D01*
X337466Y318626D01*
X337331Y318761D01*
X337480Y318594D02*
X338960Y318594D01*
X338960Y318435D02*
X337539Y318435D01*
X337539Y318334D02*
X337080Y318334D01*
X337080Y317874D01*
X337155Y317874D01*
X337331Y317947D01*
X337466Y318082D01*
X337539Y318259D01*
X337539Y318334D01*
X337539Y318276D02*
X338960Y318276D01*
X338960Y318118D02*
X337481Y318118D01*
X337343Y317959D02*
X338960Y317959D01*
X338960Y317801D02*
X337184Y317801D01*
X337151Y317814D02*
X336968Y317814D01*
X336799Y317744D01*
X336670Y317615D01*
X336600Y317446D01*
X336600Y317263D01*
X336670Y317094D01*
X336799Y316964D01*
X336968Y316894D01*
X337151Y316894D01*
X337320Y316964D01*
X337449Y317094D01*
X337519Y317263D01*
X337519Y317446D01*
X337449Y317615D01*
X337320Y317744D01*
X337151Y317814D01*
X337080Y317959D02*
X337039Y317959D01*
X337039Y318118D02*
X337080Y318118D01*
X337080Y318276D02*
X337039Y318276D01*
X337039Y318435D02*
X337080Y318435D01*
X337080Y318594D02*
X337039Y318594D01*
X337039Y318752D02*
X337080Y318752D01*
X336778Y318752D02*
X334141Y318752D01*
X334131Y318761D02*
X333955Y318834D01*
X333880Y318834D01*
X333880Y318375D01*
X333839Y318375D01*
X333839Y318834D01*
X333764Y318834D01*
X333588Y318761D01*
X333453Y318626D01*
X333380Y318450D01*
X333380Y318374D01*
X333839Y318374D01*
X333839Y318334D01*
X333380Y318334D01*
X333380Y318259D01*
X333453Y318082D01*
X333588Y317947D01*
X333764Y317874D01*
X333839Y317874D01*
X333839Y318334D01*
X333880Y318334D01*
X333880Y318374D01*
X334339Y318374D01*
X334339Y318450D01*
X334266Y318626D01*
X334131Y318761D01*
X334280Y318594D02*
X336639Y318594D01*
X336580Y318435D02*
X334339Y318435D01*
X334339Y318334D02*
X333880Y318334D01*
X333880Y317874D01*
X333955Y317874D01*
X334131Y317947D01*
X334266Y318082D01*
X334339Y318259D01*
X334339Y318334D01*
X334339Y318276D02*
X336580Y318276D01*
X336638Y318118D02*
X334281Y318118D01*
X334143Y317959D02*
X336776Y317959D01*
X336936Y317801D02*
X333984Y317801D01*
X333951Y317814D02*
X333768Y317814D01*
X333599Y317744D01*
X333470Y317615D01*
X333400Y317446D01*
X333400Y317263D01*
X333470Y317094D01*
X333599Y316964D01*
X333768Y316894D01*
X333951Y316894D01*
X334120Y316964D01*
X334249Y317094D01*
X334319Y317263D01*
X334319Y317446D01*
X334249Y317615D01*
X334120Y317744D01*
X333951Y317814D01*
X333880Y317959D02*
X333839Y317959D01*
X333839Y318118D02*
X333880Y318118D01*
X333880Y318276D02*
X333839Y318276D01*
X333839Y318435D02*
X333880Y318435D01*
X333880Y318594D02*
X333839Y318594D01*
X333839Y318752D02*
X333880Y318752D01*
X333578Y318752D02*
X331141Y318752D01*
X331221Y318594D02*
X333439Y318594D01*
X333380Y318435D02*
X330780Y318435D01*
X330780Y318434D02*
X331239Y318434D01*
X331239Y318359D01*
X331166Y318182D01*
X331031Y318047D01*
X330855Y317974D01*
X330780Y317974D01*
X330780Y318434D01*
X330739Y318435D02*
X329860Y318435D01*
X329860Y318594D02*
X330298Y318594D01*
X330378Y318752D02*
X329860Y318752D01*
X329860Y318276D02*
X330314Y318276D01*
X330417Y318118D02*
X329860Y318118D01*
X329860Y317959D02*
X333576Y317959D01*
X333438Y318118D02*
X331102Y318118D01*
X331205Y318276D02*
X333380Y318276D01*
X333736Y317801D02*
X331064Y317801D01*
X331020Y317844D02*
X330851Y317914D01*
X330668Y317914D01*
X330499Y317844D01*
X330370Y317715D01*
X330300Y317546D01*
X330300Y317363D01*
X330370Y317194D01*
X330499Y317064D01*
X330668Y316994D01*
X330851Y316994D01*
X331020Y317064D01*
X331149Y317194D01*
X331219Y317363D01*
X331219Y317546D01*
X331149Y317715D01*
X331020Y317844D01*
X331180Y317642D02*
X333497Y317642D01*
X333415Y317484D02*
X331219Y317484D01*
X331204Y317325D02*
X333400Y317325D01*
X333439Y317167D02*
X331122Y317167D01*
X330884Y317008D02*
X333555Y317008D01*
X333599Y316744D02*
X333470Y316615D01*
X333400Y316446D01*
X333400Y316263D01*
X333470Y316094D01*
X333599Y315964D01*
X333768Y315894D01*
X333951Y315894D01*
X334120Y315964D01*
X334249Y316094D01*
X334319Y316263D01*
X334319Y316446D01*
X334249Y316615D01*
X334120Y316744D01*
X333951Y316814D01*
X333768Y316814D01*
X333599Y316744D01*
X333546Y316691D02*
X331159Y316691D01*
X331149Y316715D02*
X331020Y316844D01*
X330851Y316914D01*
X330668Y316914D01*
X330499Y316844D01*
X330370Y316715D01*
X330300Y316546D01*
X330300Y316363D01*
X330370Y316194D01*
X330499Y316064D01*
X330668Y315994D01*
X330851Y315994D01*
X331020Y316064D01*
X331149Y316194D01*
X331219Y316363D01*
X331219Y316546D01*
X331149Y316715D01*
X331007Y316850D02*
X338960Y316850D01*
X338960Y317008D02*
X337364Y317008D01*
X337480Y317167D02*
X338960Y317167D01*
X338960Y317325D02*
X337519Y317325D01*
X337504Y317484D02*
X338960Y317484D01*
X338960Y317642D02*
X337422Y317642D01*
X336697Y317642D02*
X334222Y317642D01*
X334304Y317484D02*
X336615Y317484D01*
X336600Y317325D02*
X334319Y317325D01*
X334280Y317167D02*
X336639Y317167D01*
X336755Y317008D02*
X334164Y317008D01*
X334173Y316691D02*
X336746Y316691D01*
X336799Y316744D02*
X336670Y316615D01*
X336600Y316446D01*
X336600Y316263D01*
X336670Y316094D01*
X336799Y315964D01*
X336968Y315894D01*
X337151Y315894D01*
X337320Y315964D01*
X337449Y316094D01*
X337519Y316263D01*
X337519Y316446D01*
X337449Y316615D01*
X337320Y316744D01*
X337151Y316814D01*
X336968Y316814D01*
X336799Y316744D01*
X336635Y316532D02*
X334284Y316532D01*
X334319Y316374D02*
X336600Y316374D01*
X336619Y316215D02*
X334300Y316215D01*
X334213Y316057D02*
X336706Y316057D01*
X336958Y315898D02*
X333961Y315898D01*
X333758Y315898D02*
X329860Y315898D01*
X329860Y315740D02*
X338960Y315740D01*
X338960Y315898D02*
X337161Y315898D01*
X337413Y316057D02*
X338960Y316057D01*
X338960Y316215D02*
X337500Y316215D01*
X337519Y316374D02*
X338960Y316374D01*
X338960Y316532D02*
X337484Y316532D01*
X337373Y316691D02*
X338960Y316691D01*
X338960Y315581D02*
X329860Y315581D01*
X329860Y315423D02*
X338960Y315423D01*
X338960Y315264D02*
X329860Y315264D01*
X329860Y315106D02*
X338960Y315106D01*
X338952Y314947D02*
X329967Y314947D01*
X330125Y314789D02*
X338794Y314789D01*
X333506Y316057D02*
X331002Y316057D01*
X331158Y316215D02*
X333419Y316215D01*
X333400Y316374D02*
X331219Y316374D01*
X331219Y316532D02*
X333435Y316532D01*
X330635Y317008D02*
X329860Y317008D01*
X329860Y316850D02*
X330512Y316850D01*
X330360Y316691D02*
X329860Y316691D01*
X329860Y316532D02*
X330300Y316532D01*
X330300Y316374D02*
X329860Y316374D01*
X329860Y316215D02*
X330361Y316215D01*
X330517Y316057D02*
X329860Y316057D01*
X329860Y317167D02*
X330397Y317167D01*
X330315Y317325D02*
X329860Y317325D01*
X329860Y317484D02*
X330300Y317484D01*
X330340Y317642D02*
X329860Y317642D01*
X329860Y317801D02*
X330456Y317801D01*
X330739Y318118D02*
X330780Y318118D01*
X330780Y318276D02*
X330739Y318276D01*
X330739Y318594D02*
X330780Y318594D01*
X330780Y318752D02*
X330739Y318752D01*
D18*
X312760Y324554D02*
X312160Y323954D01*
X312760Y324554D02*
X312760Y327354D01*
X313128Y327723D01*
X313128Y330863D01*
X314020Y331754D01*
X314460Y331754D01*
X314460Y334554D01*
X314460Y335354D01*
X314960Y335854D01*
X319960Y335854D01*
D19*
X312160Y323954D02*
X312260Y323854D01*
D20*
X312860Y323812D02*
X315960Y323812D01*
X317736Y323812D01*
X317731Y323807D02*
X317690Y323708D01*
X317690Y323691D01*
X317613Y323723D01*
X317506Y323723D01*
X317407Y323682D01*
X317331Y323607D01*
X317290Y323508D01*
X317290Y323401D01*
X317331Y323302D01*
X317407Y323226D01*
X317506Y323185D01*
X317613Y323185D01*
X317712Y323226D01*
X317788Y323302D01*
X317829Y323401D01*
X317829Y323417D01*
X317906Y323385D01*
X318013Y323385D01*
X318112Y323426D01*
X318188Y323502D01*
X318229Y323601D01*
X318229Y323617D01*
X318306Y323585D01*
X318413Y323585D01*
X318512Y323626D01*
X318588Y323702D01*
X318629Y323801D01*
X318629Y323908D01*
X318588Y324007D01*
X318512Y324082D01*
X318413Y324123D01*
X318306Y324123D01*
X318207Y324082D01*
X318131Y324007D01*
X318090Y323908D01*
X318090Y323891D01*
X318013Y323923D01*
X317906Y323923D01*
X317807Y323882D01*
X317731Y323807D01*
X317693Y323713D02*
X317638Y323713D01*
X317481Y323713D02*
X315960Y323713D01*
X314913Y323713D01*
X314980Y323685D02*
X314837Y323744D01*
X314682Y323744D01*
X314539Y323685D01*
X314429Y323575D01*
X314370Y323432D01*
X314370Y323277D01*
X314429Y323133D01*
X314539Y323024D01*
X314682Y322964D01*
X314837Y322964D01*
X314980Y323024D01*
X315090Y323133D01*
X315149Y323277D01*
X315149Y323432D01*
X315090Y323575D01*
X314980Y323685D01*
X315051Y323614D02*
X315960Y323614D01*
X317339Y323614D01*
X317294Y323516D02*
X315960Y323516D01*
X315115Y323516D01*
X315149Y323417D02*
X315960Y323417D01*
X317290Y323417D01*
X317324Y323319D02*
X315960Y323319D01*
X315149Y323319D01*
X315126Y323220D02*
X315960Y323220D01*
X317004Y323220D01*
X317005Y323221D02*
X316929Y323146D01*
X316888Y323047D01*
X316888Y322940D01*
X316929Y322841D01*
X317005Y322765D01*
X317104Y322724D01*
X317211Y322724D01*
X317310Y322765D01*
X317386Y322841D01*
X317427Y322940D01*
X317427Y323047D01*
X317386Y323146D01*
X317310Y323221D01*
X317211Y323262D01*
X317104Y323262D01*
X317005Y323221D01*
X316920Y323122D02*
X315960Y323122D01*
X315079Y323122D01*
X314979Y323023D02*
X315960Y323023D01*
X316888Y323023D01*
X316895Y322925D02*
X315960Y322925D01*
X312860Y322925D01*
X312860Y323023D02*
X314540Y323023D01*
X314441Y323122D02*
X312860Y323122D01*
X312860Y323220D02*
X314393Y323220D01*
X314370Y323319D02*
X312860Y323319D01*
X312860Y323417D02*
X314370Y323417D01*
X314404Y323516D02*
X312860Y323516D01*
X312860Y323614D02*
X314468Y323614D01*
X314606Y323713D02*
X312860Y323713D01*
X312860Y323910D02*
X315960Y323910D01*
X317874Y323910D01*
X318045Y323910D02*
X318091Y323910D01*
X318133Y324009D02*
X315960Y324009D01*
X312860Y324009D01*
X312860Y324107D02*
X315960Y324107D01*
X318267Y324107D01*
X318452Y324107D02*
X320960Y324107D01*
X320966Y324124D02*
X320925Y324025D01*
X320925Y323918D01*
X320966Y323819D01*
X321042Y323743D01*
X321141Y323702D01*
X321248Y323702D01*
X321347Y323743D01*
X321423Y323819D01*
X321464Y323918D01*
X321464Y324025D01*
X321423Y324124D01*
X321347Y324199D01*
X321248Y324240D01*
X321141Y324240D01*
X321042Y324199D01*
X320966Y324124D01*
X320925Y324009D02*
X318586Y324009D01*
X318628Y323910D02*
X320929Y323910D01*
X320974Y323812D02*
X318629Y323812D01*
X318592Y323713D02*
X321115Y323713D01*
X321274Y323713D02*
X326439Y323713D01*
X326407Y323726D02*
X326506Y323685D01*
X326613Y323685D01*
X326712Y323726D01*
X326788Y323802D01*
X326829Y323901D01*
X326829Y324008D01*
X326788Y324107D01*
X326712Y324182D01*
X326613Y324223D01*
X326506Y324223D01*
X326407Y324182D01*
X326331Y324107D01*
X326290Y324008D01*
X326290Y323901D01*
X326331Y323802D01*
X326407Y323726D01*
X326327Y323812D02*
X321415Y323812D01*
X321460Y323910D02*
X326290Y323910D01*
X326291Y324009D02*
X321464Y324009D01*
X321429Y324107D02*
X321953Y324107D01*
X321907Y324126D02*
X322006Y324085D01*
X322113Y324085D01*
X322212Y324126D01*
X322288Y324202D01*
X322329Y324301D01*
X322329Y324408D01*
X322288Y324507D01*
X322212Y324582D01*
X322113Y324623D01*
X322006Y324623D01*
X321907Y324582D01*
X321831Y324507D01*
X321790Y324408D01*
X321790Y324301D01*
X321831Y324202D01*
X321907Y324126D01*
X321830Y324206D02*
X321332Y324206D01*
X321057Y324206D02*
X315960Y324206D01*
X312860Y324206D01*
X312860Y324304D02*
X315960Y324304D01*
X321790Y324304D01*
X321790Y324403D02*
X315960Y324403D01*
X312860Y324403D01*
X312860Y324501D02*
X315960Y324501D01*
X321829Y324501D01*
X321949Y324600D02*
X315960Y324600D01*
X312860Y324600D01*
X312860Y324698D02*
X315887Y324698D01*
X315960Y324698D02*
X331560Y324698D01*
X331560Y324600D02*
X322170Y324600D01*
X322290Y324501D02*
X331560Y324501D01*
X331560Y324403D02*
X322329Y324403D01*
X322329Y324304D02*
X331560Y324304D01*
X331560Y324206D02*
X326656Y324206D01*
X326787Y324107D02*
X331560Y324107D01*
X331560Y324009D02*
X326828Y324009D01*
X326829Y323910D02*
X331560Y323910D01*
X331560Y323812D02*
X326792Y323812D01*
X326680Y323713D02*
X331560Y323713D01*
X331560Y323614D02*
X326734Y323614D01*
X326713Y323623D02*
X326606Y323623D01*
X326507Y323582D01*
X326431Y323507D01*
X326390Y323408D01*
X326390Y323301D01*
X326431Y323202D01*
X326507Y323126D01*
X326606Y323085D01*
X326713Y323085D01*
X326812Y323126D01*
X326888Y323202D01*
X326929Y323301D01*
X326929Y323408D01*
X326888Y323507D01*
X326812Y323582D01*
X326713Y323623D01*
X326585Y323614D02*
X318484Y323614D01*
X318235Y323614D02*
X318229Y323614D01*
X318193Y323516D02*
X326441Y323516D01*
X326394Y323417D02*
X318091Y323417D01*
X317795Y323319D02*
X326390Y323319D01*
X326424Y323220D02*
X317698Y323220D01*
X317421Y323220D02*
X317311Y323220D01*
X317396Y323122D02*
X326518Y323122D01*
X326801Y323122D02*
X331560Y323122D01*
X331560Y323220D02*
X326895Y323220D01*
X326929Y323319D02*
X331560Y323319D01*
X331560Y323417D02*
X326925Y323417D01*
X326878Y323516D02*
X331560Y323516D01*
X331560Y323023D02*
X317427Y323023D01*
X317420Y322925D02*
X331560Y322925D01*
X331560Y322826D02*
X317371Y322826D01*
X317219Y322728D02*
X331560Y322728D01*
X331560Y322629D02*
X315960Y322629D01*
X315036Y322629D01*
X315090Y322575D02*
X314980Y322685D01*
X314837Y322744D01*
X314682Y322744D01*
X314539Y322685D01*
X314429Y322575D01*
X314370Y322432D01*
X312860Y322432D01*
X312860Y322531D02*
X314410Y322531D01*
X314370Y322432D02*
X314370Y322277D01*
X314429Y322133D01*
X314539Y322024D01*
X314682Y321964D01*
X314837Y321964D01*
X314980Y322024D01*
X315090Y322133D01*
X315149Y322277D01*
X315149Y322432D01*
X315960Y322432D01*
X331560Y322432D01*
X331560Y322531D02*
X315960Y322531D01*
X315109Y322531D01*
X315090Y322575D02*
X315149Y322432D01*
X315149Y322333D02*
X315960Y322333D01*
X331560Y322333D01*
X331560Y322235D02*
X315960Y322235D01*
X315132Y322235D01*
X315091Y322136D02*
X315960Y322136D01*
X331560Y322136D01*
X331560Y322054D02*
X330824Y321319D01*
X330788Y321407D01*
X330712Y321482D01*
X330613Y321523D01*
X330506Y321523D01*
X330407Y321482D01*
X330331Y321407D01*
X330295Y321319D01*
X329760Y321854D01*
X329760Y327854D01*
X330360Y328454D01*
X334560Y328454D01*
X334960Y328054D01*
X334960Y327918D01*
X334894Y327852D01*
X329760Y327852D01*
X329760Y327753D02*
X334853Y327753D01*
X334812Y327655D02*
X329760Y327655D01*
X329760Y327556D02*
X334772Y327556D01*
X334757Y327521D02*
X334757Y327161D01*
X334894Y326830D01*
X334960Y326764D01*
X334960Y326383D01*
X334840Y326503D01*
X334680Y326569D01*
X334636Y326569D01*
X334636Y326176D01*
X334549Y326176D01*
X334549Y326569D01*
X334506Y326569D01*
X334345Y326503D01*
X334222Y326380D01*
X334156Y326219D01*
X334156Y326176D01*
X334549Y326176D01*
X334549Y326089D01*
X334156Y326089D01*
X334156Y326045D01*
X334222Y325885D01*
X334345Y325762D01*
X334506Y325695D01*
X334549Y325695D01*
X334549Y326089D01*
X334636Y326089D01*
X334636Y325695D01*
X334680Y325695D01*
X334840Y325762D01*
X334960Y325881D01*
X334959Y325881D01*
X334960Y325881D02*
X334960Y325352D01*
X334946Y325384D01*
X334829Y325502D01*
X334676Y325565D01*
X334510Y325565D01*
X334356Y325502D01*
X334239Y325384D01*
X334176Y325231D01*
X334176Y325065D01*
X334239Y324912D01*
X334356Y324794D01*
X334453Y324754D01*
X334356Y324714D01*
X334239Y324597D01*
X334176Y324444D01*
X334176Y324278D01*
X334239Y324124D01*
X334356Y324007D01*
X334510Y323944D01*
X334676Y323944D01*
X334829Y324007D01*
X334946Y324124D01*
X334960Y324157D01*
X334960Y323580D01*
X334946Y323613D01*
X334829Y323730D01*
X334676Y323793D01*
X334510Y323793D01*
X334356Y323730D01*
X334239Y323613D01*
X334176Y323459D01*
X334176Y323293D01*
X334239Y323140D01*
X334356Y323023D01*
X329760Y323023D01*
X329760Y322925D02*
X334960Y322925D01*
X334960Y323023D02*
X334829Y323023D01*
X334946Y323140D01*
X334960Y323173D01*
X334960Y322744D01*
X334894Y322679D01*
X334757Y322347D01*
X334757Y321988D01*
X334885Y321679D01*
X334360Y321154D01*
X330809Y321154D01*
X330829Y321201D01*
X330829Y321308D01*
X330788Y321407D01*
X330712Y321482D01*
X330613Y321523D01*
X330506Y321523D01*
X330407Y321482D01*
X330331Y321407D01*
X330290Y321308D01*
X330290Y321201D01*
X330331Y321102D01*
X330407Y321026D01*
X330495Y320990D01*
X328260Y318754D01*
X315960Y318754D01*
X315960Y329554D01*
X316460Y330054D01*
X317860Y330054D01*
X318660Y330854D01*
X318660Y332254D01*
X319560Y333154D01*
X324760Y333154D01*
X325660Y334054D01*
X325660Y335454D01*
X326460Y336254D01*
X330760Y336254D01*
X331390Y335624D01*
X331390Y335285D01*
X331329Y335285D01*
X331329Y335664D01*
X331278Y335664D01*
X331127Y335602D01*
X331012Y335487D01*
X330950Y335336D01*
X330950Y335284D01*
X331329Y335284D01*
X331329Y335224D01*
X330950Y335224D01*
X330950Y335173D01*
X331012Y335022D01*
X331127Y334907D01*
X331278Y334844D01*
X331329Y334844D01*
X331329Y335224D01*
X331390Y335224D01*
X331390Y334844D01*
X331441Y334844D01*
X331560Y334893D01*
X331592Y334907D01*
X331707Y335022D01*
X331769Y335173D01*
X331769Y335224D01*
X331560Y335224D01*
X331560Y335284D01*
X331729Y335284D01*
X332360Y334654D01*
X332360Y333654D01*
X340960Y328454D01*
X340360Y327854D01*
X336423Y327854D01*
X336171Y328106D01*
X335839Y328244D01*
X335480Y328244D01*
X335148Y328106D01*
X334896Y327854D01*
X332260Y327854D01*
X331560Y328554D01*
X331560Y329993D01*
X331592Y330007D01*
X331707Y330122D01*
X331769Y330273D01*
X331769Y330324D01*
X331560Y330324D01*
X331560Y330384D01*
X331769Y330384D01*
X331769Y330436D01*
X331707Y330587D01*
X331592Y330702D01*
X331560Y330715D01*
X331560Y332393D01*
X331592Y332407D01*
X331707Y332522D01*
X331769Y332673D01*
X331769Y332724D01*
X331560Y332724D01*
X331560Y332784D01*
X331769Y332784D01*
X331769Y332836D01*
X331707Y332987D01*
X331592Y333102D01*
X331560Y333115D01*
X331560Y334893D01*
X331560Y333115D01*
X331441Y333164D01*
X331390Y333164D01*
X331390Y332785D01*
X331329Y332785D01*
X331329Y333164D01*
X331278Y333164D01*
X331127Y333102D01*
X331012Y332987D01*
X330950Y332836D01*
X330950Y332784D01*
X331329Y332784D01*
X331329Y332724D01*
X330950Y332724D01*
X330950Y332673D01*
X331012Y332522D01*
X331127Y332407D01*
X331278Y332344D01*
X331329Y332344D01*
X331329Y332724D01*
X331390Y332724D01*
X331390Y332344D01*
X331441Y332344D01*
X331560Y332393D01*
X331560Y330715D01*
X331441Y330764D01*
X331390Y330764D01*
X331390Y330385D01*
X331329Y330385D01*
X331329Y330764D01*
X331278Y330764D01*
X331127Y330702D01*
X331012Y330587D01*
X330950Y330436D01*
X330950Y330384D01*
X331329Y330384D01*
X331329Y330324D01*
X330950Y330324D01*
X330950Y330273D01*
X331012Y330122D01*
X331127Y330007D01*
X331278Y329944D01*
X331329Y329944D01*
X331329Y330324D01*
X331390Y330324D01*
X331390Y329944D01*
X331441Y329944D01*
X331560Y329993D01*
X331560Y322054D01*
X331543Y322038D02*
X315960Y322038D01*
X314995Y322038D01*
X314842Y321742D02*
X315960Y321742D01*
X321938Y321742D01*
X321905Y321710D02*
X321864Y321611D01*
X321864Y321504D01*
X321905Y321405D01*
X321981Y321329D01*
X322033Y321308D01*
X322031Y321307D01*
X321990Y321208D01*
X321990Y321101D01*
X322031Y321002D01*
X322107Y320926D01*
X322206Y320885D01*
X322313Y320885D01*
X322412Y320926D01*
X322488Y321002D01*
X322529Y321101D01*
X322529Y321208D01*
X322488Y321307D01*
X322412Y321382D01*
X322360Y321404D01*
X322362Y321405D01*
X322403Y321504D01*
X322403Y321611D01*
X322362Y321710D01*
X322286Y321785D01*
X322187Y321826D01*
X322080Y321826D01*
X321981Y321785D01*
X321905Y321710D01*
X321878Y321644D02*
X315960Y321644D01*
X315022Y321644D01*
X314980Y321685D02*
X314837Y321744D01*
X314682Y321744D01*
X314539Y321685D01*
X314429Y321575D01*
X314370Y321432D01*
X314370Y321277D01*
X314429Y321133D01*
X314539Y321024D01*
X314682Y320964D01*
X314837Y320964D01*
X314980Y321024D01*
X315090Y321133D01*
X315149Y321277D01*
X315149Y321432D01*
X315090Y321575D01*
X314980Y321685D01*
X315103Y321545D02*
X315960Y321545D01*
X321864Y321545D01*
X321888Y321447D02*
X315960Y321447D01*
X315143Y321447D01*
X315149Y321348D02*
X315960Y321348D01*
X321962Y321348D01*
X322008Y321249D02*
X315960Y321249D01*
X315138Y321249D01*
X315097Y321151D02*
X315960Y321151D01*
X321990Y321151D01*
X322011Y321052D02*
X319242Y321052D01*
X319212Y321082D02*
X319113Y321123D01*
X319006Y321123D01*
X318907Y321082D01*
X318831Y321007D01*
X318790Y320908D01*
X318790Y320801D01*
X318831Y320702D01*
X318907Y320626D01*
X319006Y320585D01*
X319113Y320585D01*
X319212Y320626D01*
X319288Y320702D01*
X319329Y320801D01*
X319329Y320908D01*
X319288Y321007D01*
X319212Y321082D01*
X319310Y320954D02*
X322079Y320954D01*
X322440Y320954D02*
X324590Y320954D01*
X324590Y320901D02*
X324631Y320802D01*
X324707Y320726D01*
X324806Y320685D01*
X324913Y320685D01*
X325012Y320726D01*
X325088Y320802D01*
X325129Y320901D01*
X325129Y321008D01*
X325088Y321107D01*
X325012Y321182D01*
X324913Y321223D01*
X324806Y321223D01*
X324707Y321182D01*
X324631Y321107D01*
X324590Y321008D01*
X324590Y320901D01*
X324609Y320855D02*
X319329Y320855D01*
X319310Y320757D02*
X324677Y320757D01*
X324609Y321052D02*
X322508Y321052D01*
X322529Y321151D02*
X324676Y321151D01*
X325043Y321151D02*
X330311Y321151D01*
X330290Y321249D02*
X322511Y321249D01*
X322446Y321348D02*
X330307Y321348D01*
X330266Y321348D01*
X330167Y321447D02*
X330371Y321447D01*
X322379Y321447D01*
X322403Y321545D02*
X326588Y321545D01*
X326607Y321526D02*
X326706Y321485D01*
X326813Y321485D01*
X326912Y321526D01*
X326988Y321602D01*
X327010Y321655D01*
X327031Y321602D01*
X327107Y321526D01*
X327206Y321485D01*
X327313Y321485D01*
X327412Y321526D01*
X327488Y321602D01*
X327529Y321701D01*
X327529Y321808D01*
X327488Y321907D01*
X327412Y321982D01*
X327313Y322023D01*
X327206Y322023D01*
X327107Y321982D01*
X327031Y321907D01*
X327010Y321854D01*
X326988Y321907D01*
X326912Y321982D01*
X326813Y322023D01*
X326706Y322023D01*
X326607Y321982D01*
X326531Y321907D01*
X326490Y321808D01*
X326490Y321701D01*
X326531Y321602D01*
X326607Y321526D01*
X326514Y321644D02*
X322389Y321644D01*
X322329Y321742D02*
X326490Y321742D01*
X326504Y321841D02*
X315960Y321841D01*
X312860Y321841D01*
X312860Y321939D02*
X315960Y321939D01*
X326564Y321939D01*
X326955Y321939D02*
X327064Y321939D01*
X327014Y321644D02*
X327005Y321644D01*
X326931Y321545D02*
X327088Y321545D01*
X327431Y321545D02*
X331050Y321545D01*
X330952Y321447D02*
X330748Y321447D01*
X334652Y321447D01*
X334750Y321545D02*
X330069Y321545D01*
X329970Y321644D02*
X334849Y321644D01*
X334859Y321742D02*
X329872Y321742D01*
X329773Y321841D02*
X334818Y321841D01*
X334777Y321939D02*
X329760Y321939D01*
X329760Y322038D02*
X334757Y322038D01*
X334757Y322136D02*
X329760Y322136D01*
X329760Y322235D02*
X334757Y322235D01*
X334757Y322333D02*
X329760Y322333D01*
X329760Y322432D02*
X334792Y322432D01*
X334833Y322531D02*
X329760Y322531D01*
X329760Y322629D02*
X334874Y322629D01*
X334943Y322728D02*
X329760Y322728D01*
X329760Y322826D02*
X334960Y322826D01*
X334829Y323023D02*
X334676Y322959D01*
X334510Y322959D01*
X334356Y323023D01*
X334257Y323122D02*
X329760Y323122D01*
X329760Y323220D02*
X334206Y323220D01*
X334176Y323319D02*
X329760Y323319D01*
X329760Y323417D02*
X334176Y323417D01*
X334199Y323516D02*
X329760Y323516D01*
X329760Y323614D02*
X334241Y323614D01*
X334340Y323713D02*
X329760Y323713D01*
X329760Y323812D02*
X334960Y323812D01*
X334960Y323910D02*
X329760Y323910D01*
X329760Y324009D02*
X334355Y324009D01*
X334256Y324107D02*
X329760Y324107D01*
X329760Y324206D02*
X334205Y324206D01*
X334176Y324304D02*
X329760Y324304D01*
X329760Y324403D02*
X334176Y324403D01*
X334200Y324501D02*
X329760Y324501D01*
X329760Y324600D02*
X334242Y324600D01*
X334341Y324698D02*
X329760Y324698D01*
X329760Y324797D02*
X334354Y324797D01*
X334255Y324896D02*
X329760Y324896D01*
X329760Y324994D02*
X334205Y324994D01*
X334176Y325093D02*
X329760Y325093D01*
X329760Y325191D02*
X334176Y325191D01*
X334200Y325290D02*
X329760Y325290D01*
X329760Y325388D02*
X334243Y325388D01*
X334342Y325487D02*
X329760Y325487D01*
X329760Y325585D02*
X334960Y325585D01*
X334960Y325487D02*
X334844Y325487D01*
X334942Y325388D02*
X334960Y325388D01*
X334960Y325684D02*
X333384Y325684D01*
X333337Y325664D02*
X333480Y325724D01*
X333590Y325833D01*
X333649Y325977D01*
X333649Y326132D01*
X333590Y326275D01*
X334179Y326275D01*
X334156Y326177D02*
X333631Y326177D01*
X333649Y326078D02*
X334156Y326078D01*
X334183Y325980D02*
X333649Y325980D01*
X333610Y325881D02*
X334226Y325881D01*
X334324Y325782D02*
X333539Y325782D01*
X333337Y325664D02*
X333182Y325664D01*
X333039Y325724D01*
X332929Y325833D01*
X332870Y325977D01*
X332870Y326132D01*
X332929Y326275D01*
X332612Y326275D01*
X332607Y326287D02*
X332492Y326402D01*
X332341Y326464D01*
X332290Y326464D01*
X332290Y326085D01*
X332229Y326085D01*
X332229Y326464D01*
X332178Y326464D01*
X332027Y326402D01*
X331912Y326287D01*
X331850Y326136D01*
X331850Y326084D01*
X332229Y326084D01*
X332229Y326024D01*
X331850Y326024D01*
X331850Y325973D01*
X331912Y325822D01*
X332027Y325707D01*
X332178Y325644D01*
X332229Y325644D01*
X332229Y326024D01*
X332290Y326024D01*
X332290Y326084D01*
X332669Y326084D01*
X332669Y326136D01*
X332607Y326287D01*
X332653Y326177D02*
X332888Y326177D01*
X332870Y326078D02*
X332290Y326078D01*
X332290Y326024D02*
X332669Y326024D01*
X332669Y325973D01*
X332607Y325822D01*
X332492Y325707D01*
X332341Y325644D01*
X332290Y325644D01*
X332290Y326024D01*
X332290Y325980D02*
X332229Y325980D01*
X332229Y326078D02*
X329760Y326078D01*
X329760Y325980D02*
X331850Y325980D01*
X331888Y325881D02*
X329760Y325881D01*
X329760Y325782D02*
X331952Y325782D01*
X332082Y325684D02*
X329760Y325684D01*
X329760Y326177D02*
X331866Y326177D01*
X331907Y326275D02*
X329760Y326275D01*
X329760Y326374D02*
X331999Y326374D01*
X332229Y326374D02*
X332290Y326374D01*
X332290Y326275D02*
X332229Y326275D01*
X332229Y326177D02*
X332290Y326177D01*
X332290Y325881D02*
X332229Y325881D01*
X332229Y325782D02*
X332290Y325782D01*
X332290Y325684D02*
X332229Y325684D01*
X332437Y325684D02*
X333135Y325684D01*
X332980Y325782D02*
X332567Y325782D01*
X332631Y325881D02*
X332909Y325881D01*
X332870Y325980D02*
X332669Y325980D01*
X332929Y326275D02*
X333039Y326385D01*
X333182Y326444D01*
X333337Y326444D01*
X333480Y326385D01*
X333590Y326275D01*
X333492Y326374D02*
X334220Y326374D01*
X334315Y326472D02*
X329760Y326472D01*
X329760Y326571D02*
X334960Y326571D01*
X334960Y326669D02*
X329760Y326669D01*
X329760Y326768D02*
X334956Y326768D01*
X334879Y326866D02*
X329760Y326866D01*
X329760Y326965D02*
X334838Y326965D01*
X334797Y327064D02*
X329760Y327064D01*
X329760Y327162D02*
X334757Y327162D01*
X334757Y327261D02*
X329760Y327261D01*
X329760Y327359D02*
X334757Y327359D01*
X334757Y327458D02*
X329760Y327458D01*
X329856Y327950D02*
X334960Y327950D01*
X334992Y327950D02*
X332163Y327950D01*
X332065Y328049D02*
X335091Y328049D01*
X334960Y328049D02*
X329954Y328049D01*
X330053Y328147D02*
X334866Y328147D01*
X334768Y328246D02*
X330151Y328246D01*
X330250Y328345D02*
X334669Y328345D01*
X334571Y328443D02*
X330348Y328443D01*
X331560Y328443D02*
X315960Y328443D01*
X315960Y328345D02*
X331560Y328345D01*
X331560Y328246D02*
X315960Y328246D01*
X315960Y328147D02*
X331560Y328147D01*
X331560Y328049D02*
X315960Y328049D01*
X315960Y327950D02*
X331560Y327950D01*
X331560Y327852D02*
X315960Y327852D01*
X315960Y327753D02*
X331560Y327753D01*
X331560Y327655D02*
X317540Y327655D01*
X317512Y327682D02*
X317413Y327723D01*
X317306Y327723D01*
X317207Y327682D01*
X317131Y327607D01*
X317090Y327508D01*
X317090Y327401D01*
X317131Y327302D01*
X317207Y327226D01*
X317306Y327185D01*
X317413Y327185D01*
X317512Y327226D01*
X317588Y327302D01*
X317629Y327401D01*
X317629Y327508D01*
X317588Y327607D01*
X317512Y327682D01*
X317609Y327556D02*
X331560Y327556D01*
X331560Y327458D02*
X317629Y327458D01*
X317611Y327359D02*
X331560Y327359D01*
X331560Y327261D02*
X317546Y327261D01*
X317173Y327261D02*
X316834Y327261D01*
X316812Y327282D02*
X316713Y327323D01*
X316606Y327323D01*
X316507Y327282D01*
X316431Y327207D01*
X316390Y327108D01*
X316390Y327001D01*
X316431Y326902D01*
X316507Y326826D01*
X316606Y326785D01*
X316713Y326785D01*
X316725Y326790D01*
X316690Y326708D01*
X316690Y326601D01*
X316731Y326502D01*
X316807Y326426D01*
X316906Y326385D01*
X317013Y326385D01*
X317025Y326390D01*
X316990Y326308D01*
X316990Y326201D01*
X317031Y326102D01*
X317107Y326026D01*
X317206Y325985D01*
X317313Y325985D01*
X317412Y326026D01*
X317488Y326102D01*
X317529Y326201D01*
X317529Y326308D01*
X317488Y326407D01*
X317412Y326482D01*
X317313Y326523D01*
X317206Y326523D01*
X317194Y326519D01*
X317229Y326601D01*
X317229Y326708D01*
X317188Y326807D01*
X317112Y326882D01*
X317013Y326923D01*
X316906Y326923D01*
X316894Y326919D01*
X316929Y327001D01*
X316929Y327108D01*
X316888Y327207D01*
X316812Y327282D01*
X316906Y327162D02*
X323851Y327162D01*
X323832Y327154D02*
X323756Y327079D01*
X323715Y326980D01*
X323715Y326873D01*
X323756Y326774D01*
X323832Y326698D01*
X323931Y326657D01*
X324038Y326657D01*
X324137Y326698D01*
X324213Y326774D01*
X324254Y326873D01*
X324254Y326980D01*
X324213Y327079D01*
X324137Y327154D01*
X324038Y327195D01*
X323931Y327195D01*
X323832Y327154D01*
X323750Y327064D02*
X316929Y327064D01*
X316914Y326965D02*
X323715Y326965D01*
X323718Y326866D02*
X317128Y326866D01*
X317204Y326768D02*
X323324Y326768D01*
X323308Y326761D02*
X323232Y326686D01*
X323191Y326587D01*
X323191Y326480D01*
X323215Y326423D01*
X323206Y326423D01*
X323107Y326382D01*
X323031Y326307D01*
X322990Y326208D01*
X322990Y326101D01*
X323025Y326019D01*
X323013Y326023D01*
X322906Y326023D01*
X322807Y325982D01*
X322731Y325907D01*
X322690Y325808D01*
X322690Y325701D01*
X322731Y325602D01*
X322807Y325526D01*
X322906Y325485D01*
X323013Y325485D01*
X323112Y325526D01*
X323188Y325602D01*
X323229Y325701D01*
X323229Y325808D01*
X323194Y325890D01*
X323206Y325885D01*
X323313Y325885D01*
X323412Y325926D01*
X323488Y326002D01*
X323529Y326101D01*
X323529Y326208D01*
X323505Y326264D01*
X323514Y326264D01*
X323613Y326305D01*
X323689Y326381D01*
X323730Y326480D01*
X323730Y326587D01*
X323689Y326686D01*
X323613Y326761D01*
X323514Y326802D01*
X323407Y326802D01*
X323308Y326761D01*
X323226Y326669D02*
X317229Y326669D01*
X317216Y326571D02*
X323191Y326571D01*
X323195Y326472D02*
X317422Y326472D01*
X317501Y326374D02*
X323098Y326374D01*
X323018Y326275D02*
X317529Y326275D01*
X317519Y326177D02*
X322990Y326177D01*
X323000Y326078D02*
X317464Y326078D01*
X317055Y326078D02*
X315960Y326078D01*
X315960Y325980D02*
X322804Y325980D01*
X322721Y325881D02*
X315960Y325881D01*
X315960Y325782D02*
X322690Y325782D01*
X322697Y325684D02*
X315960Y325684D01*
X315960Y325585D02*
X322748Y325585D01*
X322902Y325487D02*
X315960Y325487D01*
X315960Y325388D02*
X321398Y325388D01*
X321413Y325394D02*
X321314Y325353D01*
X321238Y325278D01*
X321197Y325179D01*
X321197Y325072D01*
X321238Y324973D01*
X321314Y324897D01*
X321413Y324856D01*
X321520Y324856D01*
X321619Y324897D01*
X321695Y324973D01*
X321736Y325072D01*
X321736Y325179D01*
X321695Y325278D01*
X321619Y325353D01*
X321520Y325394D01*
X321413Y325394D01*
X321535Y325388D02*
X331560Y325388D01*
X331560Y325290D02*
X321683Y325290D01*
X321730Y325191D02*
X331560Y325191D01*
X331560Y325093D02*
X321736Y325093D01*
X321703Y324994D02*
X331560Y324994D01*
X331560Y324896D02*
X321615Y324896D01*
X321318Y324896D02*
X315960Y324896D01*
X315960Y324994D02*
X321230Y324994D01*
X321197Y325093D02*
X315960Y325093D01*
X315960Y325191D02*
X321203Y325191D01*
X321250Y325290D02*
X315960Y325290D01*
X315960Y324797D02*
X331560Y324797D01*
X331560Y325487D02*
X326317Y325487D01*
X326313Y325485D02*
X326412Y325526D01*
X326488Y325602D01*
X326529Y325701D01*
X326529Y325808D01*
X326488Y325907D01*
X326412Y325982D01*
X326405Y325985D01*
X326413Y325985D01*
X326512Y326026D01*
X326588Y326102D01*
X326629Y326201D01*
X326629Y326308D01*
X326588Y326407D01*
X326512Y326482D01*
X326413Y326523D01*
X326306Y326523D01*
X326207Y326482D01*
X326131Y326407D01*
X326090Y326308D01*
X326090Y326201D01*
X326131Y326102D01*
X326207Y326026D01*
X326214Y326023D01*
X326206Y326023D01*
X326107Y325982D01*
X326031Y325907D01*
X325990Y325808D01*
X325990Y325701D01*
X326031Y325602D01*
X326107Y325526D01*
X326206Y325485D01*
X326313Y325485D01*
X326202Y325487D02*
X323017Y325487D01*
X323171Y325585D02*
X326048Y325585D01*
X325997Y325684D02*
X323222Y325684D01*
X323229Y325782D02*
X325990Y325782D01*
X326021Y325881D02*
X323198Y325881D01*
X323465Y325980D02*
X326104Y325980D01*
X326155Y326078D02*
X323519Y326078D01*
X323529Y326177D02*
X326100Y326177D01*
X326090Y326275D02*
X323540Y326275D01*
X323681Y326374D02*
X326118Y326374D01*
X326197Y326472D02*
X323726Y326472D01*
X323730Y326571D02*
X331560Y326571D01*
X331560Y326669D02*
X324067Y326669D01*
X323902Y326669D02*
X323695Y326669D01*
X323762Y326768D02*
X323597Y326768D01*
X324207Y326768D02*
X331560Y326768D01*
X331560Y326866D02*
X324251Y326866D01*
X324254Y326965D02*
X331560Y326965D01*
X331560Y327064D02*
X324219Y327064D01*
X324119Y327162D02*
X331560Y327162D01*
X331560Y326472D02*
X326522Y326472D01*
X326601Y326374D02*
X331560Y326374D01*
X331560Y326275D02*
X326629Y326275D01*
X326619Y326177D02*
X331560Y326177D01*
X331560Y326078D02*
X326564Y326078D01*
X326415Y325980D02*
X331560Y325980D01*
X331560Y325881D02*
X326498Y325881D01*
X326529Y325782D02*
X331560Y325782D01*
X331560Y325684D02*
X326522Y325684D01*
X326471Y325585D02*
X331560Y325585D01*
X332520Y326374D02*
X333027Y326374D01*
X334549Y326374D02*
X334636Y326374D01*
X334636Y326472D02*
X334549Y326472D01*
X334549Y326275D02*
X334636Y326275D01*
X334636Y326177D02*
X334549Y326177D01*
X334549Y326078D02*
X334636Y326078D01*
X334636Y325980D02*
X334549Y325980D01*
X334549Y325881D02*
X334636Y325881D01*
X334636Y325782D02*
X334549Y325782D01*
X334861Y325782D02*
X334960Y325782D01*
X334960Y326472D02*
X334871Y326472D01*
X334757Y327521D02*
X334894Y327852D01*
X335248Y328147D02*
X331966Y328147D01*
X331868Y328246D02*
X340751Y328246D01*
X340653Y328147D02*
X336071Y328147D01*
X336228Y328049D02*
X340554Y328049D01*
X340456Y327950D02*
X336327Y327950D01*
X335392Y330007D02*
X335507Y330122D01*
X335569Y330273D01*
X335569Y330324D01*
X335190Y330324D01*
X335190Y330384D01*
X335569Y330384D01*
X335569Y330436D01*
X335507Y330587D01*
X335392Y330702D01*
X335241Y330764D01*
X335190Y330764D01*
X335190Y330385D01*
X335129Y330385D01*
X335129Y330764D01*
X335078Y330764D01*
X334927Y330702D01*
X334812Y330587D01*
X334750Y330436D01*
X334750Y330384D01*
X335129Y330384D01*
X335129Y330324D01*
X334750Y330324D01*
X334750Y330273D01*
X334812Y330122D01*
X334927Y330007D01*
X335078Y329944D01*
X335129Y329944D01*
X335129Y330324D01*
X335190Y330324D01*
X335190Y329944D01*
X335241Y329944D01*
X335392Y330007D01*
X335405Y330020D02*
X338370Y330020D01*
X338207Y330118D02*
X335503Y330118D01*
X335546Y330217D02*
X338044Y330217D01*
X337882Y330315D02*
X335569Y330315D01*
X335569Y330414D02*
X337719Y330414D01*
X337556Y330513D02*
X335538Y330513D01*
X335483Y330611D02*
X337393Y330611D01*
X337230Y330710D02*
X335373Y330710D01*
X335190Y330710D02*
X335129Y330710D01*
X335129Y330611D02*
X335190Y330611D01*
X335190Y330513D02*
X335129Y330513D01*
X335129Y330414D02*
X335190Y330414D01*
X335190Y330315D02*
X335129Y330315D01*
X335129Y330217D02*
X335190Y330217D01*
X335190Y330118D02*
X335129Y330118D01*
X335129Y330020D02*
X335190Y330020D01*
X334914Y330020D02*
X331605Y330020D01*
X331560Y329921D02*
X338533Y329921D01*
X338696Y329823D02*
X331560Y329823D01*
X322272Y329823D01*
X322288Y329807D02*
X322212Y329882D01*
X322113Y329923D01*
X322006Y329923D01*
X321907Y329882D01*
X321831Y329807D01*
X321790Y329708D01*
X321790Y329601D01*
X321831Y329502D01*
X321907Y329426D01*
X322006Y329385D01*
X322113Y329385D01*
X322212Y329426D01*
X322288Y329502D01*
X322329Y329601D01*
X322329Y329708D01*
X322288Y329807D01*
X322322Y329724D02*
X331560Y329724D01*
X338859Y329724D01*
X339022Y329626D02*
X331560Y329626D01*
X322329Y329626D01*
X322298Y329527D02*
X331560Y329527D01*
X339185Y329527D01*
X339348Y329429D02*
X331560Y329429D01*
X322214Y329429D01*
X321905Y329429D02*
X321829Y329429D01*
X321829Y329401D02*
X321788Y329302D01*
X321712Y329226D01*
X321613Y329185D01*
X321506Y329185D01*
X321407Y329226D01*
X321331Y329302D01*
X321290Y329401D01*
X321290Y329508D01*
X321331Y329607D01*
X321407Y329682D01*
X321506Y329723D01*
X321613Y329723D01*
X321712Y329682D01*
X321788Y329607D01*
X321829Y329508D01*
X321829Y329401D01*
X321799Y329330D02*
X331560Y329330D01*
X339511Y329330D01*
X339674Y329231D02*
X331560Y329231D01*
X321717Y329231D01*
X321821Y329527D02*
X321821Y329527D01*
X321790Y329626D02*
X321769Y329626D01*
X321797Y329724D02*
X316129Y329724D01*
X316031Y329626D02*
X321350Y329626D01*
X321298Y329527D02*
X315960Y329527D01*
X315960Y329429D02*
X321290Y329429D01*
X321320Y329330D02*
X315960Y329330D01*
X315960Y329231D02*
X317756Y329231D01*
X317731Y329207D02*
X317690Y329108D01*
X317690Y329001D01*
X317731Y328902D01*
X317807Y328826D01*
X317906Y328785D01*
X318013Y328785D01*
X318112Y328826D01*
X318188Y328902D01*
X318229Y329001D01*
X318229Y329108D01*
X318188Y329207D01*
X318112Y329282D01*
X318013Y329323D01*
X317906Y329323D01*
X317807Y329282D01*
X317731Y329207D01*
X317701Y329133D02*
X315960Y329133D01*
X315960Y329034D02*
X317690Y329034D01*
X317717Y328936D02*
X315960Y328936D01*
X315960Y328837D02*
X317796Y328837D01*
X318123Y328837D02*
X331560Y328837D01*
X340326Y328837D01*
X340163Y328936D02*
X331560Y328936D01*
X318202Y328936D01*
X318229Y329034D02*
X331560Y329034D01*
X340000Y329034D01*
X339837Y329133D02*
X331560Y329133D01*
X318218Y329133D01*
X318163Y329231D02*
X321402Y329231D01*
X321847Y329823D02*
X316228Y329823D01*
X316326Y329921D02*
X320519Y329921D01*
X320507Y329926D02*
X320606Y329885D01*
X320713Y329885D01*
X320812Y329926D01*
X320888Y330002D01*
X320929Y330101D01*
X320929Y330208D01*
X320888Y330307D01*
X320812Y330382D01*
X320713Y330423D01*
X320606Y330423D01*
X320528Y330391D01*
X320558Y330463D01*
X320558Y330570D01*
X320517Y330669D01*
X320441Y330744D01*
X320342Y330785D01*
X320235Y330785D01*
X320136Y330744D01*
X320060Y330669D01*
X320019Y330570D01*
X320019Y330463D01*
X320060Y330364D01*
X320136Y330288D01*
X320235Y330247D01*
X320342Y330247D01*
X320420Y330280D01*
X320390Y330208D01*
X320390Y330101D01*
X320431Y330002D01*
X320507Y329926D01*
X320424Y330020D02*
X316425Y330020D01*
X315960Y328739D02*
X331560Y328739D01*
X340489Y328739D01*
X340652Y328640D02*
X331560Y328640D01*
X315960Y328640D01*
X315960Y328542D02*
X331560Y328542D01*
X331572Y328542D02*
X340815Y328542D01*
X340948Y328443D02*
X331671Y328443D01*
X331769Y328345D02*
X340850Y328345D01*
X337067Y330808D02*
X331560Y330808D01*
X318613Y330808D01*
X318660Y330907D02*
X331560Y330907D01*
X336904Y330907D01*
X336741Y331005D02*
X335336Y331005D01*
X335380Y331024D02*
X335490Y331133D01*
X335549Y331277D01*
X335549Y331432D01*
X335490Y331575D01*
X335380Y331685D01*
X335237Y331744D01*
X335082Y331744D01*
X334939Y331685D01*
X334829Y331575D01*
X334770Y331432D01*
X334770Y331277D01*
X334829Y331133D01*
X334939Y331024D01*
X335082Y330964D01*
X335237Y330964D01*
X335380Y331024D01*
X335461Y331104D02*
X336578Y331104D01*
X336415Y331202D02*
X335519Y331202D01*
X335549Y331301D02*
X336252Y331301D01*
X336089Y331399D02*
X335549Y331399D01*
X335522Y331498D02*
X335926Y331498D01*
X335763Y331596D02*
X335469Y331596D01*
X335356Y331695D02*
X335600Y331695D01*
X335437Y331794D02*
X331560Y331794D01*
X318660Y331794D01*
X318660Y331892D02*
X331560Y331892D01*
X335274Y331892D01*
X335111Y331991D02*
X331560Y331991D01*
X318660Y331991D01*
X318660Y332089D02*
X331560Y332089D01*
X334948Y332089D01*
X334785Y332188D02*
X331560Y332188D01*
X318660Y332188D01*
X318691Y332286D02*
X331560Y332286D01*
X334622Y332286D01*
X334459Y332385D02*
X331560Y332385D01*
X331539Y332385D01*
X331390Y332385D02*
X331329Y332385D01*
X331329Y332483D02*
X331390Y332483D01*
X331390Y332582D02*
X331329Y332582D01*
X331329Y332680D02*
X331390Y332680D01*
X331329Y332779D02*
X329749Y332779D01*
X329749Y332832D02*
X329690Y332975D01*
X329580Y333085D01*
X329437Y333144D01*
X329282Y333144D01*
X329139Y333085D01*
X329029Y332975D01*
X328970Y332832D01*
X328970Y332677D01*
X329029Y332533D01*
X329139Y332424D01*
X329282Y332364D01*
X329437Y332364D01*
X329580Y332424D01*
X329690Y332533D01*
X329749Y332677D01*
X329749Y332832D01*
X329731Y332878D02*
X330967Y332878D01*
X331008Y332976D02*
X329689Y332976D01*
X329591Y333075D02*
X331100Y333075D01*
X331329Y333075D02*
X331390Y333075D01*
X331390Y332976D02*
X331329Y332976D01*
X331329Y332878D02*
X331390Y332878D01*
X331560Y332779D02*
X333807Y332779D01*
X333644Y332878D02*
X331752Y332878D01*
X331711Y332976D02*
X333481Y332976D01*
X333318Y333075D02*
X331619Y333075D01*
X331560Y333173D02*
X333155Y333173D01*
X332992Y333272D02*
X331560Y333272D01*
X324877Y333272D01*
X324975Y333370D02*
X331560Y333370D01*
X332829Y333370D01*
X332666Y333469D02*
X331560Y333469D01*
X325074Y333469D01*
X325173Y333567D02*
X331560Y333567D01*
X332503Y333567D01*
X332360Y333666D02*
X331560Y333666D01*
X325271Y333666D01*
X325370Y333764D02*
X331560Y333764D01*
X332360Y333764D01*
X332360Y333863D02*
X331560Y333863D01*
X328449Y333863D01*
X328412Y333826D02*
X328488Y333902D01*
X328529Y334001D01*
X328529Y334108D01*
X328488Y334207D01*
X328412Y334282D01*
X328313Y334323D01*
X328206Y334323D01*
X328107Y334282D01*
X328031Y334207D01*
X327990Y334108D01*
X327990Y334001D01*
X328031Y333902D01*
X328107Y333826D01*
X328206Y333785D01*
X328313Y333785D01*
X328412Y333826D01*
X328512Y333962D02*
X331560Y333962D01*
X332360Y333962D01*
X332360Y334060D02*
X331560Y334060D01*
X328529Y334060D01*
X328508Y334159D02*
X331560Y334159D01*
X332360Y334159D01*
X332360Y334257D02*
X331560Y334257D01*
X328437Y334257D01*
X328082Y334257D02*
X325660Y334257D01*
X325660Y334159D02*
X328012Y334159D01*
X327990Y334060D02*
X325660Y334060D01*
X325567Y333962D02*
X328007Y333962D01*
X328070Y333863D02*
X325468Y333863D01*
X325660Y334356D02*
X331560Y334356D01*
X332360Y334356D01*
X332360Y334454D02*
X331560Y334454D01*
X325660Y334454D01*
X325660Y334553D02*
X331560Y334553D01*
X332360Y334553D01*
X332360Y334651D02*
X331560Y334651D01*
X325660Y334651D01*
X325660Y334750D02*
X331560Y334750D01*
X332264Y334750D01*
X332165Y334848D02*
X331560Y334848D01*
X331451Y334848D01*
X331390Y334848D02*
X331329Y334848D01*
X331268Y334848D02*
X325660Y334848D01*
X325660Y334947D02*
X329115Y334947D01*
X329139Y334924D02*
X329282Y334864D01*
X329437Y334864D01*
X329580Y334924D01*
X329690Y335033D01*
X329749Y335177D01*
X329749Y335332D01*
X329690Y335475D01*
X329580Y335585D01*
X329437Y335644D01*
X329282Y335644D01*
X329139Y335585D01*
X329029Y335475D01*
X328970Y335332D01*
X328970Y335177D01*
X329029Y335033D01*
X329139Y334924D01*
X329024Y335046D02*
X325660Y335046D01*
X325660Y335144D02*
X328983Y335144D01*
X328970Y335243D02*
X325660Y335243D01*
X325660Y335341D02*
X328973Y335341D01*
X329014Y335440D02*
X325660Y335440D01*
X325743Y335538D02*
X329092Y335538D01*
X329264Y335637D02*
X325842Y335637D01*
X325941Y335735D02*
X331279Y335735D01*
X331329Y335637D02*
X331377Y335637D01*
X331390Y335538D02*
X331329Y335538D01*
X331329Y335440D02*
X331390Y335440D01*
X331390Y335341D02*
X331329Y335341D01*
X331329Y335243D02*
X329749Y335243D01*
X329746Y335341D02*
X330952Y335341D01*
X330993Y335440D02*
X329705Y335440D01*
X329627Y335538D02*
X331064Y335538D01*
X331212Y335637D02*
X329455Y335637D01*
X329736Y335144D02*
X330961Y335144D01*
X331002Y335046D02*
X329695Y335046D01*
X329604Y334947D02*
X331087Y334947D01*
X331329Y334947D02*
X331390Y334947D01*
X331390Y335046D02*
X331329Y335046D01*
X331329Y335144D02*
X331390Y335144D01*
X331560Y335243D02*
X331771Y335243D01*
X331758Y335144D02*
X331870Y335144D01*
X331968Y335046D02*
X331717Y335046D01*
X331632Y334947D02*
X332067Y334947D01*
X331180Y335834D02*
X326039Y335834D01*
X326138Y335932D02*
X331081Y335932D01*
X330983Y336031D02*
X326236Y336031D01*
X326335Y336129D02*
X330884Y336129D01*
X330786Y336228D02*
X326433Y336228D01*
X324778Y333173D02*
X331560Y333173D01*
X331769Y332680D02*
X333970Y332680D01*
X334133Y332582D02*
X331732Y332582D01*
X331668Y332483D02*
X334296Y332483D01*
X334963Y331695D02*
X331560Y331695D01*
X318660Y331695D01*
X318660Y331596D02*
X321141Y331596D01*
X321107Y331582D02*
X321031Y331507D01*
X320990Y331408D01*
X320990Y331301D01*
X318660Y331301D01*
X318660Y331399D02*
X320990Y331399D01*
X320990Y331301D02*
X321031Y331202D01*
X318660Y331202D01*
X318660Y331104D02*
X321161Y331104D01*
X321206Y331085D02*
X321313Y331085D01*
X321412Y331126D01*
X321488Y331202D01*
X331560Y331202D01*
X334800Y331202D01*
X334770Y331301D02*
X331560Y331301D01*
X321529Y331301D01*
X321488Y331202D01*
X321529Y331301D02*
X321529Y331408D01*
X321488Y331507D01*
X321412Y331582D01*
X321313Y331623D01*
X321206Y331623D01*
X321107Y331582D01*
X321028Y331498D02*
X318660Y331498D01*
X318660Y331005D02*
X331560Y331005D01*
X334983Y331005D01*
X334859Y331104D02*
X331560Y331104D01*
X321358Y331104D01*
X321206Y331085D02*
X321107Y331126D01*
X321031Y331202D01*
X321378Y331596D02*
X331560Y331596D01*
X334850Y331596D01*
X334797Y331498D02*
X331560Y331498D01*
X321491Y331498D01*
X321529Y331399D02*
X331560Y331399D01*
X334770Y331399D01*
X334946Y330710D02*
X331573Y330710D01*
X331683Y330611D02*
X334836Y330611D01*
X334781Y330513D02*
X331738Y330513D01*
X331769Y330414D02*
X334750Y330414D01*
X334750Y330315D02*
X331769Y330315D01*
X331746Y330217D02*
X334773Y330217D01*
X334816Y330118D02*
X331703Y330118D01*
X331560Y329921D02*
X322118Y329921D01*
X322001Y329921D02*
X320800Y329921D01*
X320895Y330020D02*
X329148Y330020D01*
X329139Y330024D02*
X329282Y329964D01*
X329437Y329964D01*
X329580Y330024D01*
X329690Y330133D01*
X329749Y330277D01*
X329749Y330432D01*
X329690Y330575D01*
X329580Y330685D01*
X329437Y330744D01*
X329282Y330744D01*
X329139Y330685D01*
X329029Y330575D01*
X328970Y330432D01*
X328970Y330277D01*
X329029Y330133D01*
X329139Y330024D01*
X329044Y330118D02*
X320929Y330118D01*
X320925Y330217D02*
X328994Y330217D01*
X328970Y330315D02*
X320879Y330315D01*
X320736Y330414D02*
X328970Y330414D01*
X329003Y330513D02*
X320558Y330513D01*
X320541Y330611D02*
X329065Y330611D01*
X329198Y330710D02*
X320476Y330710D01*
X320537Y330414D02*
X320583Y330414D01*
X320394Y330217D02*
X318022Y330217D01*
X318121Y330315D02*
X320109Y330315D01*
X320040Y330414D02*
X318219Y330414D01*
X318318Y330513D02*
X320019Y330513D01*
X320037Y330611D02*
X318416Y330611D01*
X318515Y330710D02*
X320101Y330710D01*
X320390Y330118D02*
X317924Y330118D01*
X318790Y332385D02*
X329232Y332385D01*
X329079Y332483D02*
X318889Y332483D01*
X318987Y332582D02*
X329009Y332582D01*
X328970Y332680D02*
X319086Y332680D01*
X319184Y332779D02*
X328970Y332779D01*
X328988Y332878D02*
X319283Y332878D01*
X319381Y332976D02*
X329030Y332976D01*
X329128Y333075D02*
X319480Y333075D01*
X317179Y327655D02*
X315960Y327655D01*
X315960Y327556D02*
X317111Y327556D01*
X317090Y327458D02*
X315960Y327458D01*
X315960Y327359D02*
X317108Y327359D01*
X316485Y327261D02*
X315960Y327261D01*
X315960Y327162D02*
X316413Y327162D01*
X316390Y327064D02*
X315960Y327064D01*
X315960Y326965D02*
X316405Y326965D01*
X316467Y326866D02*
X315960Y326866D01*
X315960Y326768D02*
X316715Y326768D01*
X316690Y326669D02*
X315960Y326669D01*
X315960Y326571D02*
X316703Y326571D01*
X316761Y326472D02*
X315960Y326472D01*
X315960Y326374D02*
X317018Y326374D01*
X316990Y326275D02*
X315960Y326275D01*
X315960Y326177D02*
X317000Y326177D01*
X315960Y324654D02*
X315960Y318786D01*
X312860Y318755D01*
X312860Y326554D01*
X314190Y325739D01*
X314190Y325701D01*
X314231Y325602D01*
X314307Y325526D01*
X314406Y325485D01*
X314513Y325485D01*
X314567Y325508D01*
X315960Y324654D01*
X315727Y324797D02*
X312860Y324797D01*
X312860Y324896D02*
X315566Y324896D01*
X315405Y324994D02*
X312860Y324994D01*
X312860Y325093D02*
X315244Y325093D01*
X315084Y325191D02*
X312860Y325191D01*
X312860Y325290D02*
X314923Y325290D01*
X314762Y325388D02*
X312860Y325388D01*
X312860Y325487D02*
X314402Y325487D01*
X314517Y325487D02*
X314601Y325487D01*
X314248Y325585D02*
X312860Y325585D01*
X312860Y325684D02*
X314197Y325684D01*
X314119Y325782D02*
X312860Y325782D01*
X312860Y325881D02*
X313958Y325881D01*
X313797Y325980D02*
X312860Y325980D01*
X312860Y326078D02*
X313637Y326078D01*
X313476Y326177D02*
X312860Y326177D01*
X312860Y326275D02*
X313315Y326275D01*
X313154Y326374D02*
X312860Y326374D01*
X312860Y326472D02*
X312993Y326472D01*
X312860Y322826D02*
X315960Y322826D01*
X316944Y322826D01*
X317096Y322728D02*
X315960Y322728D01*
X314877Y322728D01*
X314642Y322728D02*
X312860Y322728D01*
X312860Y322629D02*
X314483Y322629D01*
X314370Y322333D02*
X312860Y322333D01*
X312860Y322235D02*
X314387Y322235D01*
X314428Y322136D02*
X312860Y322136D01*
X312860Y322038D02*
X314524Y322038D01*
X314677Y321742D02*
X312860Y321742D01*
X312860Y321644D02*
X314497Y321644D01*
X314416Y321545D02*
X312860Y321545D01*
X312860Y321447D02*
X314376Y321447D01*
X314370Y321348D02*
X312860Y321348D01*
X312860Y321249D02*
X314381Y321249D01*
X314422Y321151D02*
X312860Y321151D01*
X312860Y321052D02*
X314510Y321052D01*
X314660Y320757D02*
X312860Y320757D01*
X312860Y320855D02*
X315960Y320855D01*
X316910Y320855D01*
X316890Y320808D02*
X316890Y320701D01*
X316931Y320602D01*
X317007Y320526D01*
X317106Y320485D01*
X317213Y320485D01*
X317312Y320526D01*
X317359Y320574D01*
X317407Y320526D01*
X317506Y320485D01*
X317613Y320485D01*
X317712Y320526D01*
X317759Y320574D01*
X317807Y320526D01*
X317906Y320485D01*
X318013Y320485D01*
X318112Y320526D01*
X318159Y320574D01*
X318207Y320526D01*
X318306Y320485D01*
X318413Y320485D01*
X318512Y320526D01*
X318588Y320602D01*
X318629Y320701D01*
X318629Y320808D01*
X318588Y320907D01*
X318512Y320982D01*
X318413Y321023D01*
X318306Y321023D01*
X318207Y320982D01*
X318159Y320935D01*
X318112Y320982D01*
X318013Y321023D01*
X317906Y321023D01*
X317807Y320982D01*
X317759Y320935D01*
X317712Y320982D01*
X317613Y321023D01*
X317506Y321023D01*
X317407Y320982D01*
X317359Y320935D01*
X317312Y320982D01*
X317213Y321023D01*
X317106Y321023D01*
X317007Y320982D01*
X316931Y320907D01*
X316890Y320808D01*
X316890Y320757D02*
X315960Y320757D01*
X314859Y320757D01*
X314841Y320764D02*
X314790Y320764D01*
X314790Y320385D01*
X314729Y320385D01*
X314729Y320764D01*
X314678Y320764D01*
X314527Y320702D01*
X314412Y320587D01*
X314350Y320436D01*
X314350Y320384D01*
X314729Y320384D01*
X314729Y320324D01*
X314350Y320324D01*
X314350Y320273D01*
X314412Y320122D01*
X314527Y320007D01*
X314678Y319944D01*
X314729Y319944D01*
X314729Y320324D01*
X314790Y320324D01*
X314790Y320384D01*
X315169Y320384D01*
X315169Y320436D01*
X315107Y320587D01*
X314992Y320702D01*
X314841Y320764D01*
X314790Y320757D02*
X314729Y320757D01*
X314729Y320658D02*
X314790Y320658D01*
X314790Y320560D02*
X314729Y320560D01*
X314729Y320461D02*
X314790Y320461D01*
X314790Y320363D02*
X315960Y320363D01*
X329868Y320363D01*
X329966Y320461D02*
X315960Y320461D01*
X315159Y320461D01*
X315118Y320560D02*
X315960Y320560D01*
X316974Y320560D01*
X316908Y320658D02*
X315960Y320658D01*
X315035Y320658D01*
X315169Y320324D02*
X314790Y320324D01*
X314790Y319944D01*
X314841Y319944D01*
X314992Y320007D01*
X315107Y320122D01*
X315169Y320273D01*
X315169Y320324D01*
X315166Y320264D02*
X315960Y320264D01*
X329769Y320264D01*
X329671Y320165D02*
X315960Y320165D01*
X315125Y320165D01*
X315052Y320067D02*
X315960Y320067D01*
X329572Y320067D01*
X329474Y319968D02*
X315960Y319968D01*
X314899Y319968D01*
X314790Y319968D02*
X314729Y319968D01*
X314729Y320067D02*
X314790Y320067D01*
X314790Y320165D02*
X314729Y320165D01*
X314729Y320264D02*
X314790Y320264D01*
X314729Y320363D02*
X312860Y320363D01*
X312860Y320461D02*
X314360Y320461D01*
X314401Y320560D02*
X312860Y320560D01*
X312860Y320658D02*
X314484Y320658D01*
X314353Y320264D02*
X312860Y320264D01*
X312860Y320165D02*
X314394Y320165D01*
X314467Y320067D02*
X312860Y320067D01*
X312860Y319968D02*
X314620Y319968D01*
X314682Y319744D02*
X314539Y319685D01*
X314429Y319575D01*
X314370Y319432D01*
X314370Y319277D01*
X314429Y319133D01*
X314539Y319024D01*
X314682Y318964D01*
X314837Y318964D01*
X314980Y319024D01*
X315090Y319133D01*
X315149Y319277D01*
X315149Y319432D01*
X315090Y319575D01*
X314980Y319685D01*
X314837Y319744D01*
X314682Y319744D01*
X314526Y319673D02*
X312860Y319673D01*
X312860Y319771D02*
X315960Y319771D01*
X329276Y319771D01*
X329178Y319673D02*
X315960Y319673D01*
X314993Y319673D01*
X315091Y319574D02*
X315960Y319574D01*
X322699Y319574D01*
X322707Y319582D02*
X322631Y319507D01*
X322590Y319408D01*
X322590Y319301D01*
X322631Y319202D01*
X322707Y319126D01*
X322806Y319085D01*
X322913Y319085D01*
X323012Y319126D01*
X323088Y319202D01*
X323129Y319301D01*
X323129Y319408D01*
X323088Y319507D01*
X323012Y319582D01*
X322913Y319623D01*
X322806Y319623D01*
X322707Y319582D01*
X322619Y319476D02*
X315960Y319476D01*
X315131Y319476D01*
X315149Y319377D02*
X315960Y319377D01*
X322590Y319377D01*
X322600Y319279D02*
X315960Y319279D01*
X315149Y319279D01*
X315109Y319180D02*
X315960Y319180D01*
X322653Y319180D01*
X323066Y319180D02*
X328685Y319180D01*
X328587Y319081D02*
X315960Y319081D01*
X315038Y319081D01*
X314882Y318983D02*
X315960Y318983D01*
X328488Y318983D01*
X328390Y318884D02*
X315960Y318884D01*
X312860Y318884D01*
X312860Y318786D02*
X315952Y318786D01*
X315960Y318786D02*
X328291Y318786D01*
X328232Y318786D02*
X330455Y318786D01*
X330505Y318836D02*
X330378Y318709D01*
X330310Y318544D01*
X330310Y318504D01*
X330709Y318504D01*
X330709Y318404D01*
X330310Y318404D01*
X330310Y318365D01*
X330378Y318199D01*
X330505Y318073D01*
X330670Y318004D01*
X330710Y318004D01*
X330710Y318404D01*
X330809Y318404D01*
X330809Y318004D01*
X330849Y318004D01*
X331014Y318073D01*
X331141Y318199D01*
X331209Y318365D01*
X331209Y318404D01*
X330810Y318404D01*
X330810Y318504D01*
X331209Y318504D01*
X331209Y318544D01*
X331141Y318709D01*
X331014Y318836D01*
X330849Y318904D01*
X330809Y318904D01*
X330809Y318504D01*
X330710Y318504D01*
X330710Y318904D01*
X330670Y318904D01*
X330505Y318836D01*
X330622Y318884D02*
X328160Y318884D01*
X328160Y318854D02*
X328160Y320354D01*
X328360Y320554D01*
X331160Y320554D01*
X331860Y319854D01*
X331860Y318554D01*
X331260Y317954D01*
X329860Y317954D01*
X329860Y317254D01*
X328160Y318854D01*
X328160Y318983D02*
X331860Y318983D01*
X331860Y319081D02*
X328160Y319081D01*
X328160Y319180D02*
X331860Y319180D01*
X331860Y319279D02*
X328160Y319279D01*
X328160Y319377D02*
X331860Y319377D01*
X331860Y319476D02*
X328160Y319476D01*
X328160Y319574D02*
X331860Y319574D01*
X331860Y319673D02*
X328160Y319673D01*
X328160Y319771D02*
X331860Y319771D01*
X331844Y319870D02*
X328160Y319870D01*
X328160Y319968D02*
X331745Y319968D01*
X331647Y320067D02*
X328160Y320067D01*
X328160Y320165D02*
X331548Y320165D01*
X331450Y320264D02*
X328160Y320264D01*
X328168Y320363D02*
X331351Y320363D01*
X331253Y320461D02*
X328266Y320461D01*
X329079Y319574D02*
X323020Y319574D01*
X323100Y319476D02*
X328981Y319476D01*
X328882Y319377D02*
X323129Y319377D01*
X323119Y319279D02*
X328784Y319279D01*
X328337Y318687D02*
X330369Y318687D01*
X330328Y318589D02*
X328442Y318589D01*
X328546Y318490D02*
X330709Y318490D01*
X330710Y318392D02*
X330809Y318392D01*
X330810Y318490D02*
X331795Y318490D01*
X331860Y318589D02*
X331191Y318589D01*
X331150Y318687D02*
X331860Y318687D01*
X331860Y318786D02*
X331064Y318786D01*
X330897Y318884D02*
X331860Y318884D01*
X331697Y318392D02*
X331209Y318392D01*
X331180Y318293D02*
X331598Y318293D01*
X331500Y318195D02*
X331136Y318195D01*
X331038Y318096D02*
X331401Y318096D01*
X331303Y317998D02*
X329070Y317998D01*
X328965Y318096D02*
X330481Y318096D01*
X330383Y318195D02*
X328861Y318195D01*
X328756Y318293D02*
X330339Y318293D01*
X330310Y318392D02*
X328651Y318392D01*
X328521Y318293D02*
X328361Y318293D01*
X328380Y318285D02*
X328237Y318344D01*
X328082Y318344D01*
X327939Y318285D01*
X327829Y318175D01*
X327770Y318032D01*
X327770Y317877D01*
X327829Y317733D01*
X327939Y317624D01*
X328082Y317564D01*
X328237Y317564D01*
X328380Y317624D01*
X328490Y317733D01*
X328549Y317877D01*
X328549Y318032D01*
X328490Y318175D01*
X328380Y318285D01*
X328422Y318392D02*
X316897Y318392D01*
X316960Y318454D02*
X328360Y318454D01*
X328660Y318154D01*
X328660Y314754D01*
X328509Y314604D01*
X316810Y314604D01*
X316660Y314754D01*
X316660Y318154D01*
X316960Y318454D01*
X316958Y318293D02*
X316798Y318293D01*
X316848Y318195D02*
X316700Y318195D01*
X316660Y318096D02*
X316796Y318096D01*
X316770Y318032D02*
X316770Y317877D01*
X316829Y317733D01*
X316939Y317624D01*
X317082Y317564D01*
X317237Y317564D01*
X317380Y317624D01*
X317490Y317733D01*
X317549Y317877D01*
X317549Y318032D01*
X317490Y318175D01*
X317380Y318285D01*
X317237Y318344D01*
X317082Y318344D01*
X316939Y318285D01*
X316829Y318175D01*
X316770Y318032D01*
X316770Y317998D02*
X316660Y317998D01*
X316660Y317899D02*
X316770Y317899D01*
X316801Y317800D02*
X316660Y317800D01*
X316660Y317702D02*
X316860Y317702D01*
X316988Y317603D02*
X316660Y317603D01*
X316660Y317505D02*
X328660Y317505D01*
X328660Y317603D02*
X328331Y317603D01*
X328459Y317702D02*
X328660Y317702D01*
X328660Y317800D02*
X328518Y317800D01*
X328549Y317899D02*
X328660Y317899D01*
X328660Y317998D02*
X328549Y317998D01*
X328523Y318096D02*
X328660Y318096D01*
X328619Y318195D02*
X328471Y318195D01*
X327958Y318293D02*
X327361Y318293D01*
X327380Y318285D02*
X327237Y318344D01*
X327082Y318344D01*
X326939Y318285D01*
X326829Y318175D01*
X326770Y318032D01*
X326770Y317877D01*
X326829Y317733D01*
X326939Y317624D01*
X327082Y317564D01*
X327237Y317564D01*
X327380Y317624D01*
X327490Y317733D01*
X327549Y317877D01*
X327549Y318032D01*
X327490Y318175D01*
X327380Y318285D01*
X327471Y318195D02*
X327848Y318195D01*
X327796Y318096D02*
X327523Y318096D01*
X327549Y317998D02*
X327770Y317998D01*
X327770Y317899D02*
X327549Y317899D01*
X327518Y317800D02*
X327801Y317800D01*
X327860Y317702D02*
X327459Y317702D01*
X327331Y317603D02*
X327988Y317603D01*
X328074Y317384D02*
X327916Y317319D01*
X327795Y317198D01*
X327730Y317040D01*
X327730Y316869D01*
X327795Y316711D01*
X327916Y316590D01*
X328074Y316524D01*
X328245Y316524D01*
X328403Y316590D01*
X328524Y316711D01*
X328589Y316869D01*
X328589Y317040D01*
X328524Y317198D01*
X328403Y317319D01*
X328245Y317384D01*
X328074Y317384D01*
X327905Y317308D02*
X327414Y317308D01*
X327403Y317319D02*
X327245Y317384D01*
X327074Y317384D01*
X326916Y317319D01*
X326795Y317198D01*
X326730Y317040D01*
X326730Y316869D01*
X326795Y316711D01*
X326916Y316590D01*
X327074Y316524D01*
X327245Y316524D01*
X327403Y316590D01*
X327524Y316711D01*
X327589Y316869D01*
X327589Y317040D01*
X327524Y317198D01*
X327403Y317319D01*
X327513Y317209D02*
X327806Y317209D01*
X327759Y317111D02*
X327560Y317111D01*
X327589Y317012D02*
X327730Y317012D01*
X327730Y316914D02*
X327589Y316914D01*
X327567Y316815D02*
X327752Y316815D01*
X327793Y316716D02*
X327526Y316716D01*
X327431Y316618D02*
X327888Y316618D01*
X328070Y316404D02*
X327905Y316336D01*
X327778Y316209D01*
X327710Y316044D01*
X327710Y316004D01*
X328109Y316004D01*
X328109Y315904D01*
X327710Y315904D01*
X327710Y315865D01*
X327778Y315699D01*
X327905Y315573D01*
X328070Y315504D01*
X328110Y315504D01*
X328110Y315904D01*
X328209Y315904D01*
X328209Y315504D01*
X328249Y315504D01*
X328414Y315573D01*
X328541Y315699D01*
X328609Y315865D01*
X328609Y315904D01*
X328210Y315904D01*
X328210Y316004D01*
X328609Y316004D01*
X328609Y316044D01*
X328541Y316209D01*
X328414Y316336D01*
X328249Y316404D01*
X328209Y316404D01*
X328209Y316004D01*
X328110Y316004D01*
X328110Y316404D01*
X328070Y316404D01*
X328110Y316322D02*
X328209Y316322D01*
X328209Y316224D02*
X328110Y316224D01*
X328110Y316125D02*
X328209Y316125D01*
X328209Y316027D02*
X328110Y316027D01*
X328109Y315928D02*
X327210Y315928D01*
X327210Y315904D02*
X327210Y316004D01*
X327609Y316004D01*
X327609Y316044D01*
X327541Y316209D01*
X327414Y316336D01*
X327249Y316404D01*
X327209Y316404D01*
X327209Y316004D01*
X327110Y316004D01*
X327110Y316404D01*
X327070Y316404D01*
X326905Y316336D01*
X326778Y316209D01*
X326710Y316044D01*
X326710Y316004D01*
X327109Y316004D01*
X327109Y315904D01*
X326710Y315904D01*
X326710Y315865D01*
X326778Y315699D01*
X326905Y315573D01*
X327070Y315504D01*
X327110Y315504D01*
X327110Y315904D01*
X327209Y315904D01*
X327209Y315504D01*
X327249Y315504D01*
X327414Y315573D01*
X327541Y315699D01*
X327609Y315865D01*
X327609Y315904D01*
X327210Y315904D01*
X327209Y315830D02*
X327110Y315830D01*
X327109Y315928D02*
X326210Y315928D01*
X326210Y315904D02*
X326210Y316004D01*
X326609Y316004D01*
X326609Y316044D01*
X326541Y316209D01*
X326414Y316336D01*
X326249Y316404D01*
X326209Y316404D01*
X326209Y316004D01*
X326110Y316004D01*
X326110Y316404D01*
X326070Y316404D01*
X325905Y316336D01*
X325778Y316209D01*
X325710Y316044D01*
X325710Y316004D01*
X326109Y316004D01*
X326109Y315904D01*
X325710Y315904D01*
X325710Y315865D01*
X325778Y315699D01*
X325905Y315573D01*
X326070Y315504D01*
X326110Y315504D01*
X326110Y315904D01*
X326209Y315904D01*
X326209Y315504D01*
X326249Y315504D01*
X326414Y315573D01*
X326541Y315699D01*
X326609Y315865D01*
X326609Y315904D01*
X326210Y315904D01*
X326209Y315830D02*
X326110Y315830D01*
X326109Y315928D02*
X325210Y315928D01*
X325210Y315904D02*
X325210Y316004D01*
X325609Y316004D01*
X325609Y316044D01*
X325541Y316209D01*
X325414Y316336D01*
X325249Y316404D01*
X325209Y316404D01*
X325209Y316004D01*
X325110Y316004D01*
X325110Y316404D01*
X325070Y316404D01*
X324905Y316336D01*
X324778Y316209D01*
X324710Y316044D01*
X324710Y316004D01*
X325109Y316004D01*
X325109Y315904D01*
X324710Y315904D01*
X324710Y315865D01*
X324778Y315699D01*
X324905Y315573D01*
X325070Y315504D01*
X325110Y315504D01*
X325110Y315904D01*
X325209Y315904D01*
X325209Y315504D01*
X325249Y315504D01*
X325414Y315573D01*
X325541Y315699D01*
X325609Y315865D01*
X325609Y315904D01*
X325210Y315904D01*
X325209Y315830D02*
X325110Y315830D01*
X325109Y315928D02*
X324210Y315928D01*
X324210Y315904D02*
X324210Y316004D01*
X324609Y316004D01*
X324609Y316044D01*
X324541Y316209D01*
X324414Y316336D01*
X324249Y316404D01*
X324209Y316404D01*
X324209Y316004D01*
X324110Y316004D01*
X324110Y316404D01*
X324070Y316404D01*
X323905Y316336D01*
X323778Y316209D01*
X323710Y316044D01*
X323710Y316004D01*
X324109Y316004D01*
X324109Y315904D01*
X323710Y315904D01*
X323710Y315865D01*
X323778Y315699D01*
X323905Y315573D01*
X324070Y315504D01*
X324110Y315504D01*
X324110Y315904D01*
X324209Y315904D01*
X324209Y315504D01*
X324249Y315504D01*
X324414Y315573D01*
X324541Y315699D01*
X324609Y315865D01*
X324609Y315904D01*
X324210Y315904D01*
X324209Y315830D02*
X324110Y315830D01*
X324109Y315928D02*
X323210Y315928D01*
X323210Y315904D02*
X323210Y316004D01*
X323609Y316004D01*
X323609Y316044D01*
X323541Y316209D01*
X323414Y316336D01*
X323249Y316404D01*
X323209Y316404D01*
X323209Y316004D01*
X323110Y316004D01*
X323110Y316404D01*
X323070Y316404D01*
X322905Y316336D01*
X322778Y316209D01*
X322710Y316044D01*
X322710Y316004D01*
X323109Y316004D01*
X323109Y315904D01*
X322710Y315904D01*
X322710Y315865D01*
X322778Y315699D01*
X322905Y315573D01*
X323070Y315504D01*
X323110Y315504D01*
X323110Y315904D01*
X323209Y315904D01*
X323209Y315504D01*
X323249Y315504D01*
X323414Y315573D01*
X323541Y315699D01*
X323609Y315865D01*
X323609Y315904D01*
X323210Y315904D01*
X323209Y315830D02*
X323110Y315830D01*
X323109Y315928D02*
X322210Y315928D01*
X322210Y315904D02*
X322210Y316004D01*
X322609Y316004D01*
X322609Y316044D01*
X322541Y316209D01*
X322414Y316336D01*
X322249Y316404D01*
X322209Y316404D01*
X322209Y316004D01*
X322110Y316004D01*
X322110Y316404D01*
X322070Y316404D01*
X321905Y316336D01*
X321778Y316209D01*
X321710Y316044D01*
X321710Y316004D01*
X322109Y316004D01*
X322109Y315904D01*
X321710Y315904D01*
X321710Y315865D01*
X321778Y315699D01*
X321905Y315573D01*
X322070Y315504D01*
X322110Y315504D01*
X322110Y315904D01*
X322209Y315904D01*
X322209Y315504D01*
X322249Y315504D01*
X322414Y315573D01*
X322541Y315699D01*
X322609Y315865D01*
X322609Y315904D01*
X322210Y315904D01*
X322209Y315830D02*
X322110Y315830D01*
X322109Y315928D02*
X321210Y315928D01*
X321210Y315904D02*
X321210Y316004D01*
X321609Y316004D01*
X321609Y316044D01*
X321541Y316209D01*
X321414Y316336D01*
X321249Y316404D01*
X321209Y316404D01*
X321209Y316004D01*
X321110Y316004D01*
X321110Y316404D01*
X321070Y316404D01*
X320905Y316336D01*
X320778Y316209D01*
X320710Y316044D01*
X320710Y316004D01*
X321109Y316004D01*
X321109Y315904D01*
X320710Y315904D01*
X320710Y315865D01*
X320778Y315699D01*
X320905Y315573D01*
X321070Y315504D01*
X321110Y315504D01*
X321110Y315904D01*
X321209Y315904D01*
X321209Y315504D01*
X321249Y315504D01*
X321414Y315573D01*
X321541Y315699D01*
X321609Y315865D01*
X321609Y315904D01*
X321210Y315904D01*
X321209Y315830D02*
X321110Y315830D01*
X321109Y315928D02*
X320210Y315928D01*
X320210Y315904D02*
X320210Y316004D01*
X320609Y316004D01*
X320609Y316044D01*
X320541Y316209D01*
X320414Y316336D01*
X320249Y316404D01*
X320209Y316404D01*
X320209Y316004D01*
X320110Y316004D01*
X320110Y316404D01*
X320070Y316404D01*
X319905Y316336D01*
X319778Y316209D01*
X319710Y316044D01*
X319710Y316004D01*
X320109Y316004D01*
X320109Y315904D01*
X319710Y315904D01*
X319710Y315865D01*
X319778Y315699D01*
X319905Y315573D01*
X320070Y315504D01*
X320110Y315504D01*
X320110Y315904D01*
X320209Y315904D01*
X320209Y315504D01*
X320249Y315504D01*
X320414Y315573D01*
X320541Y315699D01*
X320609Y315865D01*
X320609Y315904D01*
X320210Y315904D01*
X320209Y315830D02*
X320110Y315830D01*
X320109Y315928D02*
X319210Y315928D01*
X319210Y315904D02*
X319210Y316004D01*
X319609Y316004D01*
X319609Y316044D01*
X319541Y316209D01*
X319414Y316336D01*
X319249Y316404D01*
X319209Y316404D01*
X319209Y316004D01*
X319110Y316004D01*
X319110Y316404D01*
X319070Y316404D01*
X318905Y316336D01*
X318778Y316209D01*
X318710Y316044D01*
X318710Y316004D01*
X319109Y316004D01*
X319109Y315904D01*
X318710Y315904D01*
X318710Y315865D01*
X318778Y315699D01*
X318905Y315573D01*
X319070Y315504D01*
X319110Y315504D01*
X319110Y315904D01*
X319209Y315904D01*
X319209Y315504D01*
X319249Y315504D01*
X319414Y315573D01*
X319541Y315699D01*
X319609Y315865D01*
X319609Y315904D01*
X319210Y315904D01*
X319209Y315830D02*
X319110Y315830D01*
X319109Y315928D02*
X318210Y315928D01*
X318210Y315904D02*
X318210Y316004D01*
X318609Y316004D01*
X318609Y316044D01*
X318541Y316209D01*
X318414Y316336D01*
X318249Y316404D01*
X318209Y316404D01*
X318209Y316004D01*
X318110Y316004D01*
X318110Y316404D01*
X318070Y316404D01*
X317905Y316336D01*
X317778Y316209D01*
X317710Y316044D01*
X317710Y316004D01*
X318109Y316004D01*
X318109Y315904D01*
X317710Y315904D01*
X317710Y315865D01*
X317778Y315699D01*
X317905Y315573D01*
X318070Y315504D01*
X318110Y315504D01*
X318110Y315904D01*
X318209Y315904D01*
X318209Y315504D01*
X318249Y315504D01*
X318414Y315573D01*
X318541Y315699D01*
X318609Y315865D01*
X318609Y315904D01*
X318210Y315904D01*
X318209Y315830D02*
X318110Y315830D01*
X318109Y315928D02*
X317210Y315928D01*
X317210Y315904D02*
X317210Y316004D01*
X317609Y316004D01*
X317609Y316044D01*
X317541Y316209D01*
X317414Y316336D01*
X317249Y316404D01*
X317209Y316404D01*
X317209Y316004D01*
X317110Y316004D01*
X317110Y316404D01*
X317070Y316404D01*
X316905Y316336D01*
X316778Y316209D01*
X316710Y316044D01*
X316710Y316004D01*
X317109Y316004D01*
X317109Y315904D01*
X316710Y315904D01*
X316710Y315865D01*
X316778Y315699D01*
X316905Y315573D01*
X317070Y315504D01*
X317110Y315504D01*
X317110Y315904D01*
X317209Y315904D01*
X317209Y315504D01*
X317249Y315504D01*
X317414Y315573D01*
X317541Y315699D01*
X317609Y315865D01*
X317609Y315904D01*
X317210Y315904D01*
X317209Y315830D02*
X317110Y315830D01*
X317109Y315928D02*
X316660Y315928D01*
X316660Y315830D02*
X316724Y315830D01*
X316765Y315731D02*
X316660Y315731D01*
X316660Y315632D02*
X316845Y315632D01*
X316999Y315534D02*
X316660Y315534D01*
X316660Y315435D02*
X328660Y315435D01*
X328660Y315337D02*
X316660Y315337D01*
X316660Y315238D02*
X328660Y315238D01*
X328660Y315140D02*
X316660Y315140D01*
X316660Y315041D02*
X328660Y315041D01*
X328660Y314943D02*
X316660Y314943D01*
X316660Y314844D02*
X328660Y314844D01*
X328651Y314746D02*
X316668Y314746D01*
X316767Y314647D02*
X328552Y314647D01*
X328660Y315534D02*
X328320Y315534D01*
X328209Y315534D02*
X328110Y315534D01*
X328110Y315632D02*
X328209Y315632D01*
X328209Y315731D02*
X328110Y315731D01*
X328110Y315830D02*
X328209Y315830D01*
X328210Y315928D02*
X328660Y315928D01*
X328660Y315830D02*
X328595Y315830D01*
X328554Y315731D02*
X328660Y315731D01*
X328660Y315632D02*
X328474Y315632D01*
X328609Y316027D02*
X328660Y316027D01*
X328660Y316125D02*
X328576Y316125D01*
X328526Y316224D02*
X328660Y316224D01*
X328660Y316322D02*
X328428Y316322D01*
X328660Y316421D02*
X316660Y316421D01*
X316660Y316519D02*
X328660Y316519D01*
X328660Y316618D02*
X328431Y316618D01*
X328526Y316716D02*
X328660Y316716D01*
X328660Y316815D02*
X328567Y316815D01*
X328589Y316914D02*
X328660Y316914D01*
X328660Y317012D02*
X328589Y317012D01*
X328560Y317111D02*
X328660Y317111D01*
X328660Y317209D02*
X328513Y317209D01*
X328414Y317308D02*
X328660Y317308D01*
X328660Y317406D02*
X316660Y317406D01*
X316660Y317308D02*
X316905Y317308D01*
X316916Y317319D02*
X316795Y317198D01*
X316730Y317040D01*
X316730Y316869D01*
X316795Y316711D01*
X316916Y316590D01*
X317074Y316524D01*
X317245Y316524D01*
X317403Y316590D01*
X317524Y316711D01*
X317589Y316869D01*
X317589Y317040D01*
X317524Y317198D01*
X317403Y317319D01*
X317245Y317384D01*
X317074Y317384D01*
X316916Y317319D01*
X316806Y317209D02*
X316660Y317209D01*
X316660Y317111D02*
X316759Y317111D01*
X316730Y317012D02*
X316660Y317012D01*
X316660Y316914D02*
X316730Y316914D01*
X316752Y316815D02*
X316660Y316815D01*
X316660Y316716D02*
X316793Y316716D01*
X316888Y316618D02*
X316660Y316618D01*
X316660Y316322D02*
X316891Y316322D01*
X316793Y316224D02*
X316660Y316224D01*
X316660Y316125D02*
X316743Y316125D01*
X316710Y316027D02*
X316660Y316027D01*
X317110Y316027D02*
X317209Y316027D01*
X317209Y316125D02*
X317110Y316125D01*
X317110Y316224D02*
X317209Y316224D01*
X317209Y316322D02*
X317110Y316322D01*
X317428Y316322D02*
X317891Y316322D01*
X317793Y316224D02*
X317526Y316224D01*
X317576Y316125D02*
X317743Y316125D01*
X317710Y316027D02*
X317609Y316027D01*
X317595Y315830D02*
X317724Y315830D01*
X317765Y315731D02*
X317554Y315731D01*
X317474Y315632D02*
X317845Y315632D01*
X317999Y315534D02*
X317320Y315534D01*
X317209Y315534D02*
X317110Y315534D01*
X317110Y315632D02*
X317209Y315632D01*
X317209Y315731D02*
X317110Y315731D01*
X317431Y316618D02*
X317888Y316618D01*
X317916Y316590D02*
X318074Y316524D01*
X318245Y316524D01*
X318403Y316590D01*
X318524Y316711D01*
X318589Y316869D01*
X318589Y317040D01*
X318524Y317198D01*
X318403Y317319D01*
X318245Y317384D01*
X318074Y317384D01*
X317916Y317319D01*
X317795Y317198D01*
X317730Y317040D01*
X317730Y316869D01*
X317795Y316711D01*
X317916Y316590D01*
X317793Y316716D02*
X317526Y316716D01*
X317567Y316815D02*
X317752Y316815D01*
X317730Y316914D02*
X317589Y316914D01*
X317589Y317012D02*
X317730Y317012D01*
X317759Y317111D02*
X317560Y317111D01*
X317513Y317209D02*
X317806Y317209D01*
X317905Y317308D02*
X317414Y317308D01*
X317331Y317603D02*
X317988Y317603D01*
X317939Y317624D02*
X318082Y317564D01*
X318237Y317564D01*
X318380Y317624D01*
X318490Y317733D01*
X318549Y317877D01*
X318549Y318032D01*
X318490Y318175D01*
X318380Y318285D01*
X318237Y318344D01*
X318082Y318344D01*
X317939Y318285D01*
X317829Y318175D01*
X317770Y318032D01*
X317770Y317877D01*
X317829Y317733D01*
X317939Y317624D01*
X317860Y317702D02*
X317459Y317702D01*
X317518Y317800D02*
X317801Y317800D01*
X317770Y317899D02*
X317549Y317899D01*
X317549Y317998D02*
X317770Y317998D01*
X317796Y318096D02*
X317523Y318096D01*
X317471Y318195D02*
X317848Y318195D01*
X317958Y318293D02*
X317361Y318293D01*
X318361Y318293D02*
X318958Y318293D01*
X318939Y318285D02*
X318829Y318175D01*
X318770Y318032D01*
X318770Y317877D01*
X318829Y317733D01*
X318939Y317624D01*
X319082Y317564D01*
X319237Y317564D01*
X319380Y317624D01*
X319490Y317733D01*
X319549Y317877D01*
X319549Y318032D01*
X319490Y318175D01*
X319380Y318285D01*
X319237Y318344D01*
X319082Y318344D01*
X318939Y318285D01*
X318848Y318195D02*
X318471Y318195D01*
X318523Y318096D02*
X318796Y318096D01*
X318770Y317998D02*
X318549Y317998D01*
X318549Y317899D02*
X318770Y317899D01*
X318801Y317800D02*
X318518Y317800D01*
X318459Y317702D02*
X318860Y317702D01*
X318988Y317603D02*
X318331Y317603D01*
X318414Y317308D02*
X318905Y317308D01*
X318916Y317319D02*
X318795Y317198D01*
X318730Y317040D01*
X318730Y316869D01*
X318795Y316711D01*
X318916Y316590D01*
X319074Y316524D01*
X319245Y316524D01*
X319403Y316590D01*
X319524Y316711D01*
X319589Y316869D01*
X319589Y317040D01*
X319524Y317198D01*
X319403Y317319D01*
X319245Y317384D01*
X319074Y317384D01*
X318916Y317319D01*
X318806Y317209D02*
X318513Y317209D01*
X318560Y317111D02*
X318759Y317111D01*
X318730Y317012D02*
X318589Y317012D01*
X318589Y316914D02*
X318730Y316914D01*
X318752Y316815D02*
X318567Y316815D01*
X318526Y316716D02*
X318793Y316716D01*
X318888Y316618D02*
X318431Y316618D01*
X318428Y316322D02*
X318891Y316322D01*
X318793Y316224D02*
X318526Y316224D01*
X318576Y316125D02*
X318743Y316125D01*
X318710Y316027D02*
X318609Y316027D01*
X318595Y315830D02*
X318724Y315830D01*
X318765Y315731D02*
X318554Y315731D01*
X318474Y315632D02*
X318845Y315632D01*
X318999Y315534D02*
X318320Y315534D01*
X318209Y315534D02*
X318110Y315534D01*
X318110Y315632D02*
X318209Y315632D01*
X318209Y315731D02*
X318110Y315731D01*
X318110Y316027D02*
X318209Y316027D01*
X318209Y316125D02*
X318110Y316125D01*
X318110Y316224D02*
X318209Y316224D01*
X318209Y316322D02*
X318110Y316322D01*
X319110Y316322D02*
X319209Y316322D01*
X319209Y316224D02*
X319110Y316224D01*
X319110Y316125D02*
X319209Y316125D01*
X319209Y316027D02*
X319110Y316027D01*
X319110Y315731D02*
X319209Y315731D01*
X319209Y315632D02*
X319110Y315632D01*
X319110Y315534D02*
X319209Y315534D01*
X319320Y315534D02*
X319999Y315534D01*
X320110Y315534D02*
X320209Y315534D01*
X320209Y315632D02*
X320110Y315632D01*
X320110Y315731D02*
X320209Y315731D01*
X320320Y315534D02*
X320999Y315534D01*
X321110Y315534D02*
X321209Y315534D01*
X321209Y315632D02*
X321110Y315632D01*
X321110Y315731D02*
X321209Y315731D01*
X321320Y315534D02*
X321999Y315534D01*
X322110Y315534D02*
X322209Y315534D01*
X322209Y315632D02*
X322110Y315632D01*
X322110Y315731D02*
X322209Y315731D01*
X322320Y315534D02*
X322999Y315534D01*
X323110Y315534D02*
X323209Y315534D01*
X323209Y315632D02*
X323110Y315632D01*
X323110Y315731D02*
X323209Y315731D01*
X323320Y315534D02*
X323999Y315534D01*
X324110Y315534D02*
X324209Y315534D01*
X324209Y315632D02*
X324110Y315632D01*
X324110Y315731D02*
X324209Y315731D01*
X324320Y315534D02*
X324999Y315534D01*
X325110Y315534D02*
X325209Y315534D01*
X325209Y315632D02*
X325110Y315632D01*
X325110Y315731D02*
X325209Y315731D01*
X325320Y315534D02*
X325999Y315534D01*
X326110Y315534D02*
X326209Y315534D01*
X326209Y315632D02*
X326110Y315632D01*
X326110Y315731D02*
X326209Y315731D01*
X326320Y315534D02*
X326999Y315534D01*
X327110Y315534D02*
X327209Y315534D01*
X327209Y315632D02*
X327110Y315632D01*
X327110Y315731D02*
X327209Y315731D01*
X327320Y315534D02*
X327999Y315534D01*
X327845Y315632D02*
X327474Y315632D01*
X327554Y315731D02*
X327765Y315731D01*
X327724Y315830D02*
X327595Y315830D01*
X327609Y316027D02*
X327710Y316027D01*
X327743Y316125D02*
X327576Y316125D01*
X327526Y316224D02*
X327793Y316224D01*
X327891Y316322D02*
X327428Y316322D01*
X327209Y316322D02*
X327110Y316322D01*
X327110Y316224D02*
X327209Y316224D01*
X327209Y316125D02*
X327110Y316125D01*
X327110Y316027D02*
X327209Y316027D01*
X326891Y316322D02*
X326428Y316322D01*
X326526Y316224D02*
X326793Y316224D01*
X326743Y316125D02*
X326576Y316125D01*
X326609Y316027D02*
X326710Y316027D01*
X326724Y315830D02*
X326595Y315830D01*
X326554Y315731D02*
X326765Y315731D01*
X326845Y315632D02*
X326474Y315632D01*
X326209Y316027D02*
X326110Y316027D01*
X326110Y316125D02*
X326209Y316125D01*
X326209Y316224D02*
X326110Y316224D01*
X326110Y316322D02*
X326209Y316322D01*
X326245Y316524D02*
X326403Y316590D01*
X326524Y316711D01*
X326589Y316869D01*
X326589Y317040D01*
X326524Y317198D01*
X326403Y317319D01*
X326245Y317384D01*
X326074Y317384D01*
X325916Y317319D01*
X325795Y317198D01*
X325730Y317040D01*
X325730Y316869D01*
X325795Y316711D01*
X325916Y316590D01*
X326074Y316524D01*
X326245Y316524D01*
X326431Y316618D02*
X326888Y316618D01*
X326793Y316716D02*
X326526Y316716D01*
X326567Y316815D02*
X326752Y316815D01*
X326730Y316914D02*
X326589Y316914D01*
X326589Y317012D02*
X326730Y317012D01*
X326759Y317111D02*
X326560Y317111D01*
X326513Y317209D02*
X326806Y317209D01*
X326905Y317308D02*
X326414Y317308D01*
X326331Y317603D02*
X326988Y317603D01*
X326860Y317702D02*
X326459Y317702D01*
X326490Y317733D02*
X326549Y317877D01*
X326549Y318032D01*
X326490Y318175D01*
X326380Y318285D01*
X326237Y318344D01*
X326082Y318344D01*
X325939Y318285D01*
X325829Y318175D01*
X325770Y318032D01*
X325770Y317877D01*
X325829Y317733D01*
X325939Y317624D01*
X326082Y317564D01*
X326237Y317564D01*
X326380Y317624D01*
X326490Y317733D01*
X326518Y317800D02*
X326801Y317800D01*
X326770Y317899D02*
X326549Y317899D01*
X326549Y317998D02*
X326770Y317998D01*
X326796Y318096D02*
X326523Y318096D01*
X326471Y318195D02*
X326848Y318195D01*
X326958Y318293D02*
X326361Y318293D01*
X325958Y318293D02*
X325361Y318293D01*
X325380Y318285D02*
X325237Y318344D01*
X325082Y318344D01*
X324939Y318285D01*
X324829Y318175D01*
X324770Y318032D01*
X324770Y317877D01*
X324829Y317733D01*
X324939Y317624D01*
X325082Y317564D01*
X325237Y317564D01*
X325380Y317624D01*
X325490Y317733D01*
X325549Y317877D01*
X325549Y318032D01*
X325490Y318175D01*
X325380Y318285D01*
X325471Y318195D02*
X325848Y318195D01*
X325796Y318096D02*
X325523Y318096D01*
X325549Y317998D02*
X325770Y317998D01*
X325770Y317899D02*
X325549Y317899D01*
X325518Y317800D02*
X325801Y317800D01*
X325860Y317702D02*
X325459Y317702D01*
X325331Y317603D02*
X325988Y317603D01*
X325905Y317308D02*
X325414Y317308D01*
X325403Y317319D02*
X325245Y317384D01*
X325074Y317384D01*
X324916Y317319D01*
X324795Y317198D01*
X324730Y317040D01*
X324730Y316869D01*
X324795Y316711D01*
X324916Y316590D01*
X325074Y316524D01*
X325245Y316524D01*
X325403Y316590D01*
X325524Y316711D01*
X325589Y316869D01*
X325589Y317040D01*
X325524Y317198D01*
X325403Y317319D01*
X325513Y317209D02*
X325806Y317209D01*
X325759Y317111D02*
X325560Y317111D01*
X325589Y317012D02*
X325730Y317012D01*
X325730Y316914D02*
X325589Y316914D01*
X325567Y316815D02*
X325752Y316815D01*
X325793Y316716D02*
X325526Y316716D01*
X325431Y316618D02*
X325888Y316618D01*
X325891Y316322D02*
X325428Y316322D01*
X325526Y316224D02*
X325793Y316224D01*
X325743Y316125D02*
X325576Y316125D01*
X325609Y316027D02*
X325710Y316027D01*
X325724Y315830D02*
X325595Y315830D01*
X325554Y315731D02*
X325765Y315731D01*
X325845Y315632D02*
X325474Y315632D01*
X325209Y316027D02*
X325110Y316027D01*
X325110Y316125D02*
X325209Y316125D01*
X325209Y316224D02*
X325110Y316224D01*
X325110Y316322D02*
X325209Y316322D01*
X324891Y316322D02*
X324428Y316322D01*
X324526Y316224D02*
X324793Y316224D01*
X324743Y316125D02*
X324576Y316125D01*
X324609Y316027D02*
X324710Y316027D01*
X324724Y315830D02*
X324595Y315830D01*
X324554Y315731D02*
X324765Y315731D01*
X324845Y315632D02*
X324474Y315632D01*
X324209Y316027D02*
X324110Y316027D01*
X324110Y316125D02*
X324209Y316125D01*
X324209Y316224D02*
X324110Y316224D01*
X324110Y316322D02*
X324209Y316322D01*
X324245Y316524D02*
X324403Y316590D01*
X324524Y316711D01*
X324589Y316869D01*
X324589Y317040D01*
X324524Y317198D01*
X324403Y317319D01*
X324245Y317384D01*
X324074Y317384D01*
X323916Y317319D01*
X323795Y317198D01*
X323730Y317040D01*
X323730Y316869D01*
X323795Y316711D01*
X323916Y316590D01*
X324074Y316524D01*
X324245Y316524D01*
X324431Y316618D02*
X324888Y316618D01*
X324793Y316716D02*
X324526Y316716D01*
X324567Y316815D02*
X324752Y316815D01*
X324730Y316914D02*
X324589Y316914D01*
X324589Y317012D02*
X324730Y317012D01*
X324759Y317111D02*
X324560Y317111D01*
X324513Y317209D02*
X324806Y317209D01*
X324905Y317308D02*
X324414Y317308D01*
X324331Y317603D02*
X324988Y317603D01*
X324860Y317702D02*
X324459Y317702D01*
X324490Y317733D02*
X324549Y317877D01*
X324549Y318032D01*
X324490Y318175D01*
X324380Y318285D01*
X324237Y318344D01*
X324082Y318344D01*
X323939Y318285D01*
X323829Y318175D01*
X323770Y318032D01*
X323770Y317877D01*
X323829Y317733D01*
X323939Y317624D01*
X324082Y317564D01*
X324237Y317564D01*
X324380Y317624D01*
X324490Y317733D01*
X324518Y317800D02*
X324801Y317800D01*
X324770Y317899D02*
X324549Y317899D01*
X324549Y317998D02*
X324770Y317998D01*
X324796Y318096D02*
X324523Y318096D01*
X324471Y318195D02*
X324848Y318195D01*
X324958Y318293D02*
X324361Y318293D01*
X323958Y318293D02*
X323361Y318293D01*
X323380Y318285D02*
X323237Y318344D01*
X323082Y318344D01*
X322939Y318285D01*
X322829Y318175D01*
X322770Y318032D01*
X322770Y317877D01*
X322829Y317733D01*
X322939Y317624D01*
X323082Y317564D01*
X323237Y317564D01*
X323380Y317624D01*
X323490Y317733D01*
X323549Y317877D01*
X323549Y318032D01*
X323490Y318175D01*
X323380Y318285D01*
X323471Y318195D02*
X323848Y318195D01*
X323796Y318096D02*
X323523Y318096D01*
X323549Y317998D02*
X323770Y317998D01*
X323770Y317899D02*
X323549Y317899D01*
X323518Y317800D02*
X323801Y317800D01*
X323860Y317702D02*
X323459Y317702D01*
X323331Y317603D02*
X323988Y317603D01*
X323905Y317308D02*
X323414Y317308D01*
X323403Y317319D02*
X323245Y317384D01*
X323074Y317384D01*
X322916Y317319D01*
X322795Y317198D01*
X322730Y317040D01*
X322730Y316869D01*
X322795Y316711D01*
X322916Y316590D01*
X323074Y316524D01*
X323245Y316524D01*
X323403Y316590D01*
X323524Y316711D01*
X323589Y316869D01*
X323589Y317040D01*
X323524Y317198D01*
X323403Y317319D01*
X323513Y317209D02*
X323806Y317209D01*
X323759Y317111D02*
X323560Y317111D01*
X323589Y317012D02*
X323730Y317012D01*
X323730Y316914D02*
X323589Y316914D01*
X323567Y316815D02*
X323752Y316815D01*
X323793Y316716D02*
X323526Y316716D01*
X323431Y316618D02*
X323888Y316618D01*
X323891Y316322D02*
X323428Y316322D01*
X323526Y316224D02*
X323793Y316224D01*
X323743Y316125D02*
X323576Y316125D01*
X323609Y316027D02*
X323710Y316027D01*
X323724Y315830D02*
X323595Y315830D01*
X323554Y315731D02*
X323765Y315731D01*
X323845Y315632D02*
X323474Y315632D01*
X323209Y316027D02*
X323110Y316027D01*
X323110Y316125D02*
X323209Y316125D01*
X323209Y316224D02*
X323110Y316224D01*
X323110Y316322D02*
X323209Y316322D01*
X322891Y316322D02*
X322428Y316322D01*
X322526Y316224D02*
X322793Y316224D01*
X322743Y316125D02*
X322576Y316125D01*
X322609Y316027D02*
X322710Y316027D01*
X322724Y315830D02*
X322595Y315830D01*
X322554Y315731D02*
X322765Y315731D01*
X322845Y315632D02*
X322474Y315632D01*
X322209Y316027D02*
X322110Y316027D01*
X322110Y316125D02*
X322209Y316125D01*
X322209Y316224D02*
X322110Y316224D01*
X322110Y316322D02*
X322209Y316322D01*
X322245Y316524D02*
X322403Y316590D01*
X322524Y316711D01*
X322589Y316869D01*
X322589Y317040D01*
X322524Y317198D01*
X322403Y317319D01*
X322245Y317384D01*
X322074Y317384D01*
X321916Y317319D01*
X321795Y317198D01*
X321730Y317040D01*
X321730Y316869D01*
X321795Y316711D01*
X321916Y316590D01*
X322074Y316524D01*
X322245Y316524D01*
X322431Y316618D02*
X322888Y316618D01*
X322793Y316716D02*
X322526Y316716D01*
X322567Y316815D02*
X322752Y316815D01*
X322730Y316914D02*
X322589Y316914D01*
X322589Y317012D02*
X322730Y317012D01*
X322759Y317111D02*
X322560Y317111D01*
X322513Y317209D02*
X322806Y317209D01*
X322905Y317308D02*
X322414Y317308D01*
X322331Y317603D02*
X322988Y317603D01*
X322860Y317702D02*
X322459Y317702D01*
X322490Y317733D02*
X322549Y317877D01*
X322549Y318032D01*
X322490Y318175D01*
X322380Y318285D01*
X322237Y318344D01*
X322082Y318344D01*
X321939Y318285D01*
X321829Y318175D01*
X321770Y318032D01*
X321770Y317877D01*
X321829Y317733D01*
X321939Y317624D01*
X322082Y317564D01*
X322237Y317564D01*
X322380Y317624D01*
X322490Y317733D01*
X322518Y317800D02*
X322801Y317800D01*
X322770Y317899D02*
X322549Y317899D01*
X322549Y317998D02*
X322770Y317998D01*
X322796Y318096D02*
X322523Y318096D01*
X322471Y318195D02*
X322848Y318195D01*
X322958Y318293D02*
X322361Y318293D01*
X321958Y318293D02*
X321361Y318293D01*
X321380Y318285D02*
X321237Y318344D01*
X321082Y318344D01*
X320939Y318285D01*
X320829Y318175D01*
X320770Y318032D01*
X320770Y317877D01*
X320829Y317733D01*
X320939Y317624D01*
X321082Y317564D01*
X321237Y317564D01*
X321380Y317624D01*
X321490Y317733D01*
X321549Y317877D01*
X321549Y318032D01*
X321490Y318175D01*
X321380Y318285D01*
X321471Y318195D02*
X321848Y318195D01*
X321796Y318096D02*
X321523Y318096D01*
X321549Y317998D02*
X321770Y317998D01*
X321770Y317899D02*
X321549Y317899D01*
X321518Y317800D02*
X321801Y317800D01*
X321860Y317702D02*
X321459Y317702D01*
X321331Y317603D02*
X321988Y317603D01*
X321905Y317308D02*
X321414Y317308D01*
X321403Y317319D02*
X321245Y317384D01*
X321074Y317384D01*
X320916Y317319D01*
X320795Y317198D01*
X320730Y317040D01*
X320730Y316869D01*
X320795Y316711D01*
X320916Y316590D01*
X321074Y316524D01*
X321245Y316524D01*
X321403Y316590D01*
X321524Y316711D01*
X321589Y316869D01*
X321589Y317040D01*
X321524Y317198D01*
X321403Y317319D01*
X321513Y317209D02*
X321806Y317209D01*
X321759Y317111D02*
X321560Y317111D01*
X321589Y317012D02*
X321730Y317012D01*
X321730Y316914D02*
X321589Y316914D01*
X321567Y316815D02*
X321752Y316815D01*
X321793Y316716D02*
X321526Y316716D01*
X321431Y316618D02*
X321888Y316618D01*
X321891Y316322D02*
X321428Y316322D01*
X321526Y316224D02*
X321793Y316224D01*
X321743Y316125D02*
X321576Y316125D01*
X321609Y316027D02*
X321710Y316027D01*
X321724Y315830D02*
X321595Y315830D01*
X321554Y315731D02*
X321765Y315731D01*
X321845Y315632D02*
X321474Y315632D01*
X321209Y316027D02*
X321110Y316027D01*
X321110Y316125D02*
X321209Y316125D01*
X321209Y316224D02*
X321110Y316224D01*
X321110Y316322D02*
X321209Y316322D01*
X320891Y316322D02*
X320428Y316322D01*
X320526Y316224D02*
X320793Y316224D01*
X320743Y316125D02*
X320576Y316125D01*
X320609Y316027D02*
X320710Y316027D01*
X320724Y315830D02*
X320595Y315830D01*
X320554Y315731D02*
X320765Y315731D01*
X320845Y315632D02*
X320474Y315632D01*
X320209Y316027D02*
X320110Y316027D01*
X320110Y316125D02*
X320209Y316125D01*
X320209Y316224D02*
X320110Y316224D01*
X320110Y316322D02*
X320209Y316322D01*
X320245Y316524D02*
X320403Y316590D01*
X320524Y316711D01*
X320589Y316869D01*
X320589Y317040D01*
X320524Y317198D01*
X320403Y317319D01*
X320245Y317384D01*
X320074Y317384D01*
X319916Y317319D01*
X319795Y317198D01*
X319730Y317040D01*
X319730Y316869D01*
X319795Y316711D01*
X319916Y316590D01*
X320074Y316524D01*
X320245Y316524D01*
X320431Y316618D02*
X320888Y316618D01*
X320793Y316716D02*
X320526Y316716D01*
X320567Y316815D02*
X320752Y316815D01*
X320730Y316914D02*
X320589Y316914D01*
X320589Y317012D02*
X320730Y317012D01*
X320759Y317111D02*
X320560Y317111D01*
X320513Y317209D02*
X320806Y317209D01*
X320905Y317308D02*
X320414Y317308D01*
X320331Y317603D02*
X320988Y317603D01*
X320860Y317702D02*
X320459Y317702D01*
X320490Y317733D02*
X320549Y317877D01*
X320549Y318032D01*
X320490Y318175D01*
X320380Y318285D01*
X320237Y318344D01*
X320082Y318344D01*
X319939Y318285D01*
X319829Y318175D01*
X319770Y318032D01*
X319770Y317877D01*
X319829Y317733D01*
X319939Y317624D01*
X320082Y317564D01*
X320237Y317564D01*
X320380Y317624D01*
X320490Y317733D01*
X320518Y317800D02*
X320801Y317800D01*
X320770Y317899D02*
X320549Y317899D01*
X320549Y317998D02*
X320770Y317998D01*
X320796Y318096D02*
X320523Y318096D01*
X320471Y318195D02*
X320848Y318195D01*
X320958Y318293D02*
X320361Y318293D01*
X319958Y318293D02*
X319361Y318293D01*
X319471Y318195D02*
X319848Y318195D01*
X319796Y318096D02*
X319523Y318096D01*
X319549Y317998D02*
X319770Y317998D01*
X319770Y317899D02*
X319549Y317899D01*
X319518Y317800D02*
X319801Y317800D01*
X319860Y317702D02*
X319459Y317702D01*
X319331Y317603D02*
X319988Y317603D01*
X319905Y317308D02*
X319414Y317308D01*
X319513Y317209D02*
X319806Y317209D01*
X319759Y317111D02*
X319560Y317111D01*
X319589Y317012D02*
X319730Y317012D01*
X319730Y316914D02*
X319589Y316914D01*
X319567Y316815D02*
X319752Y316815D01*
X319793Y316716D02*
X319526Y316716D01*
X319431Y316618D02*
X319888Y316618D01*
X319891Y316322D02*
X319428Y316322D01*
X319526Y316224D02*
X319793Y316224D01*
X319743Y316125D02*
X319576Y316125D01*
X319609Y316027D02*
X319710Y316027D01*
X319724Y315830D02*
X319595Y315830D01*
X319554Y315731D02*
X319765Y315731D01*
X319845Y315632D02*
X319474Y315632D01*
X315660Y315632D02*
X311586Y315632D01*
X311704Y315534D02*
X315660Y315534D01*
X315660Y315454D02*
X315660Y316674D01*
X315612Y316626D01*
X315513Y316585D01*
X315406Y316585D01*
X315307Y316626D01*
X315260Y316674D01*
X315212Y316626D01*
X315113Y316585D01*
X315006Y316585D01*
X314907Y316626D01*
X314860Y316674D01*
X314812Y316626D01*
X314713Y316585D01*
X314606Y316585D01*
X314507Y316626D01*
X314460Y316674D01*
X314412Y316626D01*
X314313Y316585D01*
X314206Y316585D01*
X314107Y316626D01*
X314031Y316702D01*
X313990Y316801D01*
X313990Y316908D01*
X314031Y317007D01*
X314107Y317082D01*
X314206Y317123D01*
X314313Y317123D01*
X314412Y317082D01*
X314460Y317035D01*
X314507Y317082D01*
X314606Y317123D01*
X314713Y317123D01*
X314812Y317082D01*
X314860Y317035D01*
X314907Y317082D01*
X315006Y317123D01*
X315113Y317123D01*
X315212Y317082D01*
X315260Y317035D01*
X315307Y317082D01*
X315406Y317123D01*
X315513Y317123D01*
X315612Y317082D01*
X315660Y317035D01*
X315660Y317254D01*
X315360Y317554D01*
X314360Y317554D01*
X313060Y318354D01*
X312260Y317654D01*
X310360Y317354D01*
X310360Y316654D01*
X312160Y315154D01*
X315360Y315154D01*
X315660Y315454D01*
X315641Y315435D02*
X311822Y315435D01*
X311941Y315337D02*
X315542Y315337D01*
X315444Y315238D02*
X312059Y315238D01*
X311468Y315731D02*
X315660Y315731D01*
X315660Y315830D02*
X311349Y315830D01*
X311231Y315928D02*
X315660Y315928D01*
X315660Y316027D02*
X311113Y316027D01*
X310994Y316125D02*
X315660Y316125D01*
X315660Y316224D02*
X310876Y316224D01*
X310758Y316322D02*
X315660Y316322D01*
X315660Y316421D02*
X310640Y316421D01*
X310521Y316519D02*
X315660Y316519D01*
X315660Y316618D02*
X315592Y316618D01*
X315327Y316618D02*
X315192Y316618D01*
X314927Y316618D02*
X314792Y316618D01*
X314527Y316618D02*
X314392Y316618D01*
X314127Y316618D02*
X310403Y316618D01*
X310360Y316716D02*
X314025Y316716D01*
X313990Y316815D02*
X310360Y316815D01*
X310360Y316914D02*
X313993Y316914D01*
X314037Y317012D02*
X310360Y317012D01*
X310360Y317111D02*
X314175Y317111D01*
X314344Y317111D02*
X314575Y317111D01*
X314744Y317111D02*
X314975Y317111D01*
X315144Y317111D02*
X315375Y317111D01*
X315544Y317111D02*
X315660Y317111D01*
X315660Y317209D02*
X310360Y317209D01*
X310360Y317308D02*
X315606Y317308D01*
X315508Y317406D02*
X310688Y317406D01*
X311313Y317505D02*
X315409Y317505D01*
X314280Y317603D02*
X311937Y317603D01*
X312314Y317702D02*
X314120Y317702D01*
X313960Y317800D02*
X312426Y317800D01*
X312539Y317899D02*
X313799Y317899D01*
X313639Y317998D02*
X312652Y317998D01*
X312764Y318096D02*
X313479Y318096D01*
X313319Y318195D02*
X312877Y318195D01*
X312990Y318293D02*
X313159Y318293D01*
X312860Y318983D02*
X314637Y318983D01*
X314481Y319081D02*
X312860Y319081D01*
X312860Y319180D02*
X314410Y319180D01*
X314370Y319279D02*
X312860Y319279D01*
X312860Y319377D02*
X314370Y319377D01*
X314388Y319476D02*
X312860Y319476D01*
X312860Y319574D02*
X314429Y319574D01*
X315960Y319870D02*
X312860Y319870D01*
X312860Y320954D02*
X315960Y320954D01*
X316979Y320954D01*
X317341Y320954D02*
X317379Y320954D01*
X317741Y320954D02*
X317779Y320954D01*
X318141Y320954D02*
X318179Y320954D01*
X318541Y320954D02*
X318810Y320954D01*
X318790Y320855D02*
X318609Y320855D01*
X318629Y320757D02*
X318809Y320757D01*
X318875Y320658D02*
X318611Y320658D01*
X318545Y320560D02*
X330065Y320560D01*
X330163Y320658D02*
X319244Y320658D01*
X318877Y321052D02*
X315960Y321052D01*
X315009Y321052D01*
X315960Y319870D02*
X329375Y319870D01*
X330262Y320757D02*
X325042Y320757D01*
X325110Y320855D02*
X330360Y320855D01*
X330459Y320954D02*
X325129Y320954D01*
X325110Y321052D02*
X330381Y321052D01*
X330829Y321249D02*
X334455Y321249D01*
X334553Y321348D02*
X330812Y321348D01*
X330853Y321348D01*
X331149Y321644D02*
X327505Y321644D01*
X327529Y321742D02*
X331247Y321742D01*
X331346Y321841D02*
X327515Y321841D01*
X327455Y321939D02*
X331444Y321939D01*
X330809Y318884D02*
X330710Y318884D01*
X330710Y318786D02*
X330809Y318786D01*
X330809Y318687D02*
X330710Y318687D01*
X330710Y318589D02*
X330809Y318589D01*
X330809Y318293D02*
X330710Y318293D01*
X330710Y318195D02*
X330809Y318195D01*
X330809Y318096D02*
X330710Y318096D01*
X329860Y317899D02*
X329175Y317899D01*
X329279Y317800D02*
X329860Y317800D01*
X329860Y317702D02*
X329384Y317702D01*
X329489Y317603D02*
X329860Y317603D01*
X329860Y317505D02*
X329593Y317505D01*
X329698Y317406D02*
X329860Y317406D01*
X329860Y317308D02*
X329803Y317308D01*
X336160Y318154D02*
X336160Y320454D01*
X336460Y320754D01*
X338060Y320754D01*
X338860Y321554D01*
X340160Y321554D01*
X340260Y321654D01*
X340460Y321654D01*
X340960Y321154D01*
X340960Y321054D01*
X338860Y318954D01*
X338860Y318854D01*
X337760Y317754D01*
X337217Y317754D01*
X337145Y317784D01*
X336974Y317784D01*
X336902Y317754D01*
X336560Y317754D01*
X336160Y318154D01*
X336160Y318195D02*
X336639Y318195D01*
X336610Y318265D02*
X336678Y318099D01*
X336805Y317973D01*
X336970Y317904D01*
X337010Y317904D01*
X337010Y318304D01*
X337109Y318304D01*
X337109Y317904D01*
X337149Y317904D01*
X337314Y317973D01*
X337441Y318099D01*
X337509Y318265D01*
X337509Y318304D01*
X337110Y318304D01*
X337110Y318404D01*
X337509Y318404D01*
X337509Y318444D01*
X337441Y318609D01*
X337314Y318736D01*
X337149Y318804D01*
X337109Y318804D01*
X337109Y318404D01*
X337010Y318404D01*
X337010Y318804D01*
X336970Y318804D01*
X336805Y318736D01*
X336678Y318609D01*
X336610Y318444D01*
X336610Y318404D01*
X337009Y318404D01*
X337009Y318304D01*
X336610Y318304D01*
X336610Y318265D01*
X336610Y318293D02*
X336160Y318293D01*
X336160Y318392D02*
X337009Y318392D01*
X337010Y318490D02*
X337109Y318490D01*
X337110Y318392D02*
X338397Y318392D01*
X338495Y318490D02*
X337490Y318490D01*
X337449Y318589D02*
X338594Y318589D01*
X338693Y318687D02*
X337363Y318687D01*
X337194Y318786D02*
X338791Y318786D01*
X338860Y318884D02*
X336160Y318884D01*
X336160Y318786D02*
X336926Y318786D01*
X337010Y318786D02*
X337109Y318786D01*
X337109Y318687D02*
X337010Y318687D01*
X337010Y318589D02*
X337109Y318589D01*
X337109Y318293D02*
X337010Y318293D01*
X337010Y318195D02*
X337109Y318195D01*
X337109Y318096D02*
X337010Y318096D01*
X337010Y317998D02*
X337109Y317998D01*
X337339Y317998D02*
X338003Y317998D01*
X338101Y318096D02*
X337438Y318096D01*
X337480Y318195D02*
X338200Y318195D01*
X338298Y318293D02*
X337509Y318293D01*
X337904Y317899D02*
X336415Y317899D01*
X336513Y317800D02*
X337806Y317800D01*
X336780Y317998D02*
X336316Y317998D01*
X336218Y318096D02*
X336681Y318096D01*
X336629Y318490D02*
X336160Y318490D01*
X336160Y318589D02*
X336670Y318589D01*
X336756Y318687D02*
X336160Y318687D01*
X336160Y318983D02*
X338888Y318983D01*
X338987Y319081D02*
X336160Y319081D01*
X336160Y319180D02*
X339085Y319180D01*
X339184Y319279D02*
X336160Y319279D01*
X336160Y319377D02*
X339282Y319377D01*
X339381Y319476D02*
X336160Y319476D01*
X336160Y319574D02*
X339479Y319574D01*
X339578Y319673D02*
X336160Y319673D01*
X336160Y319771D02*
X339676Y319771D01*
X339775Y319870D02*
X336160Y319870D01*
X336160Y319968D02*
X339874Y319968D01*
X339972Y320067D02*
X336160Y320067D01*
X336160Y320165D02*
X340071Y320165D01*
X340169Y320264D02*
X336160Y320264D01*
X336160Y320363D02*
X340268Y320363D01*
X340366Y320461D02*
X336166Y320461D01*
X336265Y320560D02*
X340465Y320560D01*
X340563Y320658D02*
X336363Y320658D01*
X338062Y320757D02*
X340662Y320757D01*
X340760Y320855D02*
X338160Y320855D01*
X338259Y320954D02*
X340859Y320954D01*
X340958Y321052D02*
X338358Y321052D01*
X338456Y321151D02*
X340960Y321151D01*
X340864Y321249D02*
X338555Y321249D01*
X338653Y321348D02*
X340766Y321348D01*
X340667Y321447D02*
X338752Y321447D01*
X338850Y321545D02*
X340569Y321545D01*
X340470Y321644D02*
X340249Y321644D01*
X334960Y323122D02*
X334928Y323122D01*
X334944Y323614D02*
X334960Y323614D01*
X334960Y323713D02*
X334846Y323713D01*
X334830Y324009D02*
X334960Y324009D01*
X334960Y324107D02*
X334929Y324107D01*
X331390Y330020D02*
X331329Y330020D01*
X331329Y330118D02*
X331390Y330118D01*
X331390Y330217D02*
X331329Y330217D01*
X331329Y330315D02*
X331390Y330315D01*
X331390Y330414D02*
X331329Y330414D01*
X331329Y330513D02*
X331390Y330513D01*
X331390Y330611D02*
X331329Y330611D01*
X331329Y330710D02*
X331390Y330710D01*
X331146Y330710D02*
X329521Y330710D01*
X329654Y330611D02*
X331036Y330611D01*
X330981Y330513D02*
X329716Y330513D01*
X329749Y330414D02*
X330950Y330414D01*
X330950Y330315D02*
X329749Y330315D01*
X329725Y330217D02*
X330973Y330217D01*
X331016Y330118D02*
X329675Y330118D01*
X329571Y330020D02*
X331114Y330020D01*
X331180Y332385D02*
X329487Y332385D01*
X329640Y332483D02*
X331051Y332483D01*
X330987Y332582D02*
X329710Y332582D01*
X329749Y332680D02*
X330950Y332680D01*
X326464Y324206D02*
X322289Y324206D01*
X322166Y324107D02*
X326332Y324107D01*
X318174Y320560D02*
X318145Y320560D01*
X317774Y320560D02*
X317745Y320560D01*
X317374Y320560D02*
X317345Y320560D01*
M02*
