G75*
G70*
%OFA0B0*%
%FSLAX24Y24*%
%IPPOS*%
%LPD*%
%AMOC8*
5,1,8,0,0,1.08239X$1,22.5*
%
%ADD10C,0.1340*%
%ADD11OC8,0.0710*%
%ADD12C,0.0710*%
%ADD13C,0.0600*%
%ADD14C,0.0680*%
%ADD15C,0.0415*%
%ADD16OC8,0.0680*%
%ADD17OC8,0.0476*%
%ADD18R,0.0476X0.0476*%
%ADD19C,0.0476*%
D10*
X001101Y001501D03*
X001101Y010501D03*
X018401Y010501D03*
X018401Y001501D03*
D11*
X008930Y010772D03*
X002401Y005101D03*
D12*
X002401Y004101D03*
X007930Y010772D03*
D13*
X011101Y001361D02*
X011101Y000841D01*
X012101Y000841D02*
X012101Y001361D01*
X013101Y001361D02*
X013101Y000841D01*
X014101Y000841D02*
X014101Y001361D01*
X015101Y001361D02*
X015101Y000841D01*
X016101Y000841D02*
X016101Y001361D01*
D14*
X016001Y010101D02*
X015401Y010101D01*
X015401Y011101D02*
X016001Y011101D01*
X016801Y011101D02*
X017401Y011101D01*
X017401Y010101D02*
X016801Y010101D01*
D15*
X017291Y007901D03*
X016110Y007901D03*
D16*
X005501Y010301D03*
X004501Y010301D03*
X003501Y010301D03*
X002501Y010301D03*
X002501Y011301D03*
X003501Y011301D03*
X004501Y011301D03*
X005501Y011301D03*
D17*
X002961Y008996D03*
X002461Y008296D03*
X001201Y008301D03*
X014601Y002801D03*
D18*
X012701Y005201D03*
X013801Y007501D03*
X017201Y006401D03*
X009701Y007501D03*
X009701Y008294D03*
X009694Y009101D03*
X008301Y009101D03*
X003761Y008996D03*
X003361Y008296D03*
X001201Y009101D03*
X002501Y002601D03*
X003301Y002601D03*
X004101Y002601D03*
X003401Y001701D03*
X003401Y000601D03*
X006501Y000801D03*
D19*
X005001Y000601D03*
X004201Y000601D03*
X004201Y001701D03*
X005001Y001701D03*
X005701Y002701D03*
X004101Y003401D03*
X003301Y003401D03*
X002501Y003401D03*
X001201Y005101D03*
X001201Y005901D03*
X001201Y006701D03*
X001201Y007501D03*
X004161Y008296D03*
X004961Y008296D03*
X005761Y008296D03*
X005361Y008996D03*
X004561Y008996D03*
X006161Y008996D03*
X008001Y007801D03*
X008701Y008001D03*
X008201Y008301D03*
X009901Y006901D03*
X010501Y007494D03*
X010501Y008294D03*
X010494Y009101D03*
X011201Y006101D03*
X011301Y005601D03*
X014001Y005701D03*
X014001Y005201D03*
X014001Y004601D03*
X013801Y002801D03*
X013101Y002801D03*
X012301Y002801D03*
X011501Y002801D03*
X010701Y002801D03*
X004801Y005151D03*
X004001Y005341D03*
X004601Y007601D03*
M02*
