G75*
G70*
%OFA0B0*%
%FSLAX24Y24*%
%IPPOS*%
%LPD*%
%AMOC8*
5,1,8,0,0,1.08239X$1,22.5*
%
%ADD10C,0.0000*%
%ADD11C,0.0100*%
%ADD12C,0.0080*%
%ADD13C,0.0060*%
%ADD14R,0.0079X0.0079*%
%ADD15C,0.0050*%
D10*
X000101Y000101D02*
X000101Y011971D01*
X019409Y011971D01*
X019409Y000101D01*
X000101Y000101D01*
X000471Y001501D02*
X000473Y001551D01*
X000479Y001601D01*
X000489Y001650D01*
X000503Y001698D01*
X000520Y001745D01*
X000541Y001790D01*
X000566Y001834D01*
X000594Y001875D01*
X000626Y001914D01*
X000660Y001951D01*
X000697Y001985D01*
X000737Y002015D01*
X000779Y002042D01*
X000823Y002066D01*
X000869Y002087D01*
X000916Y002103D01*
X000964Y002116D01*
X001014Y002125D01*
X001063Y002130D01*
X001114Y002131D01*
X001164Y002128D01*
X001213Y002121D01*
X001262Y002110D01*
X001310Y002095D01*
X001356Y002077D01*
X001401Y002055D01*
X001444Y002029D01*
X001485Y002000D01*
X001524Y001968D01*
X001560Y001933D01*
X001592Y001895D01*
X001622Y001855D01*
X001649Y001812D01*
X001672Y001768D01*
X001691Y001722D01*
X001707Y001674D01*
X001719Y001625D01*
X001727Y001576D01*
X001731Y001526D01*
X001731Y001476D01*
X001727Y001426D01*
X001719Y001377D01*
X001707Y001328D01*
X001691Y001280D01*
X001672Y001234D01*
X001649Y001190D01*
X001622Y001147D01*
X001592Y001107D01*
X001560Y001069D01*
X001524Y001034D01*
X001485Y001002D01*
X001444Y000973D01*
X001401Y000947D01*
X001356Y000925D01*
X001310Y000907D01*
X001262Y000892D01*
X001213Y000881D01*
X001164Y000874D01*
X001114Y000871D01*
X001063Y000872D01*
X001014Y000877D01*
X000964Y000886D01*
X000916Y000899D01*
X000869Y000915D01*
X000823Y000936D01*
X000779Y000960D01*
X000737Y000987D01*
X000697Y001017D01*
X000660Y001051D01*
X000626Y001088D01*
X000594Y001127D01*
X000566Y001168D01*
X000541Y001212D01*
X000520Y001257D01*
X000503Y001304D01*
X000489Y001352D01*
X000479Y001401D01*
X000473Y001451D01*
X000471Y001501D01*
X000471Y010501D02*
X000473Y010551D01*
X000479Y010601D01*
X000489Y010650D01*
X000503Y010698D01*
X000520Y010745D01*
X000541Y010790D01*
X000566Y010834D01*
X000594Y010875D01*
X000626Y010914D01*
X000660Y010951D01*
X000697Y010985D01*
X000737Y011015D01*
X000779Y011042D01*
X000823Y011066D01*
X000869Y011087D01*
X000916Y011103D01*
X000964Y011116D01*
X001014Y011125D01*
X001063Y011130D01*
X001114Y011131D01*
X001164Y011128D01*
X001213Y011121D01*
X001262Y011110D01*
X001310Y011095D01*
X001356Y011077D01*
X001401Y011055D01*
X001444Y011029D01*
X001485Y011000D01*
X001524Y010968D01*
X001560Y010933D01*
X001592Y010895D01*
X001622Y010855D01*
X001649Y010812D01*
X001672Y010768D01*
X001691Y010722D01*
X001707Y010674D01*
X001719Y010625D01*
X001727Y010576D01*
X001731Y010526D01*
X001731Y010476D01*
X001727Y010426D01*
X001719Y010377D01*
X001707Y010328D01*
X001691Y010280D01*
X001672Y010234D01*
X001649Y010190D01*
X001622Y010147D01*
X001592Y010107D01*
X001560Y010069D01*
X001524Y010034D01*
X001485Y010002D01*
X001444Y009973D01*
X001401Y009947D01*
X001356Y009925D01*
X001310Y009907D01*
X001262Y009892D01*
X001213Y009881D01*
X001164Y009874D01*
X001114Y009871D01*
X001063Y009872D01*
X001014Y009877D01*
X000964Y009886D01*
X000916Y009899D01*
X000869Y009915D01*
X000823Y009936D01*
X000779Y009960D01*
X000737Y009987D01*
X000697Y010017D01*
X000660Y010051D01*
X000626Y010088D01*
X000594Y010127D01*
X000566Y010168D01*
X000541Y010212D01*
X000520Y010257D01*
X000503Y010304D01*
X000489Y010352D01*
X000479Y010401D01*
X000473Y010451D01*
X000471Y010501D01*
X015943Y007901D02*
X015945Y007926D01*
X015951Y007951D01*
X015960Y007975D01*
X015973Y007997D01*
X015990Y008017D01*
X016009Y008034D01*
X016030Y008048D01*
X016054Y008058D01*
X016078Y008065D01*
X016104Y008068D01*
X016129Y008067D01*
X016154Y008062D01*
X016178Y008053D01*
X016201Y008041D01*
X016221Y008026D01*
X016239Y008007D01*
X016254Y007986D01*
X016265Y007963D01*
X016273Y007939D01*
X016277Y007914D01*
X016277Y007888D01*
X016273Y007863D01*
X016265Y007839D01*
X016254Y007816D01*
X016239Y007795D01*
X016221Y007776D01*
X016201Y007761D01*
X016178Y007749D01*
X016154Y007740D01*
X016129Y007735D01*
X016104Y007734D01*
X016078Y007737D01*
X016054Y007744D01*
X016030Y007754D01*
X016009Y007768D01*
X015990Y007785D01*
X015973Y007805D01*
X015960Y007827D01*
X015951Y007851D01*
X015945Y007876D01*
X015943Y007901D01*
X017124Y007901D02*
X017126Y007926D01*
X017132Y007951D01*
X017141Y007975D01*
X017154Y007997D01*
X017171Y008017D01*
X017190Y008034D01*
X017211Y008048D01*
X017235Y008058D01*
X017259Y008065D01*
X017285Y008068D01*
X017310Y008067D01*
X017335Y008062D01*
X017359Y008053D01*
X017382Y008041D01*
X017402Y008026D01*
X017420Y008007D01*
X017435Y007986D01*
X017446Y007963D01*
X017454Y007939D01*
X017458Y007914D01*
X017458Y007888D01*
X017454Y007863D01*
X017446Y007839D01*
X017435Y007816D01*
X017420Y007795D01*
X017402Y007776D01*
X017382Y007761D01*
X017359Y007749D01*
X017335Y007740D01*
X017310Y007735D01*
X017285Y007734D01*
X017259Y007737D01*
X017235Y007744D01*
X017211Y007754D01*
X017190Y007768D01*
X017171Y007785D01*
X017154Y007805D01*
X017141Y007827D01*
X017132Y007851D01*
X017126Y007876D01*
X017124Y007901D01*
X017771Y010501D02*
X017773Y010551D01*
X017779Y010601D01*
X017789Y010650D01*
X017803Y010698D01*
X017820Y010745D01*
X017841Y010790D01*
X017866Y010834D01*
X017894Y010875D01*
X017926Y010914D01*
X017960Y010951D01*
X017997Y010985D01*
X018037Y011015D01*
X018079Y011042D01*
X018123Y011066D01*
X018169Y011087D01*
X018216Y011103D01*
X018264Y011116D01*
X018314Y011125D01*
X018363Y011130D01*
X018414Y011131D01*
X018464Y011128D01*
X018513Y011121D01*
X018562Y011110D01*
X018610Y011095D01*
X018656Y011077D01*
X018701Y011055D01*
X018744Y011029D01*
X018785Y011000D01*
X018824Y010968D01*
X018860Y010933D01*
X018892Y010895D01*
X018922Y010855D01*
X018949Y010812D01*
X018972Y010768D01*
X018991Y010722D01*
X019007Y010674D01*
X019019Y010625D01*
X019027Y010576D01*
X019031Y010526D01*
X019031Y010476D01*
X019027Y010426D01*
X019019Y010377D01*
X019007Y010328D01*
X018991Y010280D01*
X018972Y010234D01*
X018949Y010190D01*
X018922Y010147D01*
X018892Y010107D01*
X018860Y010069D01*
X018824Y010034D01*
X018785Y010002D01*
X018744Y009973D01*
X018701Y009947D01*
X018656Y009925D01*
X018610Y009907D01*
X018562Y009892D01*
X018513Y009881D01*
X018464Y009874D01*
X018414Y009871D01*
X018363Y009872D01*
X018314Y009877D01*
X018264Y009886D01*
X018216Y009899D01*
X018169Y009915D01*
X018123Y009936D01*
X018079Y009960D01*
X018037Y009987D01*
X017997Y010017D01*
X017960Y010051D01*
X017926Y010088D01*
X017894Y010127D01*
X017866Y010168D01*
X017841Y010212D01*
X017820Y010257D01*
X017803Y010304D01*
X017789Y010352D01*
X017779Y010401D01*
X017773Y010451D01*
X017771Y010501D01*
X017771Y001501D02*
X017773Y001551D01*
X017779Y001601D01*
X017789Y001650D01*
X017803Y001698D01*
X017820Y001745D01*
X017841Y001790D01*
X017866Y001834D01*
X017894Y001875D01*
X017926Y001914D01*
X017960Y001951D01*
X017997Y001985D01*
X018037Y002015D01*
X018079Y002042D01*
X018123Y002066D01*
X018169Y002087D01*
X018216Y002103D01*
X018264Y002116D01*
X018314Y002125D01*
X018363Y002130D01*
X018414Y002131D01*
X018464Y002128D01*
X018513Y002121D01*
X018562Y002110D01*
X018610Y002095D01*
X018656Y002077D01*
X018701Y002055D01*
X018744Y002029D01*
X018785Y002000D01*
X018824Y001968D01*
X018860Y001933D01*
X018892Y001895D01*
X018922Y001855D01*
X018949Y001812D01*
X018972Y001768D01*
X018991Y001722D01*
X019007Y001674D01*
X019019Y001625D01*
X019027Y001576D01*
X019031Y001526D01*
X019031Y001476D01*
X019027Y001426D01*
X019019Y001377D01*
X019007Y001328D01*
X018991Y001280D01*
X018972Y001234D01*
X018949Y001190D01*
X018922Y001147D01*
X018892Y001107D01*
X018860Y001069D01*
X018824Y001034D01*
X018785Y001002D01*
X018744Y000973D01*
X018701Y000947D01*
X018656Y000925D01*
X018610Y000907D01*
X018562Y000892D01*
X018513Y000881D01*
X018464Y000874D01*
X018414Y000871D01*
X018363Y000872D01*
X018314Y000877D01*
X018264Y000886D01*
X018216Y000899D01*
X018169Y000915D01*
X018123Y000936D01*
X018079Y000960D01*
X018037Y000987D01*
X017997Y001017D01*
X017960Y001051D01*
X017926Y001088D01*
X017894Y001127D01*
X017866Y001168D01*
X017841Y001212D01*
X017820Y001257D01*
X017803Y001304D01*
X017789Y001352D01*
X017779Y001401D01*
X017773Y001451D01*
X017771Y001501D01*
D11*
X006015Y006376D02*
X006017Y006396D01*
X006022Y006416D01*
X006032Y006434D01*
X006044Y006451D01*
X006059Y006465D01*
X006077Y006475D01*
X006096Y006483D01*
X006116Y006487D01*
X006136Y006487D01*
X006156Y006483D01*
X006175Y006475D01*
X006193Y006465D01*
X006208Y006451D01*
X006220Y006434D01*
X006230Y006416D01*
X006235Y006396D01*
X006237Y006376D01*
X006235Y006356D01*
X006230Y006336D01*
X006220Y006318D01*
X006208Y006301D01*
X006193Y006287D01*
X006175Y006277D01*
X006156Y006269D01*
X006136Y006265D01*
X006116Y006265D01*
X006096Y006269D01*
X006077Y006277D01*
X006059Y006287D01*
X006044Y006301D01*
X006032Y006318D01*
X006022Y006336D01*
X006017Y006356D01*
X006015Y006376D01*
D12*
X005811Y006533D02*
X005811Y003069D01*
X005969Y002911D01*
X009433Y002911D01*
X009591Y003069D01*
X009591Y006533D01*
X009433Y006691D01*
X005969Y006691D01*
X005811Y006533D01*
X015283Y007212D02*
X018118Y007212D01*
X018118Y008590D01*
X015283Y008590D01*
X015283Y007212D01*
D13*
X013982Y009171D02*
X012620Y009171D01*
X012620Y011631D01*
X013982Y011631D01*
X013982Y009171D01*
X015201Y009851D02*
X015201Y010351D01*
X015451Y010601D01*
X015201Y010851D01*
X015201Y011351D01*
X015451Y011601D01*
X015951Y011601D01*
X016201Y011351D01*
X016201Y010851D01*
X015951Y010601D01*
X016201Y010351D01*
X016201Y009851D01*
X015951Y009601D01*
X015451Y009601D01*
X015201Y009851D01*
X016601Y009851D02*
X016601Y010351D01*
X016851Y010601D01*
X016601Y010851D01*
X016601Y011351D01*
X016851Y011601D01*
X017351Y011601D01*
X017601Y011351D01*
X017601Y010851D01*
X017351Y010601D01*
X017601Y010351D01*
X017601Y009851D01*
X017351Y009601D01*
X016851Y009601D01*
X016601Y009851D01*
X007330Y010772D02*
X007332Y010838D01*
X007338Y010903D01*
X007348Y010968D01*
X007361Y011033D01*
X007379Y011096D01*
X007400Y011159D01*
X007425Y011219D01*
X007454Y011279D01*
X007486Y011336D01*
X007521Y011392D01*
X007560Y011445D01*
X007602Y011496D01*
X007646Y011544D01*
X007694Y011589D01*
X007744Y011632D01*
X007797Y011671D01*
X007852Y011708D01*
X007909Y011741D01*
X007968Y011770D01*
X008028Y011796D01*
X008090Y011818D01*
X008153Y011837D01*
X008217Y011851D01*
X008282Y011862D01*
X008348Y011869D01*
X008414Y011872D01*
X008479Y011871D01*
X008545Y011866D01*
X008610Y011857D01*
X008675Y011844D01*
X008738Y011828D01*
X008801Y011808D01*
X008862Y011783D01*
X008922Y011756D01*
X008980Y011725D01*
X009036Y011690D01*
X009090Y011652D01*
X009141Y011611D01*
X009190Y011567D01*
X009236Y011520D01*
X009280Y011471D01*
X009320Y011419D01*
X009357Y011364D01*
X009391Y011308D01*
X009421Y011249D01*
X009448Y011189D01*
X009471Y011128D01*
X009490Y011065D01*
X009506Y011001D01*
X009518Y010936D01*
X009526Y010871D01*
X009530Y010805D01*
X009530Y010739D01*
X009526Y010673D01*
X009518Y010608D01*
X009506Y010543D01*
X009490Y010479D01*
X009471Y010416D01*
X009448Y010355D01*
X009421Y010295D01*
X009391Y010236D01*
X009357Y010180D01*
X009320Y010125D01*
X009280Y010073D01*
X009236Y010024D01*
X009190Y009977D01*
X009141Y009933D01*
X009090Y009892D01*
X009036Y009854D01*
X008980Y009819D01*
X008922Y009788D01*
X008862Y009761D01*
X008801Y009736D01*
X008738Y009716D01*
X008675Y009700D01*
X008610Y009687D01*
X008545Y009678D01*
X008479Y009673D01*
X008414Y009672D01*
X008348Y009675D01*
X008282Y009682D01*
X008217Y009693D01*
X008153Y009707D01*
X008090Y009726D01*
X008028Y009748D01*
X007968Y009774D01*
X007909Y009803D01*
X007852Y009836D01*
X007797Y009873D01*
X007744Y009912D01*
X007694Y009955D01*
X007646Y010000D01*
X007602Y010048D01*
X007560Y010099D01*
X007521Y010152D01*
X007486Y010208D01*
X007454Y010265D01*
X007425Y010325D01*
X007400Y010385D01*
X007379Y010448D01*
X007361Y010511D01*
X007348Y010576D01*
X007338Y010641D01*
X007332Y010706D01*
X007330Y010772D01*
X007780Y011122D02*
X007780Y011272D01*
X007780Y011422D01*
X007780Y011272D02*
X007930Y011272D01*
X007780Y011272D02*
X007630Y011272D01*
X006001Y011551D02*
X005751Y011801D01*
X005251Y011801D01*
X005001Y011551D01*
X004751Y011801D01*
X004251Y011801D01*
X004001Y011551D01*
X003751Y011801D01*
X003251Y011801D01*
X003001Y011551D01*
X002751Y011801D01*
X002251Y011801D01*
X002001Y011551D01*
X002001Y010051D01*
X002251Y009801D01*
X002751Y009801D01*
X003001Y010051D01*
X003251Y009801D01*
X003751Y009801D01*
X004001Y010051D01*
X004251Y009801D01*
X004751Y009801D01*
X005001Y010051D01*
X005251Y009801D01*
X005751Y009801D01*
X006001Y010051D01*
X006001Y011551D01*
X001301Y004601D02*
X001303Y004667D01*
X001309Y004732D01*
X001319Y004797D01*
X001332Y004862D01*
X001350Y004925D01*
X001371Y004988D01*
X001396Y005048D01*
X001425Y005108D01*
X001457Y005165D01*
X001492Y005221D01*
X001531Y005274D01*
X001573Y005325D01*
X001617Y005373D01*
X001665Y005418D01*
X001715Y005461D01*
X001768Y005500D01*
X001823Y005537D01*
X001880Y005570D01*
X001939Y005599D01*
X001999Y005625D01*
X002061Y005647D01*
X002124Y005666D01*
X002188Y005680D01*
X002253Y005691D01*
X002319Y005698D01*
X002385Y005701D01*
X002450Y005700D01*
X002516Y005695D01*
X002581Y005686D01*
X002646Y005673D01*
X002709Y005657D01*
X002772Y005637D01*
X002833Y005612D01*
X002893Y005585D01*
X002951Y005554D01*
X003007Y005519D01*
X003061Y005481D01*
X003112Y005440D01*
X003161Y005396D01*
X003207Y005349D01*
X003251Y005300D01*
X003291Y005248D01*
X003328Y005193D01*
X003362Y005137D01*
X003392Y005078D01*
X003419Y005018D01*
X003442Y004957D01*
X003461Y004894D01*
X003477Y004830D01*
X003489Y004765D01*
X003497Y004700D01*
X003501Y004634D01*
X003501Y004568D01*
X003497Y004502D01*
X003489Y004437D01*
X003477Y004372D01*
X003461Y004308D01*
X003442Y004245D01*
X003419Y004184D01*
X003392Y004124D01*
X003362Y004065D01*
X003328Y004009D01*
X003291Y003954D01*
X003251Y003902D01*
X003207Y003853D01*
X003161Y003806D01*
X003112Y003762D01*
X003061Y003721D01*
X003007Y003683D01*
X002951Y003648D01*
X002893Y003617D01*
X002833Y003590D01*
X002772Y003565D01*
X002709Y003545D01*
X002646Y003529D01*
X002581Y003516D01*
X002516Y003507D01*
X002450Y003502D01*
X002385Y003501D01*
X002319Y003504D01*
X002253Y003511D01*
X002188Y003522D01*
X002124Y003536D01*
X002061Y003555D01*
X001999Y003577D01*
X001939Y003603D01*
X001880Y003632D01*
X001823Y003665D01*
X001768Y003702D01*
X001715Y003741D01*
X001665Y003784D01*
X001617Y003829D01*
X001573Y003877D01*
X001531Y003928D01*
X001492Y003981D01*
X001457Y004037D01*
X001425Y004094D01*
X001396Y004154D01*
X001371Y004214D01*
X001350Y004277D01*
X001332Y004340D01*
X001319Y004405D01*
X001309Y004470D01*
X001303Y004535D01*
X001301Y004601D01*
X001901Y004101D02*
X001901Y003951D01*
X001751Y003951D01*
X001901Y003951D02*
X001901Y003801D01*
X001901Y003951D02*
X002051Y003951D01*
X010601Y001601D02*
X010601Y000601D01*
X011501Y000601D01*
X011601Y000701D01*
X011701Y000601D01*
X012501Y000601D01*
X012601Y000701D01*
X012701Y000601D01*
X013501Y000601D01*
X013601Y000701D01*
X013701Y000601D01*
X014501Y000601D01*
X014601Y000701D01*
X014701Y000601D01*
X015501Y000601D01*
X015601Y000701D01*
X015701Y000601D01*
X016601Y000601D01*
X016601Y001601D01*
X015701Y001601D01*
X015601Y001501D01*
X015501Y001601D01*
X014701Y001601D01*
X014601Y001501D01*
X014501Y001601D01*
X013701Y001601D01*
X013601Y001501D01*
X013501Y001601D01*
X012701Y001601D01*
X012601Y001501D01*
X012501Y001601D01*
X011701Y001601D01*
X011601Y001501D01*
X011501Y001601D01*
X010601Y001601D01*
D14*
X015540Y004101D03*
X015540Y004901D03*
X015540Y005701D03*
X010940Y009701D03*
D15*
X015475Y011816D02*
X015926Y011816D01*
X015926Y011966D02*
X015926Y011665D01*
X015626Y011665D02*
X015475Y011816D01*
X016875Y011816D02*
X017326Y011816D01*
X017326Y011966D02*
X017326Y011665D01*
X017026Y011665D02*
X016875Y011816D01*
X005566Y011976D02*
X005265Y011976D01*
X005416Y011976D02*
X005416Y012426D01*
X005265Y012276D01*
X002366Y009551D02*
X002291Y009626D01*
X002140Y009626D01*
X002065Y009551D01*
X002065Y009476D01*
X002140Y009401D01*
X002291Y009401D01*
X002366Y009326D01*
X002366Y009251D01*
X002291Y009176D01*
X002140Y009176D01*
X002065Y009251D01*
X002065Y009326D01*
X002140Y009401D01*
X002291Y009401D02*
X002366Y009476D01*
X002366Y009551D01*
X010926Y002026D02*
X011076Y002176D01*
X011076Y001726D01*
X010926Y001726D02*
X011226Y001726D01*
X015926Y001801D02*
X016001Y001726D01*
X016151Y001726D01*
X016226Y001801D01*
X016226Y001876D01*
X016151Y001951D01*
X015926Y001951D01*
X015926Y001801D01*
X015926Y001951D02*
X016076Y002101D01*
X016226Y002176D01*
M02*
